<svg width="16" height="16" viewBox="0 0 16 16" fill="none" xmlns="http://www.w3.org/2000/svg">
<path fill-rule="evenodd" clip-rule="evenodd" d="M14.25 8C14.25 11.4518 11.4518 14.25 8 14.25C4.54822 14.25 1.75 11.4518 1.75 8C1.75 4.54822 4.54822 1.75 8 1.75C11.4518 1.75 14.25 4.54822 14.25 8ZM8 15.75C12.2802 15.75 15.75 12.2802 15.75 8C15.75 3.71979 12.2802 0.250001 8 0.25C3.71979 0.25 0.250001 3.71979 0.250001 8C0.25 12.2802 3.71979 15.75 8 15.75ZM8 12.1504C7.58579 12.1504 7.25 11.8146 7.25 11.4004L7.25 7.51705C7.25 7.10284 7.58579 6.76705 8 6.76705C8.41421 6.76705 8.75 7.10284 8.75 7.51705L8.75 11.4004C8.75 11.8146 8.41421 12.1504 8 12.1504ZM8 4C7.44771 4 7 4.44771 7 5C7 5.55229 7.44771 6 8 6C8.55228 6 9 5.55229 9 5C9 4.44772 8.55228 4 8 4Z" fill="#C7C7D9"/>
</svg>
