<svg width="110" height="37" viewBox="0 0 110 37" fill="none" xmlns="http://www.w3.org/2000/svg">
<g filter="url(#filter0_d_1447_39443)">
<path d="M4.75406 21.237L4.0378 20.6146L3.31168 19.9922C1.87422 20.2738 -0.793212 24.1267 0.229306 25.0109C1.25183 25.8951 4.68491 22.6991 4.75406 21.237Z" fill="#A5C920"/>
</g>
<g style="mix-blend-mode:multiply">
<path d="M4.75377 21.2369L4.30921 20.8516C4.14126 22.1458 0.955151 25.2183 0.140099 24.507C0.077463 24.4522 0.0327123 24.3799 0.0116623 24.2995C-0.0101045 24.4272 -0.00131805 24.5582 0.0373195 24.6819C0.0759571 24.8055 0.143352 24.9182 0.233955 25.0108C1.25647 25.895 4.68461 22.699 4.75377 21.2369Z" fill="#D6D6D6"/>
</g>
<path d="M5.31204 20.6042C5.24219 20.3211 5.0828 20.0682 4.85759 19.883L5.1441 19.552L4.94156 19.3742L4.65505 19.7051C4.4392 19.5084 4.16533 19.3871 3.8746 19.3594C3.66219 19.3594 3.31641 20.0015 3.31641 20.0015L4.75385 21.2463C4.75385 21.2463 5.32686 20.8166 5.31204 20.6042Z" fill="#D6D6D6"/>
<path opacity="0.4" d="M4.46736 19.8545C4.58592 19.7557 4.67976 19.731 4.73904 19.7607L5.02552 19.4297H5.00083L4.71435 19.7607C4.65436 19.7188 4.5844 19.6936 4.51153 19.6875C4.43867 19.6815 4.36548 19.6948 4.2994 19.7261C4.09074 19.9212 3.90361 20.1381 3.74121 20.3732L3.90917 20.5164C4.08388 20.2865 4.27018 20.0655 4.46736 19.8545Z" fill="white"/>
<g style="mix-blend-mode:multiply">
<path d="M4.88728 20.2282C4.91089 20.159 4.91508 20.0847 4.89941 20.0132C4.88373 19.9418 4.84879 19.8761 4.79837 19.8231L5.08489 19.4922H5.06016L4.77368 19.8231C4.80826 19.8775 4.77366 19.9763 4.71932 20.1047C4.66499 20.2331 4.16113 20.7469 4.16113 20.7469L4.3291 20.8951C4.5397 20.6945 4.72695 20.4708 4.88728 20.2282Z" fill="#D6D6D6"/>
</g>
<path opacity="0.4" d="M4.08689 19.5211C4.19407 19.5097 4.30244 19.5205 4.40527 19.5528C4.5081 19.5851 4.60319 19.6382 4.68461 19.7088L4.97109 19.3828L4.68461 19.7138C4.48773 19.5351 4.23401 19.4319 3.96835 19.4223C3.76582 19.447 3.41016 20.0645 3.41016 20.0645L3.54845 20.183C3.54845 20.183 3.90412 19.5656 4.08689 19.5211Z" fill="white"/>
<g style="mix-blend-mode:multiply">
<path d="M5.23774 20.5369C5.1916 20.2751 5.05313 20.0385 4.84748 19.87L5.134 19.5391L4.84748 19.8651C4.92996 19.9358 4.99706 20.0228 5.04463 20.1205C5.09221 20.2182 5.11926 20.3246 5.12411 20.4331C5.12411 20.6159 4.56592 21.0753 4.56592 21.0753L4.6993 21.1939C4.6993 21.1939 5.24268 20.7394 5.23774 20.5369Z" fill="#D6D6D6"/>
</g>
<path opacity="0.4" d="M3.38585 20.571C3.05983 20.4376 1.64213 21.1094 0.915996 23.0409C0.456604 24.3499 4.02307 20.8427 3.38585 20.571Z" fill="white"/>
<g filter="url(#filter1_d_1447_39443)">
<path d="M26.839 27.1406L25.9252 27.4074L25.0113 27.6741C24.468 29.0325 26.2512 33.3647 27.5504 32.9843C28.8495 32.6039 28.0097 27.9804 26.839 27.1406Z" fill="#D2C514"/>
</g>
<g style="mix-blend-mode:multiply">
<path d="M26.8391 27.1406L26.271 27.3086C27.2589 28.1533 28.1135 32.4903 27.0762 32.7916C26.9974 32.8163 26.9129 32.8163 26.8341 32.7916C26.9284 32.8804 27.0429 32.9448 27.1678 32.9792C27.2926 33.0137 27.4239 33.0171 27.5504 32.9892C28.8446 32.6089 28.0098 27.9804 26.8391 27.1406Z" fill="#D6D6D6"/>
</g>
<path d="M26.6022 26.3183C26.3255 26.2219 26.0243 26.2219 25.7476 26.3183L25.6241 25.8984L25.3673 25.9725L25.4908 26.3924C25.2081 26.4655 24.9567 26.6285 24.7745 26.8567C24.6708 27.0445 25.0116 27.6767 25.0116 27.6767L26.8393 27.1433C26.8393 27.1433 26.7899 26.422 26.6022 26.3183Z" fill="#D6D6D6"/>
<path opacity="0.4" d="M25.54 26.6262C25.54 26.478 25.54 26.3792 25.6092 26.3446L25.4907 25.9297H25.461L25.5796 26.3446C25.5118 26.3736 25.4528 26.4199 25.4086 26.4788C25.3644 26.5378 25.3365 26.6074 25.3276 26.6805C25.3779 26.9598 25.4574 27.2329 25.5647 27.4956L25.7821 27.4314C25.7821 27.4314 25.54 26.7793 25.54 26.6262Z" fill="white"/>
<g style="mix-blend-mode:multiply">
<path d="M26.0589 26.4978C26.0142 26.4391 25.9539 26.3941 25.885 26.3679C25.816 26.3417 25.7411 26.3354 25.6687 26.3496L25.5501 25.9297H25.5205L25.6391 26.3496C25.7033 26.3496 25.7823 26.4138 25.8465 26.5472C25.9107 26.6805 26.0886 27.3671 26.0886 27.3671L26.301 27.3029C26.2512 27.0262 26.17 26.7561 26.0589 26.4978Z" fill="#D6D6D6"/>
</g>
<path opacity="0.4" d="M25.0461 26.7809C25.0955 26.6831 25.165 26.5969 25.2502 26.5279C25.3353 26.459 25.4341 26.4088 25.54 26.3808L25.4215 25.9609H25.3968L25.5153 26.3808C25.2591 26.4506 25.0354 26.6079 24.883 26.8254C24.7941 27.0082 25.1202 27.6404 25.1202 27.6404L25.293 27.591C25.293 27.591 24.9818 26.9538 25.0461 26.7809Z" fill="white"/>
<g style="mix-blend-mode:multiply">
<path d="M26.5279 26.348C26.2813 26.2466 26.007 26.2343 25.7523 26.3134L25.6338 25.8984L25.7523 26.3183C25.8563 26.286 25.9658 26.2758 26.0739 26.2886C26.182 26.3014 26.2862 26.3367 26.3797 26.3924C26.5229 26.511 26.6168 27.2124 26.6168 27.2124L26.7897 27.163C26.7897 27.163 26.6761 26.4566 26.5279 26.348Z" fill="#D6D6D6"/>
</g>
<path opacity="0.4" d="M25.5398 27.9291C25.2483 28.1266 25.0458 29.6826 26.2857 31.3375C27.1106 32.4192 26.1029 27.5339 25.5398 27.9291Z" fill="white"/>
<g filter="url(#filter2_d_1447_39443)">
<path d="M49.0036 19.4453L48.1391 19.8405L47.2697 20.2406C46.9338 21.6632 49.3296 25.6743 50.5596 25.126C51.7896 24.5777 50.3027 20.1171 49.0036 19.4453Z" fill="#FFC107"/>
</g>
<g style="mix-blend-mode:multiply">
<path d="M49.0038 19.4453L48.4653 19.6923C49.5768 20.3789 51.0439 24.553 50.0658 25.0025C49.9885 25.0374 49.9023 25.0477 49.8188 25.0321C49.9261 25.1053 50.0492 25.152 50.178 25.1683C50.3068 25.1846 50.4377 25.1701 50.5598 25.126C51.7898 24.5628 50.3029 20.1171 49.0038 19.4453Z" fill="#D6D6D6"/>
</g>
<path d="M48.6482 18.6829C48.3596 18.6313 48.0621 18.6729 47.7986 18.8014L47.6158 18.4062L47.3738 18.5149L47.5565 18.9101C47.2866 19.0229 47.0623 19.2229 46.9193 19.4782C46.8452 19.6758 47.27 20.2537 47.27 20.2537L49.0039 19.4584C49.0039 19.4584 48.8458 18.757 48.6482 18.6829Z" fill="#D6D6D6"/>
<path opacity="0.4" d="M47.6303 19.1504C47.5908 19.0022 47.6303 18.9034 47.6303 18.8639L47.4525 18.4688H47.4228L47.6056 18.8689C47.5418 18.9056 47.4893 18.9591 47.4536 19.0235C47.4179 19.0879 47.4004 19.1608 47.4031 19.2344C47.4949 19.5028 47.6141 19.761 47.7587 20.005L47.9613 19.9161C47.9613 19.9161 47.6698 19.2986 47.6303 19.1504Z" fill="white"/>
<g style="mix-blend-mode:multiply">
<path d="M48.1341 18.9216C48.0803 18.8725 48.0146 18.8385 47.9435 18.8229C47.8724 18.8073 47.7984 18.8107 47.729 18.8327L47.5462 18.4375H47.5166L47.6994 18.8327C47.7636 18.8327 47.8476 18.8722 47.9365 19.0006C48.0254 19.1291 48.2872 19.7712 48.2872 19.7712L48.4897 19.6823C48.3985 19.4168 48.2793 19.1618 48.1341 18.9216Z" fill="#D6D6D6"/>
</g>
<path opacity="0.4" d="M47.1709 19.3644C47.2045 19.2614 47.2592 19.1664 47.3315 19.0856C47.4038 19.0048 47.4921 18.9399 47.5908 18.8952L47.413 18.5L47.5958 18.8952C47.3496 18.9988 47.1495 19.1884 47.0327 19.4287C46.9734 19.6213 47.3883 20.1993 47.3883 20.1993L47.5513 20.1252C47.5513 20.1252 47.1364 19.5423 47.1709 19.3644Z" fill="white"/>
<g style="mix-blend-mode:multiply">
<path d="M48.5588 18.7224C48.3007 18.6568 48.0277 18.6848 47.7882 18.8014C47.8879 18.7576 47.9955 18.735 48.1044 18.735C48.2132 18.735 48.3209 18.7576 48.4205 18.8014C48.5786 18.8953 48.7713 19.577 48.7713 19.577L48.9343 19.4979C48.9343 19.4979 48.7564 18.8014 48.5588 18.7224Z" fill="#D6D6D6"/>
</g>
<path opacity="0.4" d="M47.833 20.4315C47.5761 20.6736 47.6008 22.2444 49.0729 23.6967C50.046 24.655 48.3319 19.9623 47.833 20.4315Z" fill="white"/>
<g filter="url(#filter3_d_1447_39443)">
<path d="M69.9331 14.5234H68.0215C67.1175 15.6744 67.6213 20.3325 68.9699 20.3325C70.3184 20.3325 70.8322 15.6744 69.9331 14.5234Z" fill="#F47D23"/>
</g>
<g style="mix-blend-mode:multiply">
<path d="M69.9328 14.5234H69.3401C70.0613 15.6151 69.6611 20.0164 68.5793 20.0164C68.4963 20.0155 68.4154 19.9897 68.3472 19.9423C68.4138 20.0531 68.506 20.1463 68.616 20.2142C68.7259 20.2821 68.8506 20.3226 68.9795 20.3325C70.3329 20.3325 70.8319 15.6744 69.9328 14.5234Z" fill="#D6D6D6"/>
</g>
<path d="M69.9332 13.671C69.694 13.5013 69.4065 13.413 69.1132 13.4191V12.9844H68.8465V13.4191C68.5547 13.413 68.2689 13.5013 68.0314 13.671C67.8783 13.8192 68.0314 14.5206 68.0314 14.5206H69.9332C69.9332 14.5206 70.0814 13.8192 69.9332 13.671Z" fill="#D6D6D6"/>
<path opacity="0.4" d="M68.8117 13.671C68.8413 13.5228 68.8957 13.4388 68.9549 13.4191V12.9844H68.9253V13.4191C68.8527 13.4277 68.7837 13.4557 68.7255 13.4999C68.6673 13.5442 68.622 13.6033 68.5943 13.671C68.5617 13.9533 68.5617 14.2383 68.5943 14.5206H68.8117C68.8117 14.5206 68.787 13.8192 68.8117 13.671Z" fill="white"/>
<g style="mix-blend-mode:multiply">
<path d="M69.3704 13.671C69.3423 13.6026 69.2963 13.5431 69.2371 13.4988C69.178 13.4544 69.108 13.4269 69.0345 13.4191V12.9844H69.0098V13.4191C69.069 13.4191 69.1283 13.5228 69.153 13.671C69.1681 13.954 69.1681 14.2376 69.153 14.5206H69.3753C69.4038 14.238 69.4022 13.9532 69.3704 13.671Z" fill="#D6D6D6"/>
</g>
<path opacity="0.4" d="M68.3084 13.671C68.3822 13.5916 68.4717 13.5282 68.5711 13.4849C68.6705 13.4416 68.7778 13.4192 68.8863 13.4191C68.6207 13.4154 68.3622 13.5045 68.1552 13.671C68.0169 13.8192 68.1552 14.5206 68.1552 14.5206H68.333C68.333 14.5206 68.1997 13.8192 68.3084 13.671Z" fill="white"/>
<g style="mix-blend-mode:multiply">
<path d="M69.8342 13.671C69.6257 13.5038 69.3654 13.4147 69.0981 13.4191C69.2073 13.4194 69.3153 13.4418 69.4155 13.4851C69.5157 13.5285 69.606 13.5917 69.681 13.671C69.7848 13.8192 69.681 14.5206 69.681 14.5206H69.8588C69.8588 14.5206 69.9675 13.8192 69.8342 13.671Z" fill="#D6D6D6"/>
</g>
<path opacity="0.4" d="M68.4611 14.9291C68.1302 15.0427 67.4979 16.4752 68.2289 18.4116C68.713 19.691 69.1132 14.7068 68.4611 14.9291Z" fill="white"/>
<g filter="url(#filter4_d_1447_39443)">
<path d="M93.9006 16.5357L92.9571 16.3826L92.0186 16.2344C90.9467 17.2223 90.7046 21.9101 92.0186 22.1225C93.3325 22.3349 94.607 17.8151 93.9006 16.5357Z" fill="#E8393E"/>
</g>
<g style="mix-blend-mode:multiply">
<path d="M93.9004 16.5392L93.3176 16.4453C93.856 17.6358 92.7643 21.9185 91.6973 21.7506C91.616 21.7357 91.5406 21.698 91.48 21.6419C91.5268 21.7637 91.6025 21.8723 91.7006 21.9583C91.7987 22.0444 91.9162 22.1053 92.0431 22.1359C93.3768 22.3384 94.6068 17.8186 93.9004 16.5392Z" fill="#D6D6D6"/>
</g>
<path d="M93.9548 15.6806C93.7459 15.4774 93.4777 15.3459 93.1891 15.3052L93.2583 14.8755L92.9915 14.8359L92.9273 15.2657C92.6393 15.2094 92.3408 15.2493 92.0777 15.3793C91.9048 15.5077 91.9443 16.224 91.9443 16.224L93.8214 16.5253C93.8214 16.5253 94.0832 15.8535 93.9548 15.6806Z" fill="#D6D6D6"/>
<path opacity="0.4" d="M92.8532 15.5036C92.9026 15.3653 92.9718 15.2912 93.0311 15.2813L93.1002 14.8516H93.0706L93.0014 15.2813C92.929 15.2787 92.8571 15.2951 92.793 15.3289C92.7288 15.3627 92.6747 15.4127 92.6359 15.474C92.5575 15.7493 92.511 16.0327 92.4976 16.3187L92.7199 16.3532C92.7199 16.3532 92.8038 15.6518 92.8532 15.5036Z" fill="white"/>
<g style="mix-blend-mode:multiply">
<path d="M93.4016 15.5777C93.3838 15.5068 93.3474 15.4419 93.2962 15.3898C93.245 15.3377 93.1807 15.3003 93.1101 15.2813L93.1793 14.8516H93.1496L93.0805 15.2813C93.1348 15.306 93.1793 15.3999 93.1842 15.5481C93.1892 15.6963 93.0459 16.3878 93.0459 16.3878L93.2682 16.4273C93.3424 16.1496 93.3871 15.8648 93.4016 15.5777Z" fill="#D6D6D6"/>
</g>
<path opacity="0.4" d="M92.3543 15.4188C92.4397 15.353 92.5377 15.3054 92.6422 15.279C92.7467 15.2527 92.8555 15.2482 92.9619 15.2657C92.7005 15.2178 92.4307 15.2651 92.2012 15.3991C92.0431 15.5225 92.0678 16.2388 92.0678 16.2388L92.2407 16.2684C92.2407 16.2684 92.2259 15.5522 92.3543 15.4188Z" fill="white"/>
<g style="mix-blend-mode:multiply">
<path d="M93.8609 15.6575C93.682 15.4598 93.4387 15.3321 93.1743 15.2969C93.2803 15.3115 93.3823 15.3475 93.474 15.4027C93.5657 15.4579 93.6453 15.5312 93.7078 15.618C93.7868 15.786 93.5744 16.4627 93.5744 16.4627H93.7473C93.7473 16.4627 93.9696 15.8255 93.8609 15.6575Z" fill="#D6D6D6"/>
</g>
<path opacity="0.4" d="M92.31 16.6895C91.9592 16.7487 91.1096 18.0676 91.5295 20.0929C91.8061 21.4316 92.9867 16.5759 92.31 16.6895Z" fill="white"/>
<g filter="url(#filter5_d_1447_39443)">
<path d="M101.779 17.0752L102.688 17.3567L103.602 17.6334C104.802 16.7985 105.692 12.1997 104.402 11.7996C103.113 11.3994 101.261 15.7069 101.779 17.0752Z" fill="#A5C920"/>
</g>
<g style="mix-blend-mode:multiply">
<path d="M101.78 17.0746L102.348 17.2475C101.977 15.9928 103.657 11.9027 104.689 12.2238C104.77 12.2472 104.84 12.2957 104.892 12.3621C104.86 12.2359 104.798 12.1191 104.712 12.0212C104.626 11.9234 104.519 11.8472 104.398 11.799C103.094 11.4038 101.261 15.7063 101.78 17.0746Z" fill="#D6D6D6"/>
</g>
<path d="M101.532 17.894C101.706 18.1328 101.955 18.3067 102.239 18.388L102.11 18.8078L102.367 18.8869L102.496 18.467C102.773 18.5618 103.073 18.5618 103.35 18.467C103.538 18.3682 103.602 17.6519 103.602 17.6519L101.779 17.0938C101.779 17.0938 101.429 17.7063 101.532 17.894Z" fill="#D6D6D6"/>
<path opacity="0.4" d="M102.6 18.2184C102.53 18.3567 102.451 18.416 102.392 18.416L102.264 18.8309H102.293L102.422 18.416C102.493 18.4302 102.567 18.4248 102.636 18.4005C102.705 18.3761 102.765 18.3337 102.812 18.2777C102.925 18.016 103.01 17.7427 103.064 17.4627L102.851 17.3984C102.851 17.3984 102.669 18.0949 102.6 18.2184Z" fill="white"/>
<g style="mix-blend-mode:multiply">
<path d="M102.071 18.0622C102.077 18.1349 102.102 18.2047 102.145 18.2639C102.188 18.3231 102.246 18.3695 102.313 18.3981L102.184 18.818H102.214L102.342 18.403C102.293 18.3684 102.259 18.2746 102.278 18.1215C102.298 17.9683 102.53 17.3113 102.53 17.3113L102.318 17.2422C102.205 17.5056 102.123 17.7806 102.071 18.0622Z" fill="#D6D6D6"/>
</g>
<path opacity="0.4" d="M103.094 18.3734C103 18.4283 102.895 18.4628 102.787 18.4747C102.679 18.4866 102.57 18.4757 102.466 18.4426C102.717 18.5348 102.992 18.5348 103.242 18.4426C103.415 18.3388 103.489 17.6275 103.489 17.6275L103.321 17.5781C103.321 17.5781 103.232 18.2647 103.094 18.3734Z" fill="white"/>
<g style="mix-blend-mode:multiply">
<path d="M101.611 17.9216C101.76 18.1412 101.983 18.3006 102.239 18.3711L102.11 18.7909H102.135L102.263 18.376C102.157 18.3466 102.057 18.2948 101.972 18.2242C101.887 18.1535 101.818 18.0655 101.769 17.966C101.71 17.7931 102.016 17.1559 102.016 17.1559L101.848 17.1016C101.848 17.1016 101.542 17.7338 101.611 17.9216Z" fill="#D6D6D6"/>
</g>
<path opacity="0.4" d="M103.301 17.133C103.656 17.133 104.684 15.9326 104.551 13.8678C104.467 12.5045 102.599 17.1478 103.301 17.133Z" fill="white"/>
<g filter="url(#filter6_d_1447_39443)">
<path d="M81.1021 9.27108L82.011 9.56252L82.915 9.84901C84.1252 9.02408 85.0588 4.41534 83.7696 4.0251C82.4803 3.63487 80.5933 7.90278 81.1021 9.27108Z" fill="#D2C514"/>
</g>
<g style="mix-blend-mode:multiply">
<path d="M81.1021 9.27348L81.6653 9.4513C81.3096 8.19661 83.0237 4.12136 84.0561 4.44738C84.1353 4.47339 84.2043 4.52347 84.2537 4.59063C84.2235 4.46359 84.1628 4.34585 84.0767 4.2477C83.9906 4.14954 83.8817 4.07395 83.7597 4.02751C82.4803 3.61751 80.5934 7.90518 81.1021 9.27348Z" fill="#D6D6D6"/>
</g>
<path d="M80.8649 10.0807C81.0408 10.3174 81.2886 10.4907 81.5713 10.5746L81.4379 10.9896L81.6899 11.0686L81.8232 10.6537C82.1003 10.7481 82.4008 10.7481 82.6778 10.6537C82.8655 10.5549 82.9347 9.84356 82.9347 9.84356L81.1218 9.26562C81.1218 9.26562 80.7464 9.89296 80.8649 10.0807Z" fill="#D6D6D6"/>
<path opacity="0.4" d="M81.9122 10.4216C81.843 10.5549 81.7591 10.6191 81.6998 10.6142L81.5664 11.0291H81.596L81.7294 10.6142C81.8012 10.6294 81.8757 10.625 81.9452 10.6015C82.0147 10.5781 82.0767 10.5364 82.1246 10.4808C82.2394 10.2192 82.3256 9.94595 82.3815 9.66578L82.1691 9.60156C82.1691 9.60156 81.9813 10.2882 81.9122 10.4216Z" fill="white"/>
<g style="mix-blend-mode:multiply">
<path d="M81.3833 10.2525C81.3892 10.3253 81.4148 10.395 81.4575 10.4542C81.5002 10.5134 81.5582 10.5599 81.6253 10.5884L81.492 11.0083H81.5216L81.655 10.5934C81.6006 10.5588 81.571 10.465 81.5908 10.3168C81.6105 10.1686 81.8476 9.5017 81.8476 9.5017L81.6402 9.4375C81.5237 9.69849 81.4375 9.97195 81.3833 10.2525Z" fill="#D6D6D6"/>
</g>
<path opacity="0.4" d="M82.391 10.5815C82.2972 10.6343 82.1936 10.6672 82.0865 10.6782C81.9794 10.6893 81.8712 10.6782 81.7686 10.6457L81.6353 11.0606H81.6599L81.7884 10.6457C82.0383 10.7397 82.314 10.7397 82.5639 10.6457C82.7368 10.542 82.8208 9.83558 82.8208 9.83558L82.6528 9.78125C82.6528 9.78125 82.5392 10.4728 82.391 10.5815Z" fill="white"/>
<g style="mix-blend-mode:multiply">
<path d="M80.9391 10.1169C81.0888 10.3358 81.3082 10.4977 81.5615 10.5763L81.4282 10.9912H81.4529L81.5862 10.5763C81.4793 10.5474 81.3798 10.4959 81.2945 10.4251C81.2093 10.3544 81.1403 10.2661 81.0923 10.1663C81.033 9.98844 81.3491 9.3512 81.3491 9.3512L81.1762 9.29688C81.1762 9.29688 80.865 9.92916 80.9391 10.1169Z" fill="#D6D6D6"/>
</g>
<path opacity="0.4" d="M82.6235 9.34561C82.9742 9.34561 84.0165 8.16008 83.9029 6.09529C83.8288 4.73193 81.9368 9.35548 82.6235 9.34561Z" fill="white"/>
<g filter="url(#filter7_d_1447_39443)">
<path d="M58.1025 12.7735L58.9966 12.4376L59.8858 12.1016C60.3254 10.7037 58.2112 6.51979 56.9467 6.99894C55.6821 7.47809 56.8528 12.0127 58.1025 12.7735Z" fill="#FFC107"/>
</g>
<g style="mix-blend-mode:multiply">
<path d="M58.1025 12.7672L58.6557 12.5548C57.5986 11.7891 56.4181 7.53108 57.4307 7.12108C57.5115 7.09878 57.5969 7.09878 57.6777 7.12108C57.5762 7.04045 57.4568 6.98536 57.3296 6.96043C57.2024 6.9355 57.0711 6.94147 56.9466 6.97783C55.6722 7.46686 56.8528 12.0064 58.1025 12.7672Z" fill="#D6D6D6"/>
</g>
<path d="M58.4039 13.5674C58.6876 13.641 58.9876 13.6202 59.2584 13.5081L59.4116 13.9181L59.6635 13.8243L59.5104 13.4143C59.7827 13.3256 60.0197 13.1526 60.1871 12.9203C60.276 12.7276 59.8858 12.125 59.8858 12.125L58.1025 12.7968C58.1025 12.7968 58.2112 13.4785 58.4039 13.5674Z" fill="#D6D6D6"/>
<path opacity="0.4" d="M59.4512 13.1535C59.4808 13.3017 59.4512 13.4005 59.4067 13.4351L59.5598 13.8451H59.5895L59.4364 13.4351C59.5016 13.4021 59.5567 13.3521 59.5958 13.2904C59.635 13.2286 59.6567 13.1574 59.6586 13.0843C59.5882 12.8088 59.4871 12.5421 59.3573 12.2891L59.1548 12.3681C59.2676 12.6244 59.3666 12.8866 59.4512 13.1535Z" fill="white"/>
<g style="mix-blend-mode:multiply">
<path d="M58.9327 13.3723C58.9832 13.4252 59.0469 13.4636 59.1173 13.4836C59.1876 13.5035 59.262 13.5043 59.3328 13.4859L59.4859 13.8909H59.5156L59.3624 13.4859C59.2982 13.4859 59.2142 13.4315 59.1402 13.3031C59.0661 13.1747 58.8388 12.5078 58.8388 12.5078L58.6313 12.5819C58.7044 12.855 58.8054 13.1198 58.9327 13.3723Z" fill="#D6D6D6"/>
</g>
<path opacity="0.4" d="M59.9251 12.9952C59.8848 13.0959 59.8233 13.1867 59.7449 13.2617C59.6666 13.3367 59.5731 13.394 59.4707 13.4299C59.7226 13.3419 59.9346 13.1667 60.0684 12.9359C60.1425 12.7482 59.7671 12.1406 59.7671 12.1406L59.5991 12.1999C59.5991 12.1999 59.9745 12.8174 59.9251 12.9952Z" fill="white"/>
<g style="mix-blend-mode:multiply">
<path d="M58.4979 13.5371C58.752 13.6177 59.0262 13.6073 59.2734 13.5075L59.4265 13.9175L59.2734 13.5124C59.1717 13.5516 59.063 13.5692 58.9542 13.5641C58.8453 13.559 58.7387 13.5313 58.6412 13.4828C58.488 13.3791 58.3398 12.6875 58.3398 12.6875L58.1719 12.7468C58.1719 12.7468 58.3201 13.4433 58.4979 13.5371Z" fill="#D6D6D6"/>
</g>
<path opacity="0.4" d="M59.3423 11.8857C59.614 11.6635 59.698 10.0976 58.3544 8.54157C57.4257 7.51905 58.8088 12.3254 59.3423 11.8857Z" fill="white"/>
<g filter="url(#filter8_d_1447_39443)">
<path d="M35.3899 21.0278L36.2494 20.6228L37.1089 20.2128C37.43 18.7852 34.9799 14.7791 33.7598 15.3719C32.5397 15.9646 34.0809 20.3758 35.3899 21.0278Z" fill="#F47D23"/>
</g>
<g style="mix-blend-mode:multiply">
<path d="M35.3899 21.0213L35.9234 20.7694C34.807 20.0976 33.2807 15.9433 34.2538 15.479C34.3295 15.4445 34.414 15.4341 34.4958 15.4494C34.3888 15.3775 34.2661 15.3323 34.138 15.3177C34.01 15.3031 33.8802 15.3194 33.7598 15.3654C32.5397 15.9483 34.0809 20.3693 35.3899 21.0213Z" fill="#D6D6D6"/>
</g>
<path d="M35.7557 21.7888C36.0432 21.8384 36.3391 21.7951 36.6004 21.6653L36.7881 22.0555L37.0301 21.9419L36.8424 21.5467C37.1106 21.4307 37.3329 21.2293 37.4747 20.9737C37.5488 20.7712 37.1091 20.2031 37.1091 20.2031L35.3901 21.0182C35.3901 21.0182 35.5531 21.7196 35.7557 21.7888Z" fill="#D6D6D6"/>
<path opacity="0.4" d="M36.7679 21.3106C36.8074 21.4588 36.7679 21.5576 36.7432 21.5971L36.9309 21.9922H36.9556L36.7728 21.5971C36.8352 21.5594 36.886 21.5055 36.92 21.4411C36.9539 21.3767 36.9697 21.3042 36.9655 21.2315C36.872 20.9621 36.7494 20.7038 36.5999 20.4609L36.4023 20.5548C36.4023 20.5548 36.7234 21.1624 36.7679 21.3106Z" fill="white"/>
<g style="mix-blend-mode:multiply">
<path d="M36.264 21.5577C36.3185 21.6072 36.3853 21.6412 36.4575 21.6559C36.5296 21.6707 36.6044 21.6658 36.674 21.6417L36.8567 22.0319H36.8864L36.6987 21.6367C36.6394 21.6367 36.5505 21.5972 36.4616 21.4737C36.3727 21.3502 36.096 20.7031 36.096 20.7031L35.8984 20.8019C35.9931 21.0661 36.1157 21.3195 36.264 21.5577Z" fill="#D6D6D6"/>
</g>
<path opacity="0.4" d="M37.2226 21.107C37.192 21.2139 37.1393 21.3131 37.0678 21.3982C36.9963 21.4834 36.9076 21.5524 36.8076 21.6009L36.9953 21.9961L36.8076 21.6059C37.0517 21.4959 37.2492 21.3035 37.3658 21.0625C37.4251 20.8699 37.0003 20.2969 37.0003 20.2969L36.8373 20.371C36.8373 20.371 37.2522 20.9242 37.2226 21.107Z" fill="white"/>
<g style="mix-blend-mode:multiply">
<path d="M35.8443 21.7489C36.1034 21.8132 36.3771 21.7816 36.6149 21.66C36.5177 21.7073 36.4118 21.7339 36.3038 21.7382C36.1958 21.7424 36.0881 21.7242 35.9875 21.6847C35.8245 21.5957 35.622 20.9141 35.622 20.9141L35.459 20.9931C35.459 20.9931 35.6566 21.6748 35.8443 21.7489Z" fill="#D6D6D6"/>
</g>
<path opacity="0.4" d="M36.5456 20.0447C36.8025 19.7977 36.758 18.2318 35.2662 16.7993C34.2783 15.8509 36.0516 20.5238 36.5456 20.0447Z" fill="white"/>
<g filter="url(#filter9_d_1447_39443)">
<path d="M14.801 23.2374L15.6013 23.7314L16.4064 24.2253C17.7846 23.7314 19.8642 19.5326 18.7133 18.7917C17.5623 18.0507 14.6726 21.7802 14.801 23.2374Z" fill="#E8393E"/>
</g>
<g style="mix-blend-mode:multiply">
<path d="M14.801 23.2408L15.295 23.557C15.2653 22.2529 17.9624 18.7457 18.8713 19.3236C18.943 19.3688 18.9997 19.4341 19.0343 19.5113C19.0359 19.3817 19.0072 19.2536 18.9506 19.137C18.894 19.0204 18.8111 18.9185 18.7083 18.8395C17.5672 18.0986 14.6726 21.7836 14.801 23.2408Z" fill="#D6D6D6"/>
</g>
<path d="M14.4106 24.0131C14.52 24.2846 14.7163 24.5122 14.9688 24.6602L14.7367 25.0307L14.959 25.174L15.1911 24.8035C15.4329 24.9695 15.7234 25.0495 16.016 25.0307C16.2235 24.9863 16.4705 24.3145 16.4705 24.3145L14.8651 23.2969C14.8651 23.2969 14.3612 23.781 14.4106 24.0131Z" fill="#D6D6D6"/>
<path opacity="0.4" d="M15.3543 24.6061C15.2505 24.7197 15.1616 24.7592 15.1023 24.7394L14.8652 25.1099H14.8949L15.127 24.7444C15.193 24.7762 15.2662 24.7898 15.3392 24.7837C15.4122 24.7776 15.4822 24.7521 15.542 24.7098C15.7198 24.4888 15.8722 24.2486 15.9964 23.9936L15.8087 23.875C15.8087 23.875 15.458 24.4925 15.3543 24.6061Z" fill="white"/>
<g style="mix-blend-mode:multiply">
<path d="M14.8847 24.3063C14.8717 24.3787 14.8786 24.4533 14.9047 24.522C14.9308 24.5907 14.9751 24.6511 15.0329 24.6966L14.8008 25.0621L15.0379 24.6916C14.9934 24.6472 14.9885 24.5434 15.0379 24.4051C15.0873 24.2668 15.4923 23.6839 15.4923 23.6839L15.3046 23.5703C15.1387 23.7999 14.9979 24.0466 14.8847 24.3063Z" fill="#D6D6D6"/>
</g>
<path opacity="0.4" d="M15.7842 24.861C15.6793 24.8884 15.5698 24.8938 15.4627 24.8768C15.3556 24.8598 15.2531 24.8208 15.1618 24.7622C15.3831 24.909 15.6487 24.9737 15.9127 24.945C16.1103 24.8857 16.3671 24.2238 16.3671 24.2238L16.2189 24.125C16.2189 24.125 15.9522 24.7919 15.7842 24.861Z" fill="white"/>
<g style="mix-blend-mode:multiply">
<path d="M14.4901 24.0485C14.5793 24.3009 14.7541 24.5141 14.9841 24.6512C14.8927 24.5922 14.8141 24.5155 14.753 24.4255C14.6919 24.3356 14.6495 24.2342 14.6284 24.1275C14.6284 23.9448 15.0829 23.4113 15.0829 23.4113L14.9347 23.3125C14.9347 23.3125 14.4605 23.8509 14.4901 24.0485Z" fill="#D6D6D6"/>
</g>
<path opacity="0.4" d="M16.3177 23.7335C16.6634 23.8125 17.9626 22.9382 18.3775 20.9129C18.6541 19.5792 15.6607 23.5704 16.3177 23.7335Z" fill="white"/>
<path d="M3.51855 18.6397C26.0881 44.6324 57.8948 -6.69605 106.343 20.3735M4.70904 17.7456C11.1998 26.4049 20.7087 30.332 46.9485 18.4717C73.1882 6.6115 94.3696 9.55063 104.743 20.991" stroke="#5D5D5D" stroke-width="0.3" stroke-miterlimit="10"/>
<defs>
<filter id="filter0_d_1447_39443" x="-3.99854" y="15.9922" width="12.7524" height="13.1719" filterUnits="userSpaceOnUse" color-interpolation-filters="sRGB">
<feFlood flood-opacity="0" result="BackgroundImageFix"/>
<feColorMatrix in="SourceAlpha" type="matrix" values="0 0 0 0 0 0 0 0 0 0 0 0 0 0 0 0 0 0 127 0" result="hardAlpha"/>
<feOffset/>
<feGaussianBlur stdDeviation="2"/>
<feComposite in2="hardAlpha" operator="out"/>
<feColorMatrix type="matrix" values="0 0 0 0 0.647059 0 0 0 0 0.788235 0 0 0 0 0.12549 0 0 0 1 0"/>
<feBlend mode="normal" in2="BackgroundImageFix" result="effect1_dropShadow_1447_39443"/>
<feBlend mode="normal" in="SourceGraphic" in2="effect1_dropShadow_1447_39443" result="shape"/>
</filter>
<filter id="filter1_d_1447_39443" x="20.9111" y="23.1406" width="11.2949" height="13.8672" filterUnits="userSpaceOnUse" color-interpolation-filters="sRGB">
<feFlood flood-opacity="0" result="BackgroundImageFix"/>
<feColorMatrix in="SourceAlpha" type="matrix" values="0 0 0 0 0 0 0 0 0 0 0 0 0 0 0 0 0 0 127 0" result="hardAlpha"/>
<feOffset/>
<feGaussianBlur stdDeviation="2"/>
<feComposite in2="hardAlpha" operator="out"/>
<feColorMatrix type="matrix" values="0 0 0 0 0.823529 0 0 0 0 0.772549 0 0 0 0 0.0784314 0 0 0 1 0"/>
<feBlend mode="normal" in2="BackgroundImageFix" result="effect1_dropShadow_1447_39443"/>
<feBlend mode="normal" in="SourceGraphic" in2="effect1_dropShadow_1447_39443" result="shape"/>
</filter>
<filter id="filter2_d_1447_39443" x="43.2378" y="15.4453" width="11.7812" height="13.7344" filterUnits="userSpaceOnUse" color-interpolation-filters="sRGB">
<feFlood flood-opacity="0" result="BackgroundImageFix"/>
<feColorMatrix in="SourceAlpha" type="matrix" values="0 0 0 0 0 0 0 0 0 0 0 0 0 0 0 0 0 0 127 0" result="hardAlpha"/>
<feOffset/>
<feGaussianBlur stdDeviation="2"/>
<feComposite in2="hardAlpha" operator="out"/>
<feColorMatrix type="matrix" values="0 0 0 0 1 0 0 0 0 0.756863 0 0 0 0 0.027451 0 0 0 1 0"/>
<feBlend mode="normal" in2="BackgroundImageFix" result="effect1_dropShadow_1447_39443"/>
<feBlend mode="normal" in="SourceGraphic" in2="effect1_dropShadow_1447_39443" result="shape"/>
</filter>
<filter id="filter3_d_1447_39443" x="63.5654" y="10.5234" width="10.8174" height="13.8125" filterUnits="userSpaceOnUse" color-interpolation-filters="sRGB">
<feFlood flood-opacity="0" result="BackgroundImageFix"/>
<feColorMatrix in="SourceAlpha" type="matrix" values="0 0 0 0 0 0 0 0 0 0 0 0 0 0 0 0 0 0 127 0" result="hardAlpha"/>
<feOffset/>
<feGaussianBlur stdDeviation="2"/>
<feComposite in2="hardAlpha" operator="out"/>
<feColorMatrix type="matrix" values="0 0 0 0 0.956863 0 0 0 0 0.490196 0 0 0 0 0.137255 0 0 0 1 0"/>
<feBlend mode="normal" in2="BackgroundImageFix" result="effect1_dropShadow_1447_39443"/>
<feBlend mode="normal" in="SourceGraphic" in2="effect1_dropShadow_1447_39443" result="shape"/>
</filter>
<filter id="filter4_d_1447_39443" x="87.1216" y="12.2344" width="10.9805" height="13.8984" filterUnits="userSpaceOnUse" color-interpolation-filters="sRGB">
<feFlood flood-opacity="0" result="BackgroundImageFix"/>
<feColorMatrix in="SourceAlpha" type="matrix" values="0 0 0 0 0 0 0 0 0 0 0 0 0 0 0 0 0 0 127 0" result="hardAlpha"/>
<feOffset/>
<feGaussianBlur stdDeviation="2"/>
<feComposite in2="hardAlpha" operator="out"/>
<feColorMatrix type="matrix" values="0 0 0 0 0.909804 0 0 0 0 0.223529 0 0 0 0 0.243137 0 0 0 1 0"/>
<feBlend mode="normal" in2="BackgroundImageFix" result="effect1_dropShadow_1447_39443"/>
<feBlend mode="normal" in="SourceGraphic" in2="effect1_dropShadow_1447_39443" result="shape"/>
</filter>
<filter id="filter5_d_1447_39443" x="97.6899" y="7.77344" width="11.3457" height="13.8594" filterUnits="userSpaceOnUse" color-interpolation-filters="sRGB">
<feFlood flood-opacity="0" result="BackgroundImageFix"/>
<feColorMatrix in="SourceAlpha" type="matrix" values="0 0 0 0 0 0 0 0 0 0 0 0 0 0 0 0 0 0 127 0" result="hardAlpha"/>
<feOffset/>
<feGaussianBlur stdDeviation="2"/>
<feComposite in2="hardAlpha" operator="out"/>
<feColorMatrix type="matrix" values="0 0 0 0 0.647059 0 0 0 0 0.788235 0 0 0 0 0.12549 0 0 0 1 0"/>
<feBlend mode="normal" in2="BackgroundImageFix" result="effect1_dropShadow_1447_39443"/>
<feBlend mode="normal" in="SourceGraphic" in2="effect1_dropShadow_1447_39443" result="shape"/>
</filter>
<filter id="filter6_d_1447_39443" x="77.0171" y="0" width="11.373" height="13.8516" filterUnits="userSpaceOnUse" color-interpolation-filters="sRGB">
<feFlood flood-opacity="0" result="BackgroundImageFix"/>
<feColorMatrix in="SourceAlpha" type="matrix" values="0 0 0 0 0 0 0 0 0 0 0 0 0 0 0 0 0 0 127 0" result="hardAlpha"/>
<feOffset/>
<feGaussianBlur stdDeviation="2"/>
<feComposite in2="hardAlpha" operator="out"/>
<feColorMatrix type="matrix" values="0 0 0 0 0.823529 0 0 0 0 0.772549 0 0 0 0 0.0784314 0 0 0 1 0"/>
<feBlend mode="normal" in2="BackgroundImageFix" result="effect1_dropShadow_1447_39443"/>
<feBlend mode="normal" in="SourceGraphic" in2="effect1_dropShadow_1447_39443" result="shape"/>
</filter>
<filter id="filter7_d_1447_39443" x="52.4023" y="4.96094" width="11.5425" height="13.8125" filterUnits="userSpaceOnUse" color-interpolation-filters="sRGB">
<feFlood flood-opacity="0" result="BackgroundImageFix"/>
<feColorMatrix in="SourceAlpha" type="matrix" values="0 0 0 0 0 0 0 0 0 0 0 0 0 0 0 0 0 0 127 0" result="hardAlpha"/>
<feOffset dy="2"/>
<feGaussianBlur stdDeviation="2"/>
<feComposite in2="hardAlpha" operator="out"/>
<feColorMatrix type="matrix" values="0 0 0 0 1 0 0 0 0 0.756863 0 0 0 0 0.027451 0 0 0 1 0"/>
<feBlend mode="normal" in2="BackgroundImageFix" result="effect1_dropShadow_1447_39443"/>
<feBlend mode="normal" in="SourceGraphic" in2="effect1_dropShadow_1447_39443" result="shape"/>
</filter>
<filter id="filter8_d_1447_39443" x="29.3154" y="11.3125" width="11.8223" height="13.7188" filterUnits="userSpaceOnUse" color-interpolation-filters="sRGB">
<feFlood flood-opacity="0" result="BackgroundImageFix"/>
<feColorMatrix in="SourceAlpha" type="matrix" values="0 0 0 0 0 0 0 0 0 0 0 0 0 0 0 0 0 0 127 0" result="hardAlpha"/>
<feOffset/>
<feGaussianBlur stdDeviation="2"/>
<feComposite in2="hardAlpha" operator="out"/>
<feColorMatrix type="matrix" values="0 0 0 0 0.956863 0 0 0 0 0.490196 0 0 0 0 0.137255 0 0 0 1 0"/>
<feBlend mode="normal" in2="BackgroundImageFix" result="effect1_dropShadow_1447_39443"/>
<feBlend mode="normal" in="SourceGraphic" in2="effect1_dropShadow_1447_39443" result="shape"/>
</filter>
<filter id="filter9_d_1447_39443" x="10.7969" y="14.6953" width="12.251" height="13.5312" filterUnits="userSpaceOnUse" color-interpolation-filters="sRGB">
<feFlood flood-opacity="0" result="BackgroundImageFix"/>
<feColorMatrix in="SourceAlpha" type="matrix" values="0 0 0 0 0 0 0 0 0 0 0 0 0 0 0 0 0 0 127 0" result="hardAlpha"/>
<feOffset/>
<feGaussianBlur stdDeviation="2"/>
<feComposite in2="hardAlpha" operator="out"/>
<feColorMatrix type="matrix" values="0 0 0 0 0.909804 0 0 0 0 0.223529 0 0 0 0 0.243137 0 0 0 1 0"/>
<feBlend mode="normal" in2="BackgroundImageFix" result="effect1_dropShadow_1447_39443"/>
<feBlend mode="normal" in="SourceGraphic" in2="effect1_dropShadow_1447_39443" result="shape"/>
</filter>
</defs>
</svg>
