<svg width="104" height="38" viewBox="0 0 104 38" fill="none" xmlns="http://www.w3.org/2000/svg">
<path d="M95.8722 9.55739H90.8474V6.20072H96.9679L101.997 1.17188L102.038 1.21276V1.15552H84.96V23.5687C84.96 23.5687 93.3536 23.5687 96.1502 23.5687C100.635 23.5687 104 21.32 104 16.561C104 11.7979 100.639 9.55739 95.8722 9.55739ZM95.312 18.8097H90.8474V14.3327H95.312C96.698 14.3327 98.1045 14.8806 98.1045 16.5651C98.1045 18.2495 96.7021 18.8097 95.312 18.8097Z" fill="white"/>
<path d="M59.4564 1.15942H46.3282L38.7236 8.76403V23.5726H44.607V6.20054H53.573V23.5726H53.5853L59.4564 17.7015V1.15942Z" fill="white"/>
<path d="M73.8556 18.7971C69.9306 18.7971 67.7187 15.9188 67.7187 12.3578C67.7187 9.4999 69.3255 5.91428 73.7411 5.91428C76.4967 5.91428 78.2752 7.59875 78.9049 8.38374L82.4823 4.8063C80.3236 2.23055 77.0814 0.591064 73.459 0.591064C66.9624 0.591064 61.8313 5.40323 61.8313 12.3578C61.8313 18.8585 66.9583 24.1245 73.459 24.1245C77.3512 24.1245 80.7978 22.2356 82.9402 19.3246L79.3382 15.7226C78.2057 17.5093 76.3455 18.7971 73.8556 18.7971Z" fill="white"/>
<path d="M38.7236 31.635C38.7236 29.8646 40.0606 28.4377 41.9454 28.4377C43.0861 28.4377 44.0877 29.0224 44.6029 29.926L44.1859 30.1631C43.777 29.4026 42.9184 28.8875 41.9454 28.8875C40.3181 28.8875 39.1938 30.1099 39.1938 31.6309C39.1938 33.1518 40.3181 34.3742 41.9454 34.3742C42.9266 34.3742 43.7975 33.8509 44.2022 33.0741L44.6192 33.3112C44.1164 34.223 43.1065 34.824 41.9454 34.824C40.0606 34.8322 38.7236 33.4053 38.7236 31.635Z" fill="white"/>
<path d="M49.885 28.9816H47.9389V34.7341H47.4605V28.9816H45.5144V28.54H49.8891V28.9816H49.885Z" fill="white"/>
<path d="M55.3388 30.4572C55.3388 31.5448 54.5251 32.3707 53.409 32.3707H51.7695V34.7338H51.2993V28.5356H53.4049C54.5252 28.5356 55.3388 29.3615 55.3388 30.4572ZM54.8686 30.4572C54.8686 29.5987 54.2594 28.9772 53.409 28.9772H51.7695V31.925H53.409C54.2594 31.9291 54.8686 31.3077 54.8686 30.4572Z" fill="white"/>
<path d="M59.8897 33.1597H56.7825L56.1815 34.7338H55.6868L58.0949 28.5356H58.5896L60.9895 34.7338H60.4948L59.8897 33.1597ZM59.7221 32.7141L58.3402 29.1121L56.9583 32.7141H59.7221Z" fill="white"/>
<path d="M65.891 34.7341L64.1043 31.9703L62.3176 34.7341H61.7698L63.8304 31.5492L61.8843 28.54H62.4239L64.1043 31.1321L65.7765 28.54H66.3162L64.3701 31.5492L66.4348 34.7341H65.891Z" fill="white"/>
<path d="M67.2283 31.635C67.2283 29.8646 68.6347 28.4377 70.4255 28.4377C72.2121 28.4377 73.6227 29.8646 73.6227 31.635C73.6227 33.4053 72.2162 34.8322 70.4255 34.8322C68.6347 34.8322 67.2283 33.4053 67.2283 31.635ZM73.1484 31.635C73.1484 30.114 71.9546 28.8916 70.4214 28.8916C68.8882 28.8916 67.6944 30.114 67.6944 31.635C67.6944 33.1559 68.8882 34.3783 70.4214 34.3783C71.9546 34.3783 73.1484 33.16 73.1484 31.635Z" fill="white"/>
<path d="M79.6121 33.0456C79.6121 33.9859 78.8598 34.7382 77.9195 34.7382H75.2456V28.54H77.7151C78.6186 28.54 79.3423 29.276 79.3423 30.1673C79.3423 30.7683 79.0234 31.263 78.545 31.5206C79.1665 31.7618 79.6121 32.3342 79.6121 33.0456ZM75.7158 28.9816V31.3529H77.7151C78.3529 31.3529 78.8762 30.8214 78.8762 30.1673C78.8762 29.5131 78.3529 28.9816 77.7151 28.9816H75.7158ZM79.1419 33.0456C79.1419 32.3546 78.5941 31.7986 77.9195 31.7986H75.7158V34.2966H77.9195C78.5941 34.2925 79.1419 33.7324 79.1419 33.0456Z" fill="white"/>
<path d="M84.7718 33.1597H81.6646L81.0636 34.7338H80.5688L82.977 28.5356H83.4717L85.8716 34.7338H85.3769L84.7718 33.1597ZM84.6042 32.7141L83.2223 29.1121L81.8404 32.7141H84.6042Z" fill="white"/>
<path d="M91.7552 28.5356V34.7338H91.285V31.7696H87.6831V34.7338H87.2129V28.5356H87.6831V31.324H91.285V28.5356H91.7552Z" fill="white"/>
<path d="M97.8102 29.4065L94.1469 34.7338H93.738V28.5356H94.2082V33.863L97.8633 28.5356H98.2804V34.7338H97.8102V29.4065Z" fill="white"/>
<path d="M103.832 34.2923V34.7338H100.263V28.5356H103.787V28.9772H100.733V31.3853H103.567V31.8269H100.733V34.2882H103.832V34.2923Z" fill="white"/>
<path d="M31.0206 1.14697H23.0275H8.10453L0.140137 9.11137V9.13998H23.0275V20.4856L16.952 25.6289L16.9766 37.1666L31.0083 24.5414L30.8734 24.3983H31.0206V9.13998V1.14697Z" fill="#CC5624"/>
<path d="M18.6365 20.036H18.6937L19.7567 19.1325V12.0471H7.4054H0.140137V20.036V24.3985H0.438595L0.291409 24.5538L14.3763 37.1791L14.4049 25.6414L7.73657 20.036H15.2185H18.6365Z" fill="white"/>
</svg>
