<svg width="73" height="26" viewBox="0 0 73 26" fill="none" xmlns="http://www.w3.org/2000/svg">
<path d="M67.2891 6.30249H63.7573V3.94315H68.0593L71.594 0.40847L71.6227 0.437209V0.396973H59.6191V16.1508C59.6191 16.1508 65.5189 16.1508 67.4845 16.1508C70.637 16.1508 73.0021 14.5702 73.0021 11.2252C73.0021 7.8773 70.6399 6.30249 67.2891 6.30249ZM66.8954 12.8057H63.7573V9.65901H66.8954C67.8696 9.65901 68.8582 10.0441 68.8582 11.2281C68.8582 12.412 67.8725 12.8057 66.8954 12.8057Z" fill="#2C2D84"/>
<path d="M41.6918 0.398926H32.4643L27.1191 5.74406V16.1527H31.2544V3.94223H37.5565V16.1527H37.5651L41.6918 12.026V0.398926Z" fill="#2C2D84"/>
<path d="M51.8169 12.7967C49.0581 12.7967 47.5034 10.7736 47.5034 8.27059C47.5034 6.26186 48.6328 3.74159 51.7364 3.74159C53.6733 3.74159 54.9234 4.92557 55.3659 5.47733L57.8804 2.96281C56.3631 1.15236 54.0842 0 51.5381 0C46.9718 0 43.3652 3.38238 43.3652 8.27059C43.3652 12.8398 46.9689 16.5412 51.5381 16.5412C54.2739 16.5412 56.6965 15.2135 58.2023 13.1674L55.6705 10.6357C54.8745 11.8915 53.567 12.7967 51.8169 12.7967Z" fill="#2C2D84"/>
<path d="M27.1191 21.8198C27.1191 20.5754 28.0589 19.5725 29.3836 19.5725C30.1854 19.5725 30.8895 19.9835 31.2516 20.6186L30.9584 20.7852C30.6711 20.2507 30.0676 19.8886 29.3836 19.8886C28.2399 19.8886 27.4496 20.7479 27.4496 21.8169C27.4496 22.8859 28.2399 23.7452 29.3836 23.7452C30.0733 23.7452 30.6854 23.3773 30.9699 22.8313L31.2631 22.998C30.9096 23.6388 30.1998 24.0613 29.3836 24.0613C28.0589 24.067 27.1191 23.0641 27.1191 21.8198Z" fill="#2C2D84" stroke="#2C2D84" stroke-width="0.2"/>
<path d="M34.9607 19.9551H33.5928V23.9985H33.2566V19.9551H31.8887V19.6448H34.9636V19.9551H34.9607Z" fill="#2C2D84" stroke="#2C2D84" stroke-width="0.2"/>
<path d="M38.7943 20.9915C38.7943 21.7559 38.2225 22.3364 37.4379 22.3364H36.2856V23.9974H35.9551V19.6409H37.4351C38.2225 19.6409 38.7943 20.2214 38.7943 20.9915ZM38.4638 20.9915C38.4638 20.388 38.0357 19.9512 37.4379 19.9512H36.2856V22.0232H37.4379C38.0357 22.0261 38.4638 21.5893 38.4638 20.9915Z" fill="#2C2D84" stroke="#2C2D84" stroke-width="0.2"/>
<path d="M41.9991 22.8911H39.8151L39.3926 23.9974H39.0449L40.7376 19.6409H41.0853L42.7721 23.9974H42.4244L41.9991 22.8911ZM41.8813 22.5778L40.91 20.0461L39.9386 22.5778H41.8813Z" fill="#2C2D84" stroke="#2C2D84" stroke-width="0.2"/>
<path d="M46.219 23.9985L44.9632 22.0558L43.7073 23.9985H43.3223L44.7706 21.7598L43.4027 19.6448H43.7821L44.9632 21.4667L46.1385 19.6448H46.5179L45.15 21.7598L46.6012 23.9985H46.219Z" fill="#2C2D84" stroke="#2C2D84" stroke-width="0.2"/>
<path d="M47.1562 21.8198C47.1562 20.5754 48.1448 19.5725 49.4035 19.5725C50.6593 19.5725 51.6508 20.5754 51.6508 21.8198C51.6508 23.0641 50.6622 24.067 49.4035 24.067C48.1448 24.067 47.1562 23.0641 47.1562 21.8198ZM51.3174 21.8198C51.3174 20.7507 50.4783 19.8915 49.4006 19.8915C48.323 19.8915 47.4839 20.7507 47.4839 21.8198C47.4839 22.8888 48.323 23.748 49.4006 23.748C50.4783 23.748 51.3174 22.8917 51.3174 21.8198Z" fill="#2C2D84" stroke="#2C2D84" stroke-width="0.2"/>
<path d="M55.8602 22.8116C55.8602 23.4726 55.3314 24.0014 54.6704 24.0014H52.791V19.6448H54.5268C55.1618 19.6448 55.6705 20.162 55.6705 20.7885C55.6705 21.211 55.4463 21.5587 55.1101 21.7397C55.5469 21.9093 55.8602 22.3116 55.8602 22.8116ZM53.1215 19.9551V21.6219H54.5268C54.9751 21.6219 55.3429 21.2483 55.3429 20.7885C55.3429 20.3287 54.9751 19.9551 54.5268 19.9551H53.1215ZM55.5297 22.8116C55.5297 22.326 55.1446 21.9351 54.6704 21.9351H53.1215V23.691H54.6704C55.1446 23.6881 55.5297 23.2944 55.5297 22.8116Z" fill="#2C2D84" stroke="#2C2D84" stroke-width="0.2"/>
<path d="M59.4855 22.8911H57.3014L56.879 23.9974H56.5312L58.2239 19.6409H58.5716L60.2585 23.9974H59.9108L59.4855 22.8911ZM59.3676 22.5778L58.3963 20.0461L57.425 22.5778H59.3676Z" fill="#2C2D84" stroke="#2C2D84" stroke-width="0.2"/>
<path d="M64.3939 19.6409V23.9974H64.0634V21.914H61.5317V23.9974H61.2012V19.6409H61.5317V21.6008H64.0634V19.6409H64.3939Z" fill="#2C2D84" stroke="#2C2D84" stroke-width="0.2"/>
<path d="M68.6493 20.253L66.0745 23.9974H65.7871V19.6409H66.1176V23.3853L68.6867 19.6409H68.9798V23.9974H68.6493V20.253Z" fill="#2C2D84" stroke="#2C2D84" stroke-width="0.2"/>
<path d="M72.8818 23.6871V23.9974H70.373V19.6409H72.8502V19.9512H70.7035V21.6439H72.695V21.9542H70.7035V23.6842H72.8818V23.6871Z" fill="#2C2D84" stroke="#2C2D84" stroke-width="0.2"/>
<path d="M21.7053 0.391602H16.0871H5.59802L0 5.98963V6.00974H16.0871V13.9843L11.8168 17.5995L11.834 25.7092L21.6967 16.8351L21.6018 16.7345H21.7053V6.00974V0.391602Z" fill="#CC5624"/>
<path d="M13.0008 13.6678H13.041L13.7882 13.0327V8.05249H5.10662H0V13.6678V16.734H0.209781L0.106327 16.8432L10.0063 25.7173L10.0264 17.6076L5.33939 13.6678H10.5983H13.0008Z" fill="#2C2D84"/>
</svg>
