<svg width="40" height="40" viewBox="0 0 40 40" fill="none" xmlns="http://www.w3.org/2000/svg">
<circle opacity="0.1" cx="20" cy="20" r="20" fill="#3E3E59"/>
<path d="M19.9999 5.40003C19.9999 3.74317 21.3526 2.37402 22.9855 2.65509C25.4036 3.07134 27.7194 3.99068 29.7779 5.36616C32.6722 7.30007 34.9281 10.0488 36.2602 13.2648C37.5923 16.4808 37.9408 20.0195 37.2617 23.4336C36.5826 26.8477 34.9064 29.9837 32.445 32.4451C29.9836 34.9065 26.8476 36.5827 23.4335 37.2618C20.0194 37.9409 16.4807 37.5924 13.2647 36.2603C10.0487 34.9282 7.29995 32.6724 5.36604 29.7781C3.99056 27.7195 3.07121 25.4037 2.65496 22.9856C2.3739 21.3527 3.74305 20 5.3999 20L16.9999 20C18.6568 20 19.9999 18.6569 19.9999 17L19.9999 5.40003Z" fill="white"/>
</svg>
