<svg width="40" height="40" viewBox="0 0 40 40" fill="none" xmlns="http://www.w3.org/2000/svg">
<circle opacity="0.1" cx="20" cy="20" r="20" fill="#3E3E59"/>
<path d="M19.9999 5.40003C19.9999 3.74317 21.3526 2.37404 22.9854 2.65509C24.2686 2.87597 25.5264 3.23909 26.7351 3.73974C28.8705 4.62423 30.8107 5.92063 32.445 7.55495C34.0793 9.18926 35.3757 11.1295 36.2602 13.2648C37.1447 15.4001 37.5999 17.6888 37.5999 20C37.5999 22.3113 37.1447 24.5999 36.2602 26.7353C35.3757 28.8706 34.0793 30.8108 32.445 32.4451C30.8107 34.0794 28.8705 35.3758 26.7351 36.2603C25.5264 36.761 24.2686 37.1241 22.9854 37.345C21.3526 37.626 19.9999 36.2569 19.9999 34.6L19.9999 20L19.9999 5.40003Z" fill="white"/>
</svg>
