<svg width="86" height="86" viewBox="0 0 86 86" fill="none" xmlns="http://www.w3.org/2000/svg">
<mask id="mask0_2973_13569" style="mask-type:alpha" maskUnits="userSpaceOnUse" x="0" y="0" width="86" height="86">
<rect width="86" height="86" fill="#D9D9D9"/>
</mask>
<g mask="url(#mask0_2973_13569)">
<path d="M41.2083 59.125H44.7917V39.4167H41.2083V59.125ZM43 34.3173C43.6248 34.3173 44.1485 34.106 44.5712 33.6833C44.9938 33.2607 45.2051 32.7369 45.2051 32.1121C45.2051 31.4874 44.9938 30.9637 44.5712 30.541C44.1485 30.1184 43.6248 29.907 43 29.907C42.3752 29.907 41.8515 30.1184 41.4288 30.541C41.0062 30.9637 40.7949 31.4874 40.7949 32.1121C40.7949 32.7369 41.0062 33.2607 41.4288 33.6833C41.8515 34.106 42.3752 34.3173 43 34.3173ZM43.012 75.25C38.5524 75.25 34.3596 74.4038 30.4336 72.7113C26.5076 71.0188 23.0926 68.7218 20.1884 65.8204C17.2843 62.9189 14.9852 59.5071 13.2911 55.5848C11.597 51.6625 10.75 47.4716 10.75 43.012C10.75 38.5524 11.5962 34.3596 13.2887 30.4336C14.9812 26.5076 17.2782 23.0926 20.1796 20.1884C23.0811 17.2843 26.4929 14.9852 30.4152 13.2911C34.3375 11.597 38.5284 10.75 42.988 10.75C47.4476 10.75 51.6404 11.5962 55.5664 13.2887C59.4924 14.9812 62.9074 17.2782 65.8116 20.1796C68.7157 23.0811 71.0148 26.4929 72.7089 30.4152C74.403 34.3375 75.25 38.5284 75.25 42.988C75.25 47.4476 74.4038 51.6404 72.7113 55.5664C71.0188 59.4924 68.7218 62.9074 65.8204 65.8116C62.9189 68.7157 59.5071 71.0148 55.5848 72.7089C51.6625 74.403 47.4716 75.25 43.012 75.25ZM43 71.6667C51.0028 71.6667 57.7812 68.8896 63.3354 63.3354C68.8896 57.7812 71.6667 51.0028 71.6667 43C71.6667 34.9972 68.8896 28.2188 63.3354 22.6646C57.7812 17.1104 51.0028 14.3333 43 14.3333C34.9972 14.3333 28.2188 17.1104 22.6646 22.6646C17.1104 28.2188 14.3333 34.9972 14.3333 43C14.3333 51.0028 17.1104 57.7812 22.6646 63.3354C28.2188 68.8896 34.9972 71.6667 43 71.6667Z" fill="#F29D79"/>
</g>
</svg>
