<svg width="171" height="60" viewBox="0 0 171 60" fill="none" xmlns="http://www.w3.org/2000/svg">
<g clip-path="url(#clip0_97_18735)">
<path d="M156.99 14.7011H148.75V9.19652H158.807L167.053 0.949801L167.127 1.02356V0.929688H139.102V37.6846H157.466C164.841 37.6846 170.332 33.9971 170.332 26.1928C170.332 18.3886 164.841 14.7011 156.99 14.7011ZM156.071 29.8737H148.75V22.5321H156.071C158.351 22.5321 160.65 23.4238 160.65 26.1928C160.65 28.9619 158.351 29.8737 156.071 29.8737Z" fill="#2F2A85"/>
<path d="M97.2712 0.929688H75.7425L63.2719 13.4004V37.6846H72.9199V9.19653H87.6232V37.6846H87.6433L97.2712 28.0567V0.929688Z" fill="#2F2A85"/>
<path d="M120.885 29.8592C114.442 29.8592 110.828 25.1325 110.828 19.2994C110.828 14.6061 113.463 8.73285 120.711 8.73285C122.33 8.74432 123.928 9.11041 125.391 9.8054C126.854 10.5004 128.147 11.5074 129.179 12.7556L135.045 6.88907C133.236 4.72322 130.973 2.98143 128.416 1.78694C125.859 0.592439 123.07 -0.0255874 120.248 -0.0234319C109.588 -0.0234319 101.18 7.86125 101.18 19.2726C101.152 23.3244 102.411 27.2805 104.775 30.5714C107.139 33.8623 110.486 36.3181 114.335 37.5854C118.183 38.8526 122.335 38.8658 126.192 37.6232C130.048 36.3806 133.411 33.9462 135.796 30.6705L129.889 24.7637C128.963 26.3241 127.644 27.6152 126.065 28.509C124.485 29.4028 122.7 29.8683 120.885 29.8592Z" fill="#2F2A85"/>
<path d="M63.2719 50.91C63.2599 50.215 63.3887 49.5249 63.6505 48.881C63.9124 48.2372 64.3019 47.6531 64.7956 47.1638C65.2892 46.6745 65.8768 46.2903 66.5229 46.0342C67.1691 45.7781 67.8604 45.6554 68.5552 45.6736C69.4307 45.6592 70.2945 45.8768 71.0587 46.3043C71.823 46.7317 72.4605 47.3539 72.9065 48.1074L72.236 48.503C71.8672 47.8571 71.3316 47.3221 70.6853 46.9541C70.0389 46.5861 69.3055 46.3986 68.5618 46.4111C67.3687 46.4111 66.2244 46.8851 65.3807 47.7288C64.537 48.5725 64.063 49.7168 64.063 50.91C64.063 52.1031 64.537 53.2474 65.3807 54.0911C66.2244 54.9348 67.3687 55.4088 68.5618 55.4088C69.3142 55.423 70.0562 55.232 70.7082 54.8564C71.3602 54.4808 71.8977 53.9347 72.2628 53.2767L72.9333 53.6723C72.4905 54.4396 71.8503 55.0744 71.0792 55.5106C70.3081 55.9469 69.4342 56.1687 68.5484 56.153C67.8536 56.1703 67.1625 56.0468 66.5167 55.7899C65.8709 55.5329 65.2838 55.1479 64.7908 54.658C64.2977 54.1682 63.909 53.5835 63.648 52.9394C63.3869 52.2952 63.259 51.6049 63.2719 50.91Z" fill="#2F2A85"/>
<path d="M68.5552 56.4891C67.8068 56.5151 67.0608 56.3901 66.3618 56.1216C65.6627 55.8531 65.0249 55.4467 64.4863 54.9264C63.9477 54.4062 63.5194 53.7828 63.2268 53.0935C62.9343 52.4042 62.7835 51.663 62.7835 50.9142C62.7835 50.1654 62.9343 49.4242 63.2268 48.7349C63.5194 48.0456 63.9477 47.4222 64.4863 46.902C65.0249 46.3818 65.6627 45.9753 66.3618 45.7068C67.0608 45.4383 67.8068 45.3133 68.5552 45.3393C69.4906 45.3268 70.4128 45.5614 71.2286 46.0193C72.0444 46.4772 72.725 47.1423 73.2015 47.9474L73.3691 48.2357L72.0952 48.9665L71.9343 48.6581C71.5942 48.0717 71.1048 47.586 70.516 47.2503C69.9271 46.9147 69.2598 46.7411 68.582 46.7473C67.4777 46.7473 66.4187 47.1859 65.6379 47.9667C64.8571 48.7476 64.4184 49.8066 64.4184 50.9109C64.4184 52.0151 64.8571 53.0741 65.6379 53.855C66.4187 54.6358 67.4777 55.0744 68.582 55.0744C69.2728 55.0862 69.954 54.9111 70.5535 54.5677C71.153 54.2243 71.6486 53.7252 71.988 53.1234L72.1489 52.815L73.3892 53.5458L73.235 53.8341C72.7616 54.6529 72.0784 55.3306 71.2557 55.7973C70.4331 56.264 69.5009 56.5028 68.5552 56.4891ZM68.5552 46.0098C67.8958 45.9854 67.2384 46.0942 66.6221 46.3297C66.0057 46.5652 65.4432 46.9225 64.9682 47.3803C64.4931 47.8381 64.1152 48.3871 63.8571 48.9943C63.599 49.6014 63.466 50.2544 63.466 50.9142C63.466 51.574 63.599 52.227 63.8571 52.8342C64.1152 53.4414 64.4931 53.9903 64.9682 54.4481C65.4432 54.9059 66.0057 55.2633 66.6221 55.4987C67.2384 55.7342 67.8958 55.8431 68.5552 55.8187C69.3237 55.8302 70.0832 55.6528 70.7671 55.3021C71.451 54.9514 72.0383 54.4381 72.4774 53.8073L72.3768 53.7536C71.9565 54.3795 71.3872 54.891 70.7201 55.2421C70.053 55.5933 69.309 55.7729 68.5552 55.765C67.2731 55.765 66.0435 55.2557 65.137 54.3492C64.2304 53.4426 63.7211 52.213 63.7211 50.931C63.7211 49.6489 64.2304 48.4193 65.137 47.5128C66.0435 46.6062 67.2731 46.0969 68.5552 46.0969C69.2934 46.0922 70.0217 46.2674 70.6771 46.6074C71.3324 46.9473 71.8951 47.4418 72.3165 48.048L72.417 47.9943C71.9807 47.377 71.4018 46.8741 70.7294 46.5286C70.057 46.1831 69.3111 46.0051 68.5552 46.0098Z" fill="#2C2F80"/>
<path d="M81.5756 46.5589H78.3842V55.9924H77.5997V46.5589H74.4016V45.8281H81.5756V46.5589Z" fill="#2F2A85"/>
<path d="M78.7194 56.328H77.2645V46.8946H74.0664V45.5H81.9108V46.9013H78.7194V56.328ZM77.935 55.6576H78.0489V46.2241H81.2404V46.1705H74.7368V46.2308H77.935V55.6576Z" fill="#2C2F80"/>
<path d="M90.5196 48.9806C90.5299 49.3977 90.4548 49.8126 90.2991 50.1997C90.1433 50.5868 89.9102 50.938 89.6138 51.2318C89.3175 51.5256 88.9643 51.7558 88.5759 51.9082C88.1875 52.0607 87.772 52.1322 87.355 52.1184H84.6731V55.9937H83.9021V45.8294H87.3617C87.7791 45.8174 88.1945 45.8907 88.5827 46.0447C88.9708 46.1987 89.3234 46.4303 89.619 46.7252C89.9146 47.0202 90.1469 47.3723 90.3017 47.7601C90.4566 48.1479 90.5307 48.5632 90.5196 48.9806ZM89.7486 48.9806C89.7626 48.6613 89.7105 48.3425 89.5955 48.0443C89.4805 47.7461 89.3052 47.4748 89.0805 47.2476C88.8557 47.0203 88.5865 46.842 88.2895 46.7237C87.9926 46.6054 87.6744 46.5497 87.355 46.5602H84.6731V51.3943H87.355C87.6738 51.4047 87.9914 51.3492 88.2879 51.2313C88.5843 51.1134 88.8533 50.9357 89.0779 50.7092C89.3026 50.4827 89.4781 50.2122 89.5934 49.9148C89.7088 49.6174 89.7616 49.2993 89.7486 48.9806Z" fill="#2F2A85"/>
<path d="M85.0017 56.328H83.5602V45.5H87.355C87.812 45.5 88.2645 45.59 88.6867 45.7649C89.1088 45.9397 89.4924 46.1961 89.8156 46.5192C90.1387 46.8423 90.395 47.2259 90.5699 47.6481C90.7447 48.0703 90.8347 48.5228 90.8347 48.9797C90.8347 49.4367 90.7447 49.8892 90.5699 50.3113C90.395 50.7335 90.1387 51.1171 89.8156 51.4403C89.4924 51.7634 89.1088 52.0197 88.6867 52.1946C88.2645 52.3694 87.812 52.4594 87.355 52.4594H85.0017V56.328ZM84.2306 55.6576H84.3312V51.7823H87.355C88.1001 51.7823 88.8146 51.4863 89.3415 50.9595C89.8683 50.4326 90.1643 49.7181 90.1643 48.973C90.1643 48.2279 89.8683 47.5134 89.3415 46.9866C88.8146 46.4597 88.1001 46.1638 87.355 46.1638H84.2306V55.6576ZM87.355 51.7286H84.3312V46.2241H87.355C88.0615 46.259 88.7275 46.5642 89.2151 47.0765C89.7028 47.5888 89.9748 48.2691 89.9748 48.9764C89.9748 49.6837 89.7028 50.3639 89.2151 50.8762C88.7275 51.3886 88.0615 51.6938 87.355 51.7286ZM85.0017 51.0582H87.355C87.8867 51.028 88.3867 50.7955 88.7525 50.4084C89.1182 50.0213 89.322 49.5089 89.322 48.9764C89.322 48.4438 89.1182 47.9314 88.7525 47.5443C88.3867 47.1572 87.8867 46.9247 87.355 46.8946H85.0017V51.0582Z" fill="#2C2F80"/>
<path d="M97.9819 53.4111H92.8864L91.8941 55.9924H91.0895L95.0386 45.8281H95.8498L99.8056 55.9924H98.9943L97.9819 53.4111ZM97.707 52.6803L95.4408 46.7735L93.1746 52.6803H97.707Z" fill="#2F2A85"/>
<path d="M100.268 56.328H98.7395L97.7472 53.7467H93.1009L92.1153 56.328H90.58L94.8039 45.5H96.0778L100.268 56.328ZM99.1954 55.6576H99.2893L95.6152 46.1705H95.5615L98.1897 53.0226H92.6852L95.3134 46.1705H95.2598L91.5723 55.6643H91.6661L92.6517 53.083H98.2099L99.1954 55.6576ZM93.6641 52.3455H97.2176L95.4408 47.7125L93.6641 52.3455Z" fill="#2C2F80"/>
<path d="M107.851 55.9924L104.915 51.4667L101.985 55.9924H101.086L104.438 50.7695L101.247 45.8281H102.132L104.888 50.0856L107.63 45.8281H108.522L105.324 50.7695L108.676 55.9924H107.851Z" fill="#2F2A85"/>
<path d="M109.326 56.328H107.637L104.888 52.084L102.139 56.328H100.476L104.076 50.7699L100.63 45.5H102.313L104.888 49.4759L107.449 45.5H109.132L105.726 50.7766L109.326 56.328ZM107.985 55.6576H108.072L104.908 50.7699L107.885 46.1638H107.851L104.921 50.7028L101.951 46.1705H101.864L104.841 50.7766L101.676 55.6643H101.777L104.888 50.857L107.985 55.6576Z" fill="#2C2F80"/>
<path d="M110.017 50.9071C110.017 49.8698 110.324 48.8559 110.901 47.9935C111.477 47.1312 112.296 46.4592 113.255 46.0625C114.213 45.6659 115.268 45.5625 116.285 45.7653C117.302 45.9682 118.237 46.4682 118.97 47.2021C119.703 47.936 120.201 48.8709 120.403 49.8884C120.604 50.9058 120.5 51.9603 120.102 52.9182C119.704 53.8761 119.031 54.6945 118.168 55.2698C117.305 55.8451 116.29 56.1515 115.253 56.1502C114.564 56.1546 113.88 56.022 113.242 55.76C112.605 55.498 112.025 55.1119 111.538 54.624C111.051 54.1362 110.666 53.5564 110.404 52.9183C110.143 52.2802 110.011 51.5966 110.017 50.9071ZM119.725 50.9071C119.72 50.0238 119.453 49.1618 118.958 48.4299C118.464 47.6981 117.764 47.129 116.946 46.7947C116.128 46.4603 115.23 46.3756 114.364 46.5511C113.499 46.7267 112.704 47.1547 112.082 47.7812C111.459 48.4077 111.036 49.2046 110.865 50.0713C110.695 50.938 110.785 51.8358 111.124 52.6514C111.463 53.467 112.037 54.1639 112.771 54.6541C113.506 55.1443 114.37 55.4059 115.253 55.4059C115.843 55.4086 116.428 55.2939 116.974 55.0684C117.519 54.843 118.015 54.5113 118.431 54.0926C118.847 53.674 119.176 53.1767 119.398 52.6299C119.62 52.083 119.731 51.4974 119.725 50.9071Z" fill="#2F2A85"/>
<path d="M115.226 56.4847C114.123 56.4847 113.045 56.1575 112.127 55.5446C111.21 54.9316 110.495 54.0604 110.073 53.0411C109.65 52.0218 109.54 50.9002 109.755 49.8181C109.97 48.736 110.502 47.7421 111.282 46.9619C112.062 46.1818 113.056 45.6506 114.138 45.4353C115.22 45.2201 116.342 45.3305 117.361 45.7527C118.38 46.175 119.251 46.8899 119.864 47.8073C120.477 48.7246 120.805 49.8031 120.805 50.9064C120.814 51.6414 120.675 52.3709 120.398 53.0517C120.121 53.7326 119.711 54.3511 119.191 54.8709C118.671 55.3907 118.052 55.8012 117.372 56.0784C116.691 56.3555 115.961 56.4937 115.226 56.4847ZM115.226 46.0053C114.255 46.0053 113.306 46.2933 112.499 46.8329C111.692 47.3725 111.063 48.1393 110.691 49.0365C110.32 49.9337 110.223 50.9208 110.413 51.873C110.603 52.8252 111.071 53.6997 111.758 54.3858C112.445 55.0719 113.32 55.5388 114.273 55.7274C115.225 55.916 116.212 55.8179 117.109 55.4454C118.006 55.0729 118.772 54.4428 119.31 53.6349C119.849 52.8269 120.135 51.8774 120.134 50.9064C120.141 50.2602 120.019 49.6191 119.775 49.0208C119.531 48.4225 119.17 47.879 118.712 47.4224C118.255 46.9657 117.711 46.6051 117.112 46.3618C116.514 46.1184 115.872 45.9972 115.226 46.0053ZM115.226 55.7405C114.269 55.7458 113.332 55.4668 112.533 54.9388C111.735 54.4109 111.111 53.6578 110.741 52.775C110.371 51.8921 110.272 50.9193 110.455 49.9799C110.639 49.0404 111.097 48.1765 111.772 47.4978C112.447 46.8191 113.308 46.356 114.246 46.1673C115.185 45.9786 116.158 46.0727 117.043 46.4378C117.928 46.8029 118.685 47.4224 119.217 48.218C119.749 49.0135 120.034 49.9492 120.034 50.9064C120.042 51.5414 119.924 52.1719 119.686 52.7606C119.448 53.3494 119.095 53.8847 118.647 54.335C118.199 54.7853 117.666 55.1417 117.079 55.383C116.491 55.6244 115.861 55.7459 115.226 55.7405ZM115.226 46.7428C114.402 46.7375 113.594 46.9772 112.906 47.4314C112.218 47.8857 111.68 48.5341 111.361 49.2944C111.041 50.0547 110.955 50.8927 111.113 51.7021C111.27 52.5115 111.665 53.2559 112.246 53.8409C112.827 54.4259 113.569 54.8251 114.377 54.9879C115.186 55.1508 116.024 55.0699 116.787 54.7555C117.549 54.4412 118.201 53.9076 118.659 53.2223C119.118 52.5371 119.363 51.731 119.363 50.9064C119.37 50.3599 119.268 49.8175 119.063 49.3109C118.858 48.8042 118.554 48.3436 118.169 47.9559C117.784 47.5682 117.325 47.2612 116.82 47.0529C116.315 46.8446 115.773 46.7392 115.226 46.7428Z" fill="#2C2F80"/>
<path d="M130.325 53.2234C130.326 53.5878 130.255 53.9488 130.116 54.2856C129.976 54.6224 129.772 54.9283 129.514 55.1857C129.256 55.4431 128.949 55.6469 128.612 55.7853C128.275 55.9238 127.914 55.9942 127.549 55.9924H123.165V45.8281H127.187C127.899 45.8281 128.581 46.1107 129.084 46.6136C129.587 47.1166 129.869 47.7987 129.869 48.51C129.875 48.9641 129.757 49.4113 129.526 49.8026C129.296 50.1939 128.962 50.5145 128.562 50.7292C129.075 50.9161 129.518 51.2551 129.833 51.7007C130.148 52.1464 130.32 52.6776 130.325 53.2234ZM123.942 46.5589V50.4476H127.221C127.737 50.4476 128.231 50.2428 128.596 49.8782C128.96 49.5135 129.165 49.019 129.165 48.5033C129.165 47.9876 128.96 47.4931 128.596 47.1284C128.231 46.7638 127.737 46.5589 127.221 46.5589H123.942ZM129.561 53.2234C129.566 52.9559 129.518 52.69 129.419 52.4413C129.321 52.1926 129.173 51.9661 128.986 51.775C128.799 51.584 128.575 51.4322 128.329 51.3286C128.082 51.225 127.817 51.1717 127.549 51.1717H123.942V55.2683H127.556C127.822 55.2666 128.085 55.2121 128.33 55.1082C128.574 55.0042 128.796 54.8528 128.982 54.6626C129.168 54.4725 129.314 54.2473 129.412 54.0003C129.51 53.7533 129.559 53.4892 129.554 53.2234H129.561Z" fill="#2F2A85"/>
<path d="M127.549 56.328H122.856V45.5H127.241C128.039 45.5018 128.804 45.8195 129.368 46.3837C129.932 46.9478 130.25 47.7125 130.251 48.5104C130.256 48.9225 130.17 49.3307 130 49.7061C129.83 50.0814 129.579 50.4148 129.266 50.6827C129.701 50.9507 130.06 51.3255 130.308 51.7715C130.557 52.2175 130.688 52.7198 130.687 53.2305C130.685 53.6401 130.603 54.0454 130.444 54.4231C130.285 54.8007 130.053 55.1433 129.762 55.4311C129.47 55.7189 129.125 55.9463 128.745 56.1002C128.365 56.2541 127.959 56.3316 127.549 56.328ZM123.527 55.6576H127.549C128.196 55.6576 128.815 55.4014 129.273 54.9451C129.73 54.4889 129.988 53.8699 129.99 53.2238C129.99 52.7817 129.863 52.3489 129.626 51.9761C129.388 51.6032 129.049 51.3058 128.649 51.1185C129.024 51.3271 129.336 51.6324 129.553 52.0027C129.77 52.3729 129.884 52.7946 129.883 53.2238C129.886 53.8492 129.642 54.4506 129.204 54.8966C128.765 55.3425 128.168 55.5969 127.543 55.6039H123.594V50.8637H127.543C127.749 50.8628 127.954 50.8898 128.153 50.9442L127.771 50.7967L128.126 50.6089C127.838 50.7408 127.525 50.8094 127.208 50.8101H123.594V46.2509H127.208C127.504 46.2535 127.798 46.3146 128.071 46.4306C128.344 46.5466 128.591 46.7152 128.799 46.9269C129.007 47.1386 129.172 47.3892 129.283 47.6643C129.394 47.9395 129.45 48.2338 129.447 48.5305C129.448 48.9214 129.348 49.3061 129.158 49.6476C128.968 49.9892 128.693 50.2763 128.361 50.4816H128.414C128.762 50.2957 129.051 50.0179 129.251 49.6785C129.451 49.3391 129.553 48.9512 129.547 48.5573C129.546 47.9373 129.299 47.3431 128.86 46.9047C128.422 46.4663 127.828 46.2192 127.208 46.2174H123.493L123.527 55.6576ZM124.298 54.9335H127.576C128.012 54.9062 128.421 54.7138 128.72 54.3956C129.019 54.0773 129.185 53.6571 129.185 53.2204C129.185 52.7838 129.019 52.3635 128.72 52.0453C128.421 51.727 128.012 51.5346 127.576 51.5074H124.298V54.9335ZM124.298 50.1128H127.241C127.668 50.1128 128.077 49.9433 128.379 49.6415C128.681 49.3397 128.85 48.9305 128.85 48.5037C128.85 48.0769 128.681 47.6676 128.379 47.3659C128.077 47.0641 127.668 46.8946 127.241 46.8946H124.298V50.1128Z" fill="#2C2F80"/>
<path d="M138.786 53.4111H133.691L132.705 55.9924H131.887L135.836 45.8281H136.681L140.61 55.9924H139.799L138.786 53.4111ZM138.512 52.6803L136.245 46.7735L133.999 52.6803H138.512Z" fill="#2F2A85"/>
<path d="M141.073 56.328H139.544L138.552 53.7467H133.919L132.933 56.328H131.398L135.608 45.5H136.882L141.073 56.328ZM140.007 55.6576H140.094L136.42 46.1705H136.373L139.001 53.0226H133.496L136.118 46.1705H136.071L132.377 55.6643H132.471L133.456 53.083H139.014L140.007 55.6576ZM134.469 52.3455H138.022L136.245 47.7125L134.469 52.3455Z" fill="#2C2F80"/>
<path d="M150.238 45.8281V55.9924H149.467V51.1315H143.56V55.9924H142.796V45.8281H143.56V50.4007H149.467V45.8281H150.238Z" fill="#2F2A85"/>
<path d="M150.573 56.328H149.138V51.4671H143.895V56.328H142.461V45.5H143.895V50.0726H149.138V45.5H150.573V56.328ZM149.809 55.6576H149.903V46.1705H149.809V50.743H143.225V46.1705H143.131V55.6643H143.225V50.7967H149.809V55.6576Z" fill="#2C2F80"/>
<path d="M160.148 47.2562L154.113 55.9723H153.443V45.8281H154.214V54.5442L160.208 45.8281H160.878V55.9924H160.148V47.2562Z" fill="#2F2A85"/>
<path d="M161.274 56.328H159.832V48.3361L154.335 56.328H153.155V45.5H154.596V53.4987L160.08 45.5H161.274V56.328ZM160.503 55.6576H160.603V46.1705H160.436L153.926 55.6576V46.1705H153.825V55.6643H153.986L160.503 46.1705V55.6576Z" fill="#2C2F80"/>
<path d="M170.044 55.2683V55.9924H164.17V45.8281H169.95V46.5589H164.941V50.508H169.588V51.2321H164.941V55.2549L170.044 55.2683Z" fill="#2F2A85"/>
<path d="M170.372 56.328H163.855V45.5H170.305V46.9013H165.297V50.1933H169.943V51.5878H165.297V54.9402H170.372V56.328ZM164.526 55.6576H169.702V55.6039H164.626V50.9107H169.273V50.8637H164.626V46.2442H169.635V46.1705H164.526V55.6576Z" fill="#2C2F80"/>
<path d="M50.6403 0.914062H37.5327H13.0607L0 13.9747V14.0217H37.5327V32.6271L27.5696 41.0616L27.6165 59.9821L50.6202 39.2781L50.3989 39.0435H50.6403V14.0217V0.914062Z" fill="#E9561A"/>
<path d="M30.3319 31.8967H30.4258L32.169 30.4082V18.7891H11.9142H0V31.8967V39.0438H0.48944L0.248072 39.2986L23.3456 60.0093L23.3926 41.0821L12.4573 31.8967H24.7268H30.3319Z" fill="#2B3079"/>
</g>
<defs>
<clipPath id="clip0_97_18735">
<rect width="170.379" height="60" fill="white"/>
</clipPath>
</defs>
</svg>
