<svg width="292" height="120" viewBox="0 0 292 120" fill="none" xmlns="http://www.w3.org/2000/svg">
<path d="M91.6236 73.1507V99.9452H80.1375V117.534H50.9299V99.9452H0.554993V73.1507L34.8493 2.46575H67.3386L32.7162 73.1507H50.9299V52.4384H80.1375V73.1507H91.6236Z" fill="#E86630"/>
<path d="M180.396 103.726C172.082 114.575 160.432 120 145.446 120C130.459 120 118.754 114.575 110.331 103.726C102.017 92.7671 97.8602 78.1918 97.8602 60C97.8602 41.8082 102.017 27.2877 110.331 16.4384C118.754 5.47945 130.459 0 145.446 0C160.432 0 172.082 5.47945 180.396 16.4384C188.819 27.2877 193.031 41.8082 193.031 60C193.031 78.1918 188.819 92.7671 180.396 103.726ZM127.232 60C127.232 80.9315 133.303 91.3973 145.446 91.3973C157.588 91.3973 163.659 80.9315 163.659 60C163.659 39.0685 157.588 28.6027 145.446 28.6027C133.303 28.6027 127.232 39.0685 127.232 60Z" fill="#E86630"/>
<path d="M291.445 73.1507V99.9452H279.959V117.534H250.751V99.9452H200.376V73.1507L234.671 2.46575H267.16L232.538 73.1507H250.751V52.4384H279.959V73.1507H291.445Z" fill="#E86630"/>
</svg>
