<svg width="119" height="30" viewBox="0 0 119 30" fill="none" xmlns="http://www.w3.org/2000/svg">
<path fill-rule="evenodd" clip-rule="evenodd" d="M14.4088 30C7.61712 30 4.22546 30 2.11712 27.8917C0.00878906 25.7833 0.00878906 22.3917 0.00878906 15.6V14.4C0.00878906 7.60833 0.00878906 4.21667 2.11712 2.10833C4.22546 0 7.61712 0 14.4088 0H15.6088C22.4005 0 25.7921 0 27.9005 2.10833C30.0088 4.21667 30.0088 7.60833 30.0088 14.4V15.6C30.0088 22.3917 30.0088 25.7833 27.9005 27.8917C25.7921 30 22.4005 30 15.6088 30H14.4088Z" fill="#0077FF"/>
<path d="M17.3584 18.4916C16.9662 18.3933 16.6181 18.167 16.369 17.8485C16.1199 17.53 15.9843 17.1376 15.9834 16.7333V6.96659C15.9845 6.74591 16.0357 6.52837 16.1331 6.33035C16.2305 6.13232 16.3715 5.95898 16.5456 5.82339C16.7198 5.6878 16.9224 5.59348 17.1382 5.54756C17.3541 5.50163 17.5775 5.50529 17.7917 5.55825L23.6251 7.01659C24.0181 7.11162 24.368 7.33564 24.6187 7.65287C24.8695 7.9701 25.0067 8.36222 25.0084 8.76659V18.5333C25.0073 18.7539 24.9561 18.9715 24.8587 19.1695C24.7613 19.3675 24.6203 19.5409 24.4461 19.6764C24.272 19.812 24.0694 19.9064 23.8536 19.9523C23.6377 19.9982 23.4143 19.9946 23.2001 19.9416L17.3584 18.4916Z" fill="white"/>
<path d="M6.41716 22.9834C6.01948 22.8932 5.66397 22.6713 5.40831 22.3536C5.15266 22.0359 5.01188 21.6412 5.00882 21.2334V11.4668C5.00729 11.2428 5.05765 11.0216 5.15596 10.8203C5.25428 10.6191 5.39786 10.4434 5.57547 10.3069C5.75307 10.1705 5.95986 10.0771 6.17963 10.034C6.3994 9.99085 6.62617 9.99922 6.84216 10.0584L12.6755 11.5084C13.0677 11.6067 13.4158 11.833 13.6649 12.1515C13.9139 12.47 14.0496 12.8625 14.0505 13.2668V23.0334C14.0494 23.2541 13.9982 23.4717 13.9008 23.6697C13.8034 23.8677 13.6623 24.041 13.4882 24.1766C13.3141 24.3122 13.1115 24.4065 12.8957 24.4525C12.6798 24.4984 12.4564 24.4947 12.2422 24.4418L6.41716 22.9834Z" fill="white"/>
<path d="M11.8838 20.7416C11.4916 20.6433 11.1434 20.417 10.8944 20.0985C10.6453 19.78 10.5096 19.3876 10.5088 18.9833V9.21659C10.5099 8.99591 10.5611 8.77837 10.6585 8.58035C10.7559 8.38232 10.8969 8.20898 11.071 8.07339C11.2451 7.9378 11.4478 7.84348 11.6636 7.79756C11.8794 7.75163 12.1029 7.75529 12.3171 7.80825L18.1505 9.26659C18.542 9.36321 18.8899 9.58793 19.1391 9.90501C19.3882 10.2221 19.5242 10.6133 19.5255 11.0166V20.7833C19.5243 21.0039 19.4732 21.2215 19.3758 21.4195C19.2784 21.6175 19.1373 21.7909 18.9632 21.9264C18.7891 22.062 18.5865 22.1564 18.3706 22.2023C18.1548 22.2482 17.9313 22.2445 17.7171 22.1916L11.8838 20.7416Z" fill="white"/>
<path d="M15.6923 21.6666C15.5679 21.636 15.4567 21.5659 15.3755 21.4667C15.2944 21.3675 15.2476 21.2446 15.2423 21.1166L14.9923 13.6166C14.9445 13.1747 14.7706 12.7559 14.4913 12.4102C14.2121 12.0644 13.8392 11.8063 13.4173 11.6666C13.3974 11.6581 13.3749 11.6577 13.3547 11.6655C13.3345 11.6732 13.3181 11.6886 13.309 11.7083C13.2937 11.7238 13.2852 11.7448 13.2852 11.7666C13.2852 11.7884 13.2937 11.8094 13.309 11.8249C13.5303 11.9961 13.7093 12.216 13.8321 12.4674C13.9549 12.7188 14.0183 12.9951 14.0173 13.2749V21.2666L15.6923 21.6666Z" fill="#0077FF"/>
<path d="M21.1591 19.4416C21.0362 19.4094 20.9269 19.3386 20.8474 19.2396C20.7678 19.1405 20.7223 19.0185 20.7174 18.8916L20.4674 11.3916C20.4278 10.9412 20.2577 10.5121 19.978 10.1568C19.6983 9.80162 19.321 9.53568 18.8924 9.39156C18.876 9.37801 18.8554 9.37061 18.8341 9.37061C18.8128 9.37061 18.7922 9.37801 18.7758 9.39156C18.7605 9.40714 18.752 9.42808 18.752 9.44989C18.752 9.47171 18.7605 9.49265 18.7758 9.50823C18.9948 9.68153 19.1721 9.90178 19.2947 10.1527C19.4173 10.4037 19.482 10.6789 19.4841 10.9582V18.9499L21.1591 19.4416Z" fill="#0077FF"/>
<path d="M47.2755 17.2334C48.338 17.0229 49.2946 16.45 49.9816 15.6125C50.6686 14.775 51.0435 13.725 51.0421 12.6417C51.0421 9.8334 48.7921 7.8584 45.6338 7.8584H40.0088V22.9834H42.6088V17.4251H44.4421L48.4671 22.9834H51.5171L47.2755 17.2334ZM45.6088 10.2167C47.2755 10.2167 48.3588 11.2084 48.3588 12.6417C48.3588 14.0751 47.2338 15.0667 45.6088 15.0667H42.6088V10.2167H45.6088Z" fill="#222222"/>
<path d="M57.3593 23.2C58.0314 23.2015 58.6923 23.0279 59.2768 22.6962C59.8614 22.3645 60.3494 21.8861 60.6926 21.3083L61.1926 22.975H63.051V11.825H60.551V18.2833C60.5799 18.6287 60.5366 18.9763 60.424 19.3041C60.3113 19.6319 60.1318 19.9327 59.8967 20.1873C59.6616 20.442 59.3761 20.645 59.0584 20.7835C58.7406 20.9219 58.3976 20.9928 58.051 20.9916C57.7107 20.9826 57.3759 20.9042 57.067 20.7612C56.7582 20.6183 56.4817 20.4137 56.2547 20.1602C56.0277 19.9066 55.8548 19.6093 55.7467 19.2866C55.6386 18.9639 55.5975 18.6225 55.626 18.2833V11.825H53.126V18.5666C53.1426 21.25 54.9593 23.2 57.3593 23.2Z" fill="#222222"/>
<path d="M70.9922 23.1999C73.8755 23.1999 76.2505 21.5333 76.2505 18.8666C76.2505 15.8416 73.7505 14.9583 71.6172 14.2333C69.9505 13.6749 68.5089 13.1583 68.5089 11.8083C68.5089 10.6249 69.6089 10.0083 70.9089 10.0083C71.526 9.99297 72.1329 10.1679 72.6472 10.5093C73.1615 10.8506 73.5583 11.342 73.7839 11.9166L76.2839 11.5083C75.9326 10.3525 75.2078 9.34582 74.223 8.6461C73.2383 7.94638 72.0492 7.5931 70.8422 7.64161C68.0755 7.64161 65.8422 9.23328 65.8422 11.9333C65.8422 14.9999 68.3422 15.8333 70.4755 16.5249C72.1422 17.0666 73.5922 17.5749 73.5922 18.9499C73.5922 20.1499 72.5089 20.8333 71.0172 20.8333C69.3505 20.8333 68.4172 19.9999 67.6172 18.5999L65.1172 19.0249C65.4949 20.2738 66.277 21.3616 67.3405 22.1174C68.4041 22.8732 69.6886 23.254 70.9922 23.1999Z" fill="#222222"/>
<path d="M83.0174 20.8334C82.8474 20.8587 82.6738 20.8438 82.5106 20.79C82.3474 20.7361 82.1991 20.6447 82.0776 20.5232C81.956 20.4017 81.8647 20.2534 81.8108 20.0902C81.7569 19.927 81.7421 19.7534 81.7674 19.5834V13.9751H85.1007V11.8251H81.7674V8.6084H79.909L79.2757 11.8251H77.4424V13.9751H79.2757V19.5917C79.2757 21.7834 80.5507 22.9834 83.0174 22.9834H85.1174L85.3341 20.8417L83.0174 20.8334Z" fill="#222222"/>
<path d="M92.4419 23.2C95.9753 23.2 98.4586 20.7916 98.4586 17.4083C98.4586 14.025 95.9586 11.575 92.4419 11.575C88.9253 11.575 86.4336 13.975 86.4336 17.4083C86.4336 20.8416 88.9169 23.2 92.4419 23.2ZM92.4419 20.9416C91.9799 20.954 91.5203 20.8702 91.0924 20.6954C90.6645 20.5207 90.2776 20.2589 89.9563 19.9266C89.635 19.5943 89.3863 19.1989 89.226 18.7653C89.0657 18.3318 88.9974 17.8697 89.0253 17.4083C89.0024 16.9448 89.0739 16.4816 89.2355 16.0466C89.3971 15.6117 89.6454 15.2141 89.9653 14.878C90.2852 14.5419 90.67 14.2743 91.0965 14.0915C91.5229 13.9087 91.9821 13.8144 92.4461 13.8144C92.9101 13.8144 93.3693 13.9087 93.7957 14.0915C94.2222 14.2743 94.607 14.5419 94.9269 14.878C95.2468 15.2141 95.4951 15.6117 95.6567 16.0466C95.8183 16.4816 95.8898 16.9448 95.8669 17.4083C95.8949 17.8704 95.8263 18.3332 95.6655 18.7674C95.5048 19.2015 95.2553 19.5974 94.9331 19.9298C94.6109 20.2622 94.223 20.5238 93.7941 20.698C93.3652 20.8722 92.9047 20.9552 92.4419 20.9416Z" fill="#222222"/>
<path d="M103.109 22.9834V16.4001C103.063 16.0985 103.088 15.7903 103.183 15.5002C103.277 15.2101 103.438 14.9461 103.652 14.7291C103.867 14.5122 104.129 14.3484 104.418 14.2507C104.707 14.1531 105.015 14.1243 105.317 14.1667H106.75L106.534 11.8001H106.05C105.434 11.7447 104.815 11.8676 104.267 12.1542C103.719 12.4409 103.265 12.8791 102.959 13.4167L102.509 11.8251H100.65V22.9834H103.109Z" fill="#222222"/>
<path d="M118.992 17.2751C118.974 15.728 118.343 14.2513 117.236 13.1698C116.13 12.0884 114.639 11.4908 113.092 11.5084C111.545 11.5261 110.068 12.1577 108.987 13.2641C107.905 14.3706 107.308 15.8613 107.325 17.4084C107.292 18.1833 107.421 18.9566 107.702 19.6792C107.984 20.4019 108.412 21.0582 108.961 21.6066C109.509 22.155 110.165 22.5836 110.888 22.865C111.611 23.1465 112.384 23.2748 113.159 23.2418C115.492 23.2418 117.7 22.1418 118.542 20.0251L116.209 19.6334C115.871 20.0656 115.434 20.4101 114.935 20.6378C114.436 20.8655 113.89 20.9698 113.342 20.9418C112.515 20.9937 111.7 20.7247 111.067 20.1906C110.433 19.6566 110.031 18.8988 109.942 18.0751H118.992C118.967 17.8334 118.992 17.5751 118.992 17.2751ZM113.159 13.7584C113.872 13.7497 114.568 13.9795 115.135 14.4113C115.703 14.8431 116.11 15.4521 116.292 16.1418H110.059C110.231 15.4548 110.63 14.8459 111.191 14.4135C111.752 13.981 112.442 13.7503 113.15 13.7584H113.159Z" fill="#222222"/>
</svg>
