<svg version="1.1" xmlns="http://www.w3.org/2000/svg" xmlns:xlink="http://www.w3.org/1999/xlink">

    <symbol viewBox="0 0 18 19" id="nav-add-link">
        <path d="M0.000299454 16L0 15H18L18.0003 16H0.000299454ZM0.000299454 11V10H18.0003V11H0.000299454Z" />
        <path d="M0.000299454 5V6H18.0003V5H0.000299454Z" />
    </symbol>

    <symbol viewBox="0 0 18 19" id="nav-add-link-mobile">
        <path d="M0 11.9998V10.6362H18V11.9998H0ZM0 8.36336V6.99976H18V8.36336H0Z" />
    </symbol>

    <symbol viewBox="0 0 18 19" id="header-user-link">
        <path d="M4.51731 13.4692C5.15481 12.9962 5.84928 12.6226 6.60071 12.3486C7.35215 12.0745 8.15191 11.9375 8.99998 11.9375C9.84806 11.9375 10.6478 12.0745 11.3993 12.3486C12.1507 12.6226 12.8452 12.9962 13.4827 13.4692C13.949 12.9567 14.3185 12.3635 14.5911 11.6894C14.8637 11.0154 15 10.2856 15 9.49998C15 7.83748 14.4156 6.42186 13.2469 5.25311C12.0781 4.08436 10.6625 3.49998 8.99998 3.49998C7.33748 3.49998 5.92186 4.08436 4.75311 5.25311C3.58436 6.42186 2.99998 7.83748 2.99998 9.49998C2.99998 10.2856 3.13628 11.0154 3.40888 11.6894C3.68148 12.3635 4.05096 12.9567 4.51731 13.4692ZM9.00021 10.0625C8.31544 10.0625 7.73797 9.82745 7.26778 9.35741C6.79759 8.88736 6.5625 8.30996 6.5625 7.62521C6.5625 6.94044 6.79752 6.36297 7.26756 5.89278C7.73761 5.4226 8.31501 5.1875 8.99976 5.1875C9.68452 5.1875 10.262 5.42252 10.7322 5.89256C11.2024 6.36261 11.4375 6.94001 11.4375 7.62476C11.4375 8.30952 11.2024 8.88699 10.7324 9.35718C10.2624 9.82737 9.68496 10.0625 9.00021 10.0625ZM8.99998 16.625C8.01056 16.625 7.08244 16.4389 6.21563 16.0668C5.3488 15.6947 4.59471 15.1879 3.95336 14.5466C3.31203 13.9053 2.8053 13.1512 2.43319 12.2843C2.06106 11.4175 1.875 10.4894 1.875 9.49998C1.875 8.51056 2.06106 7.58244 2.43319 6.71563C2.8053 5.8488 3.31203 5.09471 3.95336 4.45336C4.59471 3.81203 5.3488 3.3053 6.21563 2.93319C7.08244 2.56106 8.01056 2.375 8.99998 2.375C9.98941 2.375 10.9175 2.56106 11.7843 2.93319C12.6512 3.3053 13.4053 3.81203 14.0466 4.45336C14.6879 5.09471 15.1947 5.8488 15.5668 6.71563C15.9389 7.58244 16.125 8.51056 16.125 9.49998C16.125 10.4894 15.9389 11.4175 15.5668 12.2843C15.1947 13.1512 14.6879 13.9053 14.0466 14.5466C13.4053 15.1879 12.6512 15.6947 11.7843 16.0668C10.9175 16.4389 9.98941 16.625 8.99998 16.625ZM8.99998 15.5C9.67691 15.5 10.3295 15.3911 10.9579 15.1733C11.5863 14.9555 12.1442 14.6509 12.6317 14.2596C12.1442 13.8827 11.5935 13.5889 10.9796 13.3783C10.3656 13.1678 9.70576 13.0625 8.99998 13.0625C8.29421 13.0625 7.63314 13.1666 7.01679 13.3747C6.40044 13.5829 5.85093 13.8779 5.36824 14.2596C5.85574 14.6509 6.41368 14.9555 7.04205 15.1733C7.67041 15.3911 8.32306 15.5 8.99998 15.5ZM8.99998 8.9375C9.37306 8.9375 9.68508 8.81202 9.93606 8.56106C10.187 8.31008 10.3125 7.99806 10.3125 7.62498C10.3125 7.25191 10.187 6.93988 9.93606 6.68891C9.68508 6.43794 9.37306 6.31246 8.99998 6.31246C8.62691 6.31246 8.31488 6.43794 8.06391 6.68891C7.81294 6.93988 7.68746 7.25191 7.68746 7.62498C7.68746 7.99806 7.81294 8.31008 8.06391 8.56106C8.31488 8.81202 8.62691 8.9375 8.99998 8.9375Z" />
    </symbol>

    <symbol viewBox="0 0 16 17" id="header-view-link">
        <path d="M0.666656 8.50008C0.666656 8.50008 3.33332 3.16675 7.99999 3.16675C12.6667 3.16675 15.3333 8.50008 15.3333 8.50008C15.3333 8.50008 12.6667 13.8334 7.99999 13.8334C3.33332 13.8334 0.666656 8.50008 0.666656 8.50008Z" stroke-width="1.33333" stroke-linecap="round" stroke-linejoin="round" />
        <path d="M8 10.5C9.10457 10.5 10 9.60457 10 8.5C10 7.39543 9.10457 6.5 8 6.5C6.89543 6.5 6 7.39543 6 8.5C6 9.60457 6.89543 10.5 8 10.5Z" stroke-width="1.33333" stroke-linecap="round" stroke-linejoin="round" />
    </symbol>

    <symbol viewBox="0 0 16 17" id="header-search-link">
        <path d="M7.33333 13.1667C10.2789 13.1667 12.6667 10.7789 12.6667 7.83333C12.6667 4.88781 10.2789 2.5 7.33333 2.5C4.38781 2.5 2 4.88781 2 7.83333C2 10.7789 4.38781 13.1667 7.33333 13.1667Z" stroke-width="1.33333" stroke-linecap="round" stroke-linejoin="round" />
        <path d="M14.0003 14.5003L11.1003 11.6003" stroke-width="1.33333" stroke-linecap="round" stroke-linejoin="round" />
    </symbol>

    <symbol viewBox="0 0 16 17" id="header-phone">
        <path d="M13.3 14.5C11.9111 14.5 10.5389 14.1972 9.18333 13.5917C7.82778 12.9861 6.59444 12.1278 5.48333 11.0167C4.37222 9.90556 3.51389 8.67222 2.90833 7.31667C2.30278 5.96111 2 4.58889 2 3.2C2 3 2.06667 2.83333 2.2 2.7C2.33333 2.56667 2.5 2.5 2.7 2.5H5.4C5.55556 2.5 5.69444 2.55278 5.81667 2.65833C5.93889 2.76389 6.01111 2.88889 6.03333 3.03333L6.46667 5.36667C6.48889 5.54444 6.48333 5.69444 6.45 5.81667C6.41667 5.93889 6.35556 6.04444 6.26667 6.13333L4.65 7.76667C4.87222 8.17778 5.13611 8.575 5.44167 8.95833C5.74722 9.34167 6.08333 9.71111 6.45 10.0667C6.79444 10.4111 7.15556 10.7306 7.53333 11.025C7.91111 11.3194 8.31111 11.5889 8.73333 11.8333L10.3 10.2667C10.4 10.1667 10.5306 10.0917 10.6917 10.0417C10.8528 9.99167 11.0111 9.97778 11.1667 10L13.4667 10.4667C13.6222 10.5111 13.75 10.5917 13.85 10.7083C13.95 10.825 14 10.9556 14 11.1V13.8C14 14 13.9333 14.1667 13.8 14.3C13.6667 14.4333 13.5 14.5 13.3 14.5ZM4.01667 6.5L5.11667 5.4L4.83333 3.83333H3.35C3.40556 4.28889 3.48333 4.73889 3.58333 5.18333C3.68333 5.62778 3.82778 6.06667 4.01667 6.5ZM9.98333 12.4667C10.4167 12.6556 10.8583 12.8056 11.3083 12.9167C11.7583 13.0278 12.2111 13.1 12.6667 13.1333V11.6667L11.1 11.35L9.98333 12.4667Z" />
    </symbol>

    <symbol viewBox="0 0 18 18" id="header-middle-menu-1">
        <path d="M14.6055 15.4125L9.95547 10.7625L10.743 9.975L15.393 14.625L14.6055 15.4125ZM4.46172 14.6813C3.83672 13.9938 3.37122 13.2312 3.06522 12.3937C2.75872 11.5562 2.60547 10.7 2.60547 9.825C2.60547 8.9 2.78047 7.99675 3.13047 7.11525C3.48047 6.23425 4.00547 5.44375 4.70547 4.74375C5.41797 4.03125 6.21797 3.5 7.10547 3.15C7.99297 2.8 8.89297 2.625 9.80547 2.625C10.6805 2.625 11.5337 2.778 12.3652 3.084C13.1962 3.3905 13.9617 3.8625 14.6617 4.5L4.46172 14.6813ZM4.59297 12.9562L5.77422 11.775C5.57422 11.5 5.38047 11.2155 5.19297 10.9215C5.00547 10.628 4.83672 10.325 4.68672 10.0125C4.53672 9.7 4.41172 9.375 4.31172 9.0375C4.21172 8.7 4.13672 8.35625 4.08672 8.00625C3.78672 8.83125 3.68372 9.675 3.77772 10.5375C3.87122 11.4 4.14297 12.2062 4.59297 12.9562ZM6.59922 10.9688L10.9492 6.58125C10.4117 6.16875 9.86797 5.8405 9.31797 5.5965C8.76797 5.353 8.24922 5.1875 7.76172 5.1C7.27422 5.0125 6.83372 5.00625 6.44022 5.08125C6.04622 5.15625 5.74297 5.3 5.53047 5.5125C5.30547 5.7375 5.15872 6.047 5.09022 6.441C5.02122 6.8345 5.02722 7.275 5.10822 7.7625C5.18972 8.25 5.35547 8.76875 5.60547 9.31875C5.85547 9.86875 6.18672 10.4187 6.59922 10.9688ZM11.7555 5.79375L12.9742 4.6125C12.1992 4.15 11.3805 3.875 10.518 3.7875C9.65547 3.7 8.81172 3.8 7.98672 4.0875C8.34922 4.1375 8.69622 4.2155 9.02772 4.3215C9.35872 4.428 9.68372 4.553 10.0027 4.6965C10.3212 4.8405 10.6242 5.00625 10.9117 5.19375C11.1992 5.38125 11.4805 5.58125 11.7555 5.79375Z" />
    </symbol>

    <symbol viewBox="0 0 18 18" id="header-middle-menu-2">
        <path d="M1.875 6.7875V4.725C1.875 4.35 2.00625 4.03125 2.26875 3.76875C2.53125 3.50625 2.85 3.375 3.225 3.375H14.775C15.15 3.375 15.4688 3.50625 15.7313 3.76875C15.9938 4.03125 16.125 4.35 16.125 4.725V9H15V4.725C15 4.675 14.975 4.625 14.925 4.575C14.875 4.525 14.825 4.5 14.775 4.5H3.225C3.175 4.5 3.125 4.525 3.075 4.575C3.025 4.625 3 4.675 3 4.725V6.7875H1.875ZM3.225 14.625C2.85 14.625 2.53125 14.4938 2.26875 14.2313C2.00625 13.9688 1.875 13.65 1.875 13.275V11.2125H3V13.275C3 13.325 3.025 13.375 3.075 13.425C3.125 13.475 3.175 13.5 3.225 13.5H8.25V14.625H3.225ZM13.5 16.5563L12.5062 15.7125C11.4437 14.8 10.7595 14.15 10.4535 13.7625C10.147 13.375 9.99375 12.9812 9.99375 12.5812C9.99375 12.0812 10.1687 11.65 10.5187 11.2875C10.8687 10.925 11.3 10.7437 11.8125 10.7437C12.0875 10.7437 12.35 10.8062 12.6 10.9312C12.85 11.0563 13.075 11.2437 13.275 11.4937L13.5 11.6812L13.7062 11.4937C13.9062 11.2562 14.1312 11.0717 14.3812 10.9402C14.6312 10.8092 14.9 10.7437 15.1875 10.7437C15.6875 10.7437 16.1155 10.925 16.4715 11.2875C16.828 11.65 17.0062 12.0812 17.0062 12.5812C17.0062 12.9812 16.85 13.375 16.5375 13.7625C16.225 14.15 15.5375 14.8 14.475 15.7125L13.5 16.5563ZM13.5 15.0563L14.0625 14.6063C14.8125 13.9563 15.303 13.5062 15.534 13.2562C15.7655 13.0062 15.8812 12.7812 15.8812 12.5812C15.8812 12.3937 15.8125 12.228 15.675 12.084C15.5375 11.9405 15.375 11.8687 15.1875 11.8687C15.075 11.8687 14.9688 11.8938 14.8688 11.9438C14.7688 11.9938 14.6562 12.075 14.5312 12.1875L13.5 13.1813L12.45 12.1875C12.325 12.075 12.2125 11.9938 12.1125 11.9438C12.0125 11.8938 11.9125 11.8687 11.8125 11.8687C11.6125 11.8687 11.447 11.9405 11.316 12.084C11.1845 12.228 11.1187 12.3937 11.1187 12.5812C11.1187 12.7687 11.2405 12.997 11.484 13.266C11.728 13.5345 12.2188 13.9813 12.9562 14.6063L13.5 15.0563ZM5.25 12.5625C5.1375 12.5625 5.0375 12.5375 4.95 12.4875C4.8625 12.4375 4.79375 12.3625 4.74375 12.2625L3.39375 9.5625H1.875V8.4375H3.75C3.85 8.4375 3.94375 8.46575 4.03125 8.52225C4.11875 8.57825 4.1875 8.65625 4.2375 8.75625L5.25 10.7437L7.74375 5.75625C7.79375 5.65625 7.86575 5.58425 7.95975 5.54025C8.05325 5.49675 8.15 5.475 8.25 5.475C8.35 5.475 8.447 5.49675 8.541 5.54025C8.6345 5.58425 8.70625 5.65625 8.75625 5.75625L10.0875 8.4375H12.5625V9.5625H9.75C9.6375 9.5625 9.5375 9.5375 9.45 9.4875C9.3625 9.4375 9.29375 9.3625 9.24375 9.2625L8.25 7.275L5.7375 12.2625C5.6875 12.3625 5.61875 12.4375 5.53125 12.4875C5.44375 12.5375 5.35 12.5625 5.25 12.5625Z" />
    </symbol>

    <symbol viewBox="0 0 18 18" id="header-middle-menu-3">
        <path d="M7.53711 15.5813V11.3626L8.58711 8.4001C8.62461 8.3001 8.68711 8.21885 8.77461 8.15635C8.86211 8.09385 8.97461 8.0626 9.11211 8.0626H14.5121C14.6496 8.0626 14.7651 8.09385 14.8586 8.15635C14.9526 8.21885 15.0121 8.3001 15.0371 8.4001L16.0871 11.3626V15.5813C16.0871 15.6938 16.0466 15.7876 15.9656 15.8626C15.8841 15.9376 15.7871 15.9751 15.6746 15.9751H15.3559C15.2434 15.9751 15.1496 15.9376 15.0746 15.8626C14.9996 15.7876 14.9621 15.6938 14.9621 15.5813V14.7751H8.66211V15.5813C8.66211 15.6938 8.62461 15.7876 8.54961 15.8626C8.47461 15.9376 8.38086 15.9751 8.26836 15.9751H7.94961C7.83711 15.9751 7.74036 15.9376 7.65936 15.8626C7.57786 15.7876 7.53711 15.6938 7.53711 15.5813ZM8.75586 10.6313H14.8684L14.2871 8.9626H9.33711L8.75586 10.6313ZM9.59961 13.3876C9.79961 13.3876 9.96536 13.3188 10.0969 13.1813C10.2279 13.0438 10.2934 12.8751 10.2934 12.6751C10.2934 12.4751 10.2279 12.3063 10.0969 12.1688C9.96536 12.0313 9.79961 11.9626 9.59961 11.9626C9.39961 11.9626 9.23086 12.0313 9.09336 12.1688C8.95586 12.3063 8.88711 12.4751 8.88711 12.6751C8.88711 12.8751 8.95586 13.0438 9.09336 13.1813C9.23086 13.3188 9.39961 13.3876 9.59961 13.3876ZM14.0246 13.3876C14.2246 13.3876 14.3934 13.3188 14.5309 13.1813C14.6684 13.0438 14.7371 12.8751 14.7371 12.6751C14.7371 12.4751 14.6684 12.3063 14.5309 12.1688C14.3934 12.0313 14.2246 11.9626 14.0246 11.9626C13.8246 11.9626 13.6591 12.0313 13.5281 12.1688C13.3966 12.3063 13.3309 12.4751 13.3309 12.6751C13.3309 12.8751 13.3966 13.0438 13.5281 13.1813C13.6591 13.3188 13.8246 13.3876 14.0246 13.3876ZM4.63086 9.9751V8.6626H5.96211V9.9751H4.63086ZM8.00586 5.8501V4.5376H9.33711V5.8501H8.00586ZM4.63086 12.9751V11.6626H5.96211V12.9751H4.63086ZM4.63086 15.9751V14.6626H5.96211V15.9751H4.63086ZM1.91211 15.9751V5.94385H5.28711V1.81885H12.0371V6.46885H10.9121V2.94385H6.41211V7.06885H3.03711V15.9751H1.91211ZM8.43711 13.8938H15.1871V11.5313H8.43711V13.8938Z" />
    </symbol>

    <symbol viewBox="0 0 18 18" id="header-middle-menu-4">
        <path d="M4.0125 16.1252V9.2252L3.75 8.9627C3.625 8.8377 3.53125 8.69394 3.46875 8.53145C3.40625 8.36895 3.375 8.2002 3.375 8.0252C3.375 7.8502 3.40625 7.68445 3.46875 7.52795C3.53125 7.37195 3.625 7.23145 3.75 7.10645L6.15 4.6877H8.9625L11.8875 1.7627L13.2938 3.16895C13.7813 3.65645 14.153 4.20645 14.409 4.81895C14.6655 5.43145 14.7938 6.0752 14.7938 6.7502C14.7938 7.4252 14.6655 8.06895 14.409 8.68145C14.153 9.29395 13.7813 9.84394 13.2938 10.3314L11.7 11.9252V16.1252H4.0125ZM5.1375 15.0002H10.575V11.4564L12.4875 9.54395C12.8625 9.15645 13.153 8.72519 13.359 8.2502C13.5655 7.7752 13.6688 7.2752 13.6688 6.7502C13.6688 6.2252 13.5655 5.7282 13.359 5.2592C13.153 4.7907 12.8625 4.3627 12.4875 3.9752L11.8875 3.35645L9.43125 5.8127H6.61875L6 6.43145L7.3875 7.81895C7.725 8.15645 7.98425 8.54069 8.16525 8.97169C8.34675 9.40319 8.4375 9.85644 8.4375 10.3314C8.4375 10.7689 8.3595 11.1939 8.2035 11.6064C8.047 12.0189 7.81875 12.3877 7.51875 12.7127L5.1375 10.3502V15.0002Z" />
    </symbol>

    <symbol viewBox="0 0 18 18" id="header-middle-btn-1">
        <path d="M6 8.15625C6.1875 8.15625 6.34375 8.09375 6.46875 7.96875C6.59375 7.84375 6.65625 7.6875 6.65625 7.5C6.65625 7.3125 6.59375 7.15625 6.46875 7.03125C6.34375 6.90625 6.1875 6.84375 6 6.84375C5.8125 6.84375 5.65625 6.90625 5.53125 7.03125C5.40625 7.15625 5.34375 7.3125 5.34375 7.5C5.34375 7.6875 5.40625 7.84375 5.53125 7.96875C5.65625 8.09375 5.8125 8.15625 6 8.15625ZM9 8.15625C9.1875 8.15625 9.34375 8.09375 9.46875 7.96875C9.59375 7.84375 9.65625 7.6875 9.65625 7.5C9.65625 7.3125 9.59375 7.15625 9.46875 7.03125C9.34375 6.90625 9.1875 6.84375 9 6.84375C8.8125 6.84375 8.65625 6.90625 8.53125 7.03125C8.40625 7.15625 8.34375 7.3125 8.34375 7.5C8.34375 7.6875 8.40625 7.84375 8.53125 7.96875C8.65625 8.09375 8.8125 8.15625 9 8.15625ZM12 8.15625C12.1875 8.15625 12.3438 8.09375 12.4688 7.96875C12.5938 7.84375 12.6562 7.6875 12.6562 7.5C12.6562 7.3125 12.5938 7.15625 12.4688 7.03125C12.3438 6.90625 12.1875 6.84375 12 6.84375C11.8125 6.84375 11.6562 6.90625 11.5312 7.03125C11.4062 7.15625 11.3438 7.3125 11.3438 7.5C11.3438 7.6875 11.4062 7.84375 11.5312 7.96875C11.6562 8.09375 11.8125 8.15625 12 8.15625ZM1.875 15.7875V3.225C1.875 2.85 2.00625 2.53125 2.26875 2.26875C2.53125 2.00625 2.85 1.875 3.225 1.875H14.775C15.15 1.875 15.4688 2.00625 15.7313 2.26875C15.9938 2.53125 16.125 2.85 16.125 3.225V11.775C16.125 12.15 15.9938 12.4688 15.7313 12.7313C15.4688 12.9938 15.15 13.125 14.775 13.125H4.5375L1.875 15.7875ZM3 13.0687L4.06875 12H14.775C14.8375 12 14.8907 11.978 14.9347 11.934C14.9783 11.8905 15 11.8375 15 11.775V3.225C15 3.1625 14.9783 3.10925 14.9347 3.06525C14.8907 3.02175 14.8375 3 14.775 3H3.225C3.1625 3 3.1095 3.02175 3.066 3.06525C3.022 3.10925 3 3.1625 3 3.225V13.0687ZM3 3.225V3V13.0687V3.225Z" />
    </symbol>

    <symbol viewBox="0 0 18 18" id="header-middle-btn-2">
        <path d="M8.4375 12.5625H9.5625V9.5625H12.5625V8.4375H9.5625V5.4375H8.4375V8.4375H5.4375V9.5625H8.4375V12.5625ZM9 16.125C8.0125 16.125 7.0845 15.9375 6.216 15.5625C5.347 15.1875 4.59375 14.6813 3.95625 14.0438C3.31875 13.4062 2.8125 12.653 2.4375 11.784C2.0625 10.9155 1.875 9.9875 1.875 9C1.875 8.0125 2.0625 7.08425 2.4375 6.21525C2.8125 5.34675 3.31875 4.59375 3.95625 3.95625C4.59375 3.31875 5.347 2.8125 6.216 2.4375C7.0845 2.0625 8.0125 1.875 9 1.875C9.9875 1.875 10.9158 2.0625 11.7847 2.4375C12.6532 2.8125 13.4062 3.31875 14.0438 3.95625C14.6813 4.59375 15.1875 5.34675 15.5625 6.21525C15.9375 7.08425 16.125 8.0125 16.125 9C16.125 9.9875 15.9375 10.9155 15.5625 11.784C15.1875 12.653 14.6813 13.4062 14.0438 14.0438C13.4062 14.6813 12.6532 15.1875 11.7847 15.5625C10.9158 15.9375 9.9875 16.125 9 16.125ZM9 15C10.675 15 12.0937 14.4187 13.2562 13.2562C14.4187 12.0937 15 10.675 15 9C15 7.325 14.4187 5.90625 13.2562 4.74375C12.0937 3.58125 10.675 3 9 3C7.325 3 5.90625 3.58125 4.74375 4.74375C3.58125 5.90625 3 7.325 3 9C3 10.675 3.58125 12.0937 4.74375 13.2562C5.90625 14.4187 7.325 15 9 15Z" />
    </symbol>

    <symbol viewBox="0 0 16 16" id="nav-btn-activation">
        <path d="M7.99999 14.6666C11.6819 14.6666 14.6667 11.6818 14.6667 7.99992C14.6667 4.31802 11.6819 1.33325 7.99999 1.33325C4.3181 1.33325 1.33333 4.31802 1.33333 7.99992C1.33333 11.6818 4.3181 14.6666 7.99999 14.6666Z" stroke-linecap="round" stroke-linejoin="round" />
        <path d="M8 5.33325V10.6666" stroke-linecap="round" stroke-linejoin="round" />
        <path d="M5.33333 8H10.6667" stroke-linecap="round" stroke-linejoin="round" />
    </symbol>

    <symbol viewBox="0 0 16 19" id="breadcrumbs">
        <path fill-rule="evenodd" clip-rule="evenodd" d="M11.795 10.9714C12.0683 10.7111 12.0683 10.2889 11.795 10.0286L6.19498 4.69526C5.92161 4.43491 5.47839 4.43491 5.20503 4.69526C4.93166 4.95561 4.93166 5.37772 5.20503 5.63807L10.3101 10.5L5.20503 15.3619C4.93166 15.6223 4.93166 16.0444 5.20503 16.3047C5.47839 16.5651 5.92161 16.5651 6.19497 16.3047L11.795 10.9714Z" />
    </symbol>

    <symbol viewBox="0 0 16 16" id="gallery-prev">
        <path fill-rule="evenodd" clip-rule="evenodd" d="M4.20503 8.4714C3.93166 8.21105 3.93166 7.78895 4.20503 7.5286L9.80502 2.19526C10.0784 1.93491 10.5216 1.93491 10.795 2.19526C11.0683 2.45561 11.0683 2.87772 10.795 3.13807L5.68995 8L10.795 12.8619C11.0683 13.1223 11.0683 13.5444 10.795 13.8047C10.5216 14.0651 10.0784 14.0651 9.80503 13.8047L4.20503 8.4714Z" />
    </symbol>

    <symbol viewBox="0 0 16 16" id="gallery-next">
        <path fill-rule="evenodd" clip-rule="evenodd" d="M11.795 8.4714C12.0683 8.21105 12.0683 7.78895 11.795 7.5286L6.19498 2.19526C5.92161 1.93491 5.47839 1.93491 5.20503 2.19526C4.93166 2.45561 4.93166 2.87772 5.20503 3.13807L10.3101 8L5.20503 12.8619C4.93166 13.1223 4.93166 13.5444 5.20503 13.8047C5.47839 14.0651 5.92161 14.0651 6.19497 13.8047L11.795 8.4714Z" />
    </symbol>

    <symbol viewBox="0 0 16 19" id="doc-icon">
        <path fill-rule="evenodd" clip-rule="evenodd" d="M8.66667 3.6665H4C2.91067 3.6665 2 4.57717 2 5.6665V16.3332C2 16.8636 2.21071 17.3723 2.58579 17.7474C2.96086 18.1225 3.46957 18.3332 4 18.3332H12C12.5304 18.3332 13.0391 18.1225 13.4142 17.7474C13.7893 17.3723 14 16.8636 14 16.3332V8.99984C14 8.82085 13.9295 8.65834 13.8147 8.53859C13.8114 8.53517 13.8081 8.53179 13.8047 8.52843L9.13847 3.86216L9.13807 3.86177C9.01305 3.73674 8.84348 3.6665 8.66667 3.6665ZM8 4.99984H4C3.64638 4.99984 3.33333 5.31288 3.33333 5.6665V16.3332C3.33333 16.51 3.40357 16.6796 3.5286 16.8046C3.65362 16.9296 3.82319 16.9998 4 16.9998H12C12.1768 16.9998 12.3464 16.9296 12.4714 16.8046C12.5964 16.6796 12.6667 16.51 12.6667 16.3332V9.6665H8.66667C8.29848 9.6665 8 9.36803 8 8.99984V4.99984ZM11.7239 8.33317L9.33333 5.94265V8.33317H11.7239Z" />
    </symbol>

    <symbol viewBox="0 0 32 32" id="footer-social-vk">
        <path fill-rule="evenodd" clip-rule="evenodd" d="M0 16C0 7.16344 7.16344 0 16 0C24.8366 0 32 7.16344 32 16C32 24.8366 24.8366 32 16 32C7.16344 32 0 24.8366 0 16ZM16.837 21.2507C16.837 21.2507 17.145 21.2171 17.3028 21.0508C17.4472 20.8984 17.4422 20.6108 17.4422 20.6108C17.4422 20.6108 17.423 19.2678 18.0582 19.0696C18.6842 18.8745 19.4881 20.3683 20.3412 20.9426C20.9856 21.3769 21.4747 21.2819 21.4747 21.2819L23.7544 21.2507C23.7544 21.2507 24.9464 21.1786 24.3813 20.2585C24.3345 20.1831 24.0516 19.5776 22.6868 18.3338C21.2569 17.0318 21.4489 17.2424 23.1701 14.9899C24.2185 13.6183 24.6375 12.7809 24.5065 12.4228C24.3821 12.0803 23.6108 12.1713 23.6108 12.1713L21.0449 12.1869C21.0449 12.1869 20.8545 12.1615 20.7135 12.2442C20.5757 12.3253 20.4864 12.5146 20.4864 12.5146C20.4864 12.5146 20.0807 13.5757 19.539 14.4786C18.3963 16.3828 17.9397 16.4836 17.7527 16.3656C17.3178 16.0895 17.4263 15.2579 17.4263 14.6671C17.4263 12.821 17.7118 12.0517 16.8712 11.8526C16.5924 11.7862 16.3871 11.7428 15.6734 11.7354C14.7577 11.7264 13.983 11.7387 13.544 11.9492C13.2518 12.0894 13.0264 12.4024 13.1642 12.4204C13.3336 12.4425 13.7176 12.522 13.9213 12.794C14.1842 13.1455 14.175 13.9338 14.175 13.9338C14.175 13.9338 14.3261 16.1067 13.8219 16.3763C13.4763 16.5615 13.0022 16.1837 11.983 14.4557C11.4613 13.5708 11.0673 12.5924 11.0673 12.5924C11.0673 12.5924 10.9914 12.4097 10.8553 12.3114C10.6908 12.1926 10.4613 12.1557 10.4613 12.1557L8.02305 12.1713C8.02305 12.1713 7.6566 12.1811 7.52221 12.3376C7.40284 12.4761 7.51303 12.7637 7.51303 12.7637C7.51303 12.7637 9.42206 17.1481 11.584 19.358C13.5665 21.3835 15.8169 21.2507 15.8169 21.2507H16.837Z" />
    </symbol>

    <symbol viewBox="0 0 33 32" id="footer-social-dzen">
        <path fill-rule="evenodd" clip-rule="evenodd" d="M1.44434 16.0689C7.63858 15.9968 11.1044 15.5837 13.4125 13.2353C15.7189 10.8853 16.1246 7.35487 16.197 1.048C8.12006 1.21126 1.60467 7.84659 1.44434 16.0689ZM17.096 1.05664C17.1671 7.3581 17.5735 10.8864 19.8805 13.2353C22.1508 15.5469 25.5459 15.984 31.5594 16.0657C31.3993 7.94328 25.0362 1.37029 17.096 1.05664ZM31.5508 16.9891C25.5426 17.0711 22.1497 17.5088 19.8805 19.8193C17.6096 22.1314 17.1797 25.5861 17.0992 31.7019C24.9413 31.3905 31.2442 24.9749 31.5508 16.9891ZM16.1923 31.7106C16.112 25.5893 15.6828 22.1325 13.4125 19.8193C11.1055 17.472 7.64177 17.0582 1.45287 16.9859C1.76156 25.0707 8.21466 31.5468 16.1923 31.7106Z" />
    </symbol>

    <symbol viewBox="0 0 32 33" id="footer-social-store">
        <path fill-rule="evenodd" clip-rule="evenodd" d="M2.24946 30.0445C4.49892 32.294 8.11957 32.294 15.36 32.294H16.64C23.8804 32.294 27.5011 32.294 29.7505 30.0445C32 27.7951 32 24.1744 32 16.934V15.654C32 8.41272 32 4.79293 29.7505 2.54347C27.5011 0.294006 23.8804 0.294006 16.64 0.294006H15.36C8.11957 0.294006 4.49892 0.294006 2.24946 2.54347C0 4.79293 0 8.41272 0 15.654V16.934C0 24.1744 0 27.7951 2.24946 30.0445ZM24.7054 21.5637L22.5428 21.0252C22.4157 20.9884 22.3034 20.9123 22.2221 20.8079C22.1409 20.7034 22.0947 20.576 22.0903 20.4437L21.8202 12.4858C21.7428 11.4329 20.96 10.5934 20.1437 10.3482C20.1212 10.3417 20.0972 10.3426 20.0753 10.3506C20.0533 10.3586 20.0345 10.3735 20.0215 10.3929C20.0086 10.4127 20.0037 10.4367 20.0076 10.4599C20.0116 10.4832 20.0243 10.5041 20.043 10.5185C20.2788 10.7019 20.4695 10.9368 20.6007 11.2051C20.7319 11.4735 20.8001 11.7682 20.8 12.0669V22.4755C20.7994 22.7109 20.7451 22.943 20.6413 23.1542C20.5375 23.3654 20.3869 23.5502 20.201 23.6945C20.015 23.8388 19.7986 23.9388 19.5683 23.987C19.3379 24.0351 19.0995 24.0301 18.8714 23.9723L16.6753 23.4243C16.5555 23.3821 16.4513 23.3048 16.3763 23.2024C16.3012 23.1001 16.2588 22.9774 16.2546 22.8506L15.9845 14.8919C15.9071 13.839 15.1243 12.9994 14.308 12.7542C14.2855 12.7477 14.2615 12.7486 14.2396 12.7566C14.2176 12.7647 14.1988 12.7795 14.1858 12.799C14.1729 12.8187 14.168 12.8427 14.1719 12.866C14.1759 12.8892 14.1886 12.9102 14.2073 12.9245C14.442 13.1059 14.6324 13.3382 14.7641 13.6039C14.8959 13.8696 14.9655 14.1617 14.9677 14.4583V24.8669C14.9673 25.1024 14.9131 25.3347 14.8093 25.5462C14.7055 25.7576 14.5548 25.9425 14.3688 26.0869C14.1827 26.2314 13.9662 26.3314 13.7356 26.3795C13.5051 26.4276 13.2666 26.4225 13.0383 26.3645L6.83183 24.8101C6.41378 24.7064 6.0424 24.4659 5.77667 24.1269C5.51093 23.788 5.3661 23.3699 5.36516 22.9392V12.5211C5.3658 12.2857 5.42008 12.0536 5.52389 11.8424C5.62769 11.6312 5.77828 11.4464 5.96421 11.3021C6.15014 11.1578 6.36652 11.0578 6.5969 11.0096C6.82729 10.9615 7.06561 10.9665 7.29376 11.0243L11.2017 12.0007V10.122C11.2024 9.88661 11.2566 9.65449 11.3604 9.44326C11.4642 9.23203 11.6148 9.04725 11.8008 8.90295C11.9867 8.75865 12.2031 8.65863 12.4335 8.6105C12.6638 8.56237 12.9022 8.5674 13.1303 8.62519L17.0374 9.60067V7.72196C17.0387 7.48697 17.0935 7.25535 17.1976 7.04467C17.3016 6.83398 17.4523 6.64974 17.6382 6.50592C17.824 6.3621 18.0401 6.26247 18.2702 6.21458C18.5003 6.16668 18.7382 6.17178 18.966 6.22949L25.1682 7.77788C25.5855 7.88231 25.956 8.12309 26.2209 8.46203C26.4858 8.80097 26.63 9.21866 26.6305 9.64884V20.0669C26.6298 20.3019 26.5755 20.5336 26.4719 20.7445C26.3683 20.9554 26.2181 21.14 26.0325 21.2842C25.847 21.4285 25.6311 21.5286 25.4012 21.577C25.1712 21.6254 24.9333 21.6209 24.7054 21.5637Z" />
    </symbol>

    <symbol viewBox="0 0 16 16" id="footer-hotline">
        <path d="M14.6665 11.2802V13.2802C14.6672 13.4659 14.6292 13.6497 14.5548 13.8198C14.4804 13.9899 14.3713 14.1426 14.2345 14.2681C14.0977 14.3937 13.9362 14.4892 13.7603 14.5487C13.5844 14.6082 13.398 14.6303 13.2131 14.6136C11.1617 14.3907 9.19113 13.6897 7.45979 12.5669C5.84901 11.5433 4.48335 10.1777 3.45979 8.56689C2.33311 6.8277 1.63195 4.84756 1.41313 2.78689C1.39647 2.60254 1.41838 2.41673 1.47746 2.24131C1.53654 2.06589 1.63151 1.90469 1.7563 1.76797C1.8811 1.63126 2.033 1.52203 2.20232 1.44724C2.37164 1.37245 2.55469 1.33374 2.73979 1.33356H4.73979C5.06333 1.33038 5.37699 1.44495 5.6223 1.65592C5.86761 1.86689 6.02784 2.15986 6.07313 2.48023C6.15754 3.12027 6.31409 3.74871 6.53979 4.35356C6.62949 4.59218 6.6489 4.8515 6.59573 5.10081C6.54256 5.35012 6.41903 5.57897 6.23979 5.76023L5.39313 6.60689C6.34216 8.27592 7.7241 9.65786 9.39313 10.6069L10.2398 9.76023C10.4211 9.58099 10.6499 9.45746 10.8992 9.40429C11.1485 9.35112 11.4078 9.37053 11.6465 9.46023C12.2513 9.68593 12.8797 9.84248 13.5198 9.92689C13.8436 9.97258 14.1394 10.1357 14.3508 10.3852C14.5622 10.6348 14.6746 10.9533 14.6665 11.2802Z" stroke-linecap="round" stroke-linejoin="round" />
    </symbol>

    <symbol viewBox="0 0 24 24" id="footer-menu">
        <path d="M11.9995 15.0534L6.3457 9.39953L7.39953 8.3457L11.9995 12.9457L16.5995 8.3457L17.6534 9.39953L11.9995 15.0534Z" />
    </symbol>

    <symbol viewBox="0 0 16 17" id="footer-submenu">
        <path d="M7.99969 11.5352L4.23047 7.76603L4.93302 7.06348L7.99969 10.1301L11.0664 7.06348L11.7689 7.76603L7.99969 11.5352Z" />
    </symbol>

    <symbol viewBox="0 0 43 43" id="window-close">
        <path d="M11.4667 33.4215L9.57861 31.5334L19.6119 21.5001L9.57861 11.4667L11.4667 9.57861L21.5001 19.6119L31.5334 9.57861L33.4215 11.4667L23.3882 21.5001L33.4215 31.5334L31.5334 33.4215L21.5001 23.3882L11.4667 33.4215Z" />
    </symbol>

    <symbol viewBox="0 0 16 17" id="cart-icon">
        <path d="M5.99992 15.1663C6.36811 15.1663 6.66659 14.8679 6.66659 14.4997C6.66659 14.1315 6.36811 13.833 5.99992 13.833C5.63173 13.833 5.33325 14.1315 5.33325 14.4997C5.33325 14.8679 5.63173 15.1663 5.99992 15.1663Z" stroke-width="1.33333" stroke-linecap="round" stroke-linejoin="round" />
        <path d="M13.3334 15.1663C13.7016 15.1663 14.0001 14.8679 14.0001 14.4997C14.0001 14.1315 13.7016 13.833 13.3334 13.833C12.9652 13.833 12.6667 14.1315 12.6667 14.4997C12.6667 14.8679 12.9652 15.1663 13.3334 15.1663Z" stroke-width="1.33333" stroke-linecap="round" stroke-linejoin="round" />
        <path d="M0.666748 1.1665H3.33341L5.12008 10.0932C5.18104 10.4001 5.34802 10.6758 5.59178 10.872C5.83554 11.0683 6.14055 11.1725 6.45342 11.1665H12.9334C13.2463 11.1725 13.5513 11.0683 13.7951 10.872C14.0388 10.6758 14.2058 10.4001 14.2667 10.0932L15.3334 4.49984H4.00008" stroke-width="1.33333" stroke-linecap="round" stroke-linejoin="round" />
    </symbol>

    <symbol viewBox="0 0 18 19" id="cart-icon-nav">
        <path d="M6.91699 14.1666C6.68783 14.1666 6.49164 14.085 6.32845 13.9218C6.16526 13.7586 6.08366 13.5624 6.08366 13.3333C6.08366 13.1041 6.16526 12.9079 6.32845 12.7447C6.49164 12.5815 6.68783 12.4999 6.91699 12.4999C7.14616 12.4999 7.34234 12.5815 7.50553 12.7447C7.66873 12.9079 7.75033 13.1041 7.75033 13.3333C7.75033 13.5624 7.66873 13.7586 7.50553 13.9218C7.34234 14.085 7.14616 14.1666 6.91699 14.1666ZM11.0837 14.1666C10.8545 14.1666 10.6583 14.085 10.4951 13.9218C10.3319 13.7586 10.2503 13.5624 10.2503 13.3333C10.2503 13.1041 10.3319 12.9079 10.4951 12.7447C10.6583 12.5815 10.8545 12.4999 11.0837 12.4999C11.3128 12.4999 11.509 12.5815 11.6722 12.7447C11.8354 12.9079 11.917 13.1041 11.917 13.3333C11.917 13.5624 11.8354 13.7586 11.6722 13.9218C11.509 14.085 11.3128 14.1666 11.0837 14.1666ZM6.56283 7.49992L7.56283 9.58325H10.4795L11.6253 7.49992H6.56283ZM6.16699 6.66659H12.3128C12.4725 6.66659 12.5941 6.73777 12.6774 6.88013C12.7607 7.02249 12.7642 7.16659 12.6878 7.31242L11.2087 9.97908C11.1323 10.118 11.0298 10.2256 10.9014 10.302C10.7729 10.3784 10.6323 10.4166 10.4795 10.4166H7.37533L6.91699 11.2499H11.917V12.0833H6.91699C6.60449 12.0833 6.36838 11.9461 6.20866 11.6718C6.04894 11.3975 6.04199 11.1249 6.18783 10.8541L6.75033 9.83325L5.25033 6.66659H4.41699V5.83325H5.77116L6.16699 6.66659Z" />
    </symbol>

    <symbol viewBox="0 0 50 50" id="how-step-1">
        <circle opacity="0.1" cx="25" cy="25" r="25" fill="#3E3E59" />
        <path d="M25 6C25 4.34315 26.3493 2.97899 27.9908 3.20423C30.8036 3.5902 33.5248 4.51841 36 5.94744C39.3444 7.87834 42.1217 10.6556 44.0526 14C45.9835 17.3444 47 21.1382 47 25C47 27.8581 46.4432 30.6789 45.3711 33.3078C44.7454 34.842 42.8894 35.3284 41.4545 34.5L26.5 25.866C25.5718 25.3301 25 24.3397 25 23.2679V6Z" fill="white" />
    </symbol>

    <symbol viewBox="0 0 50 50" id="how-step-2">
        <circle opacity="0.1" cx="25" cy="25" r="25" fill="#3E3E59" />
        <path d="M25 6C25 4.34315 26.3493 2.97899 27.9908 3.20423C30.8032 3.59015 33.5241 4.51816 35.999 5.94687C39.3432 7.8774 42.1203 10.6541 44.0514 13.998C45.9825 17.3419 46.9994 21.1351 47 24.9965C47.0006 28.858 45.9849 32.6515 44.0549 35.996C42.1248 39.3405 39.3486 42.1181 36.005 44.0497C32.6614 45.9813 28.8683 46.9988 25.0069 47C21.1455 47.0012 17.3518 45.9861 14.007 44.0566C11.5316 42.6287 9.36671 40.7372 7.62534 38.4952C6.60899 37.1867 7.11496 35.3359 8.54949 34.5069L23.5011 25.8662C24.4287 25.3302 25 24.3401 25 23.2688V6Z" fill="white" />
    </symbol>

    <symbol viewBox="0 0 50 50" id="how-step-3">
        <circle opacity="0.1" cx="25" cy="25" r="25" fill="#3E3E59" />
        <circle cx="25" cy="25" r="22" fill="white" />
    </symbol>

    <symbol viewBox="0 0 16 16" id="vacancy-title">
        <path fill-rule="evenodd" clip-rule="evenodd" d="M7.5286 12.5C7.78894 12.7734 8.21105 12.7734 8.4714 12.5L13.8047 6.9C14.0651 6.62663 14.0651 6.18342 13.8047 5.91005C13.5444 5.63668 13.1223 5.63668 12.8619 5.91005L8 11.0151L3.13807 5.91005C2.87772 5.63668 2.45561 5.63668 2.19526 5.91005C1.93491 6.18342 1.93491 6.62663 2.19526 6.9L7.5286 12.5Z" />
    </symbol>

    <symbol viewBox="0 0 32 40" id="product-doc">
        <path d="M2.2857 0H21.7063L32 11.215V37.5C32 38.8812 30.9761 40 29.7143 40H2.2857C1.02395 40 0 38.8812 0 37.5V2.49998C0 1.11877 1.02406 0 2.2857 0Z" fill="#F0F0F7" />
        <path d="M31.9669 11.2497H24C22.7383 11.2497 21.7144 10.1297 21.7144 8.74968V0.0246582L31.9669 11.2497Z" fill="#C7C7D9" />
    </symbol>

    <symbol viewBox="0 0 24 24" id="btn-icon-email">
        <path d="M4.3 19.5C3.8 19.5 3.375 19.325 3.025 18.975C2.675 18.625 2.5 18.2 2.5 17.7V6.3C2.5 5.8 2.675 5.375 3.025 5.025C3.375 4.675 3.8 4.5 4.3 4.5H19.7C20.2 4.5 20.625 4.675 20.975 5.025C21.325 5.375 21.5 5.8 21.5 6.3V17.7C21.5 18.2 21.325 18.625 20.975 18.975C20.625 19.325 20.2 19.5 19.7 19.5H4.3ZM12 12.55L4 7.45V17.7C4 17.7833 4.02933 17.8543 4.088 17.913C4.146 17.971 4.21667 18 4.3 18H19.7C19.7833 18 19.8543 17.971 19.913 17.913C19.971 17.8543 20 17.7833 20 17.7V7.45L12 12.55ZM12 11L19.85 6H4.15L12 11ZM4 7.45V6V17.7C4 17.7833 4.02933 17.8543 4.088 17.913C4.146 17.971 4.21667 18 4.3 18H4V17.7V7.45Z" />
    </symbol>

    <symbol viewBox="0 0 25 24" id="btn-icon-phone">
        <path d="M19.9249 20.45C17.9916 20.45 16.0709 19.9873 14.1629 19.062C12.2542 18.1373 10.5499 16.925 9.0499 15.425C7.5499 13.925 6.33757 12.225 5.4129 10.325C4.48757 8.425 4.0249 6.5 4.0249 4.55C4.0249 4.25 4.1249 4 4.3249 3.8C4.5249 3.6 4.7749 3.5 5.0749 3.5H8.3249C8.59157 3.5 8.82057 3.579 9.0119 3.737C9.2039 3.89567 9.3249 4.1 9.3749 4.35L9.9499 7.3C9.98324 7.55 9.9749 7.775 9.9249 7.975C9.8749 8.175 9.76657 8.35 9.5999 8.5L7.2999 10.75C8.0999 12.0833 9.04557 13.2917 10.1369 14.375C11.2289 15.4583 12.4666 16.4 13.8499 17.2L16.0749 14.95C16.2416 14.7833 16.4376 14.6667 16.6629 14.6C16.8876 14.5333 17.1166 14.5167 17.3499 14.55L20.1249 15.125C20.3749 15.175 20.5792 15.2917 20.7379 15.475C20.8959 15.6583 20.9749 15.8833 20.9749 16.15V19.4C20.9749 19.7 20.8749 19.95 20.6749 20.15C20.4749 20.35 20.2249 20.45 19.9249 20.45ZM6.5999 9.325L8.3749 7.625C8.40824 7.59167 8.42924 7.554 8.4379 7.512C8.4459 7.47067 8.44157 7.43333 8.4249 7.4L7.9999 5.15C7.98324 5.1 7.95824 5.06233 7.9249 5.037C7.89157 5.01233 7.8499 5 7.7999 5H5.6749C5.6249 5 5.58724 5.01233 5.5619 5.037C5.53724 5.06233 5.5249 5.09167 5.5249 5.125C5.5749 5.80833 5.68757 6.504 5.8629 7.212C6.03757 7.92067 6.28324 8.625 6.5999 9.325ZM15.2499 17.9C15.9166 18.2167 16.6082 18.4583 17.3249 18.625C18.0416 18.7917 18.7166 18.8833 19.3499 18.9C19.3832 18.9 19.4126 18.8873 19.4379 18.862C19.4626 18.8373 19.4749 18.8083 19.4749 18.775V16.675C19.4749 16.625 19.4626 16.5833 19.4379 16.55C19.4126 16.5167 19.3749 16.4917 19.3249 16.475L17.2249 16.05C17.1916 16.0333 17.1582 16.0333 17.1249 16.05L17.0249 16.1L15.2499 17.9Z" />
    </symbol>

    <symbol viewBox="0 0 24 24" id="btn-icon-user">
        <path d="M6.025 17.3C6.875 16.6667 7.8 16.1667 8.8 15.8C9.8 15.4333 10.8667 15.25 12 15.25C13.1333 15.25 14.2 15.4333 15.2 15.8C16.2 16.1667 17.125 16.6667 17.975 17.3C18.5917 16.6167 19.0833 15.825 19.45 14.925C19.8167 14.025 20 13.05 20 12C20 9.78333 19.221 7.89567 17.663 6.337C16.1043 4.779 14.2167 4 12 4C9.78333 4 7.896 4.779 6.338 6.337C4.77933 7.89567 4 9.78333 4 12C4 13.05 4.18333 14.025 4.55 14.925C4.91667 15.825 5.40833 16.6167 6.025 17.3ZM12 12.75C11.0833 12.75 10.3127 12.4373 9.688 11.812C9.06267 11.1873 8.75 10.4167 8.75 9.5C8.75 8.58333 9.06267 7.81267 9.688 7.188C10.3127 6.56267 11.0833 6.25 12 6.25C12.9167 6.25 13.6873 6.56267 14.312 7.188C14.9373 7.81267 15.25 8.58333 15.25 9.5C15.25 10.4167 14.9373 11.1873 14.312 11.812C13.6873 12.4373 12.9167 12.75 12 12.75ZM12 21.5C10.6833 21.5 9.446 21.25 8.288 20.75C7.12933 20.25 6.125 19.575 5.275 18.725C4.425 17.875 3.75 16.8707 3.25 15.712C2.75 14.554 2.5 13.3167 2.5 12C2.5 10.6833 2.75 9.44567 3.25 8.287C3.75 7.129 4.425 6.125 5.275 5.275C6.125 4.425 7.12933 3.75 8.288 3.25C9.446 2.75 10.6833 2.5 12 2.5C13.3167 2.5 14.5543 2.75 15.713 3.25C16.871 3.75 17.875 4.425 18.725 5.275C19.575 6.125 20.25 7.129 20.75 8.287C21.25 9.44567 21.5 10.6833 21.5 12C21.5 13.3167 21.25 14.554 20.75 15.712C20.25 16.8707 19.575 17.875 18.725 18.725C17.875 19.575 16.871 20.25 15.713 20.75C14.5543 21.25 13.3167 21.5 12 21.5ZM12 20C12.9 20 13.771 19.854 14.613 19.562C15.4543 19.2707 16.2 18.8667 16.85 18.35C16.2 17.85 15.4623 17.4583 14.637 17.175C13.8123 16.8917 12.9333 16.75 12 16.75C11.0667 16.75 10.1877 16.8877 9.363 17.163C8.53767 17.4377 7.8 17.8333 7.15 18.35C7.8 18.8667 8.54567 19.2707 9.387 19.562C10.229 19.854 11.1 20 12 20ZM12 11.25C12.5 11.25 12.9167 11.0833 13.25 10.75C13.5833 10.4167 13.75 10 13.75 9.5C13.75 9 13.5833 8.58333 13.25 8.25C12.9167 7.91667 12.5 7.75 12 7.75C11.5 7.75 11.0833 7.91667 10.75 8.25C10.4167 8.58333 10.25 9 10.25 9.5C10.25 10 10.4167 10.4167 10.75 10.75C11.0833 11.0833 11.5 11.25 12 11.25Z" />
    </symbol>

    <symbol viewBox="0 0 23 23" id="btn-promo-add">
        <path d="M11.4998 21.0833C16.7926 21.0833 21.0832 16.7927 21.0832 11.5C21.0832 6.20723 16.7926 1.91663 11.4998 1.91663C6.20711 1.91663 1.9165 6.20723 1.9165 11.5C1.9165 16.7927 6.20711 21.0833 11.4998 21.0833Z" stroke-width="1.5" stroke-linecap="round" stroke-linejoin="round" />
        <path d="M11.5 7.66663V15.3333" stroke-width="1.5" stroke-linecap="round" stroke-linejoin="round" />
        <path d="M7.6665 11.5H15.3332" stroke-width="1.5" stroke-linecap="round" stroke-linejoin="round" />
    </symbol>

    <symbol viewBox="0 0 24 24" id="desktop-menu-icon">
        <path d="M12 2.25C6.62402 2.25 2.25 6.62402 2.25 12C2.25 17.376 6.62402 21.75 12 21.75C17.376 21.75 21.75 17.376 21.75 12C21.75 6.62402 17.376 2.25 12 2.25ZM12 3.75C16.5645 3.75 20.25 7.43555 20.25 12C20.25 16.5645 16.5645 20.25 12 20.25C7.43555 20.25 3.75 16.5645 3.75 12C3.75 7.43555 7.43555 3.75 12 3.75ZM11.25 7.5V9H12.75V7.5H11.25ZM11.25 10.5V16.5H12.75V10.5H11.25Z" />
    </symbol>

    <symbol viewBox="0 0 16 17" id="agents-results-item-types-title">
        <path fill-rule="evenodd" clip-rule="evenodd" d="M7.5286 13C7.78894 13.2734 8.21105 13.2734 8.4714 13L13.8047 7.4C14.0651 7.12663 14.0651 6.68342 13.8047 6.41005C13.5444 6.13668 13.1223 6.13668 12.8619 6.41005L8 11.5151L3.13807 6.41005C2.87772 6.13668 2.45561 6.13668 2.19526 6.41005C1.93491 6.68342 1.93491 7.12663 2.19526 7.4L7.5286 13Z" />
    </symbol>

    <symbol viewBox="0 0 30 30" id="nav-add-close">
        <path d="M8 23.75L6.25 22L13.25 15L6.25 8L8 6.25L15 13.25L22 6.25L23.75 8L16.75 15L23.75 22L22 23.75L15 16.75L8 23.75Z" />
    </symbol>

    <symbol viewBox="0 0 16 16" id="news-header-select">
        <path fill-rule="evenodd" clip-rule="evenodd" d="M7.99998 11.0002L4.25246 7.41C3.91715 7.08876 3.91566 6.5646 4.24914 6.24158C4.58133 5.91981 5.11991 5.91981 5.4521 6.24158L8.00003 8.70958L10.5479 6.24162C10.8801 5.91985 11.4187 5.91985 11.7509 6.24162C12.0843 6.56464 12.0829 7.0888 11.7475 7.41004L7.99998 11.0002Z" />
    </symbol>

    <symbol viewBox="0 0 24 24" id="nav-add-item-title-mobile-link">
        <path d="M11.9995 15.0538L6.3457 9.40002L7.39953 8.34619L11.9995 12.9462L16.5995 8.34619L17.6534 9.40002L11.9995 15.0538Z" />
    </symbol>

    <symbol viewBox="0 0 24 24" id="contacts-new-location">
        <path d="M12.0019 11.8654C12.4995 11.8654 12.9249 11.6882 13.2781 11.3339C13.6313 10.9795 13.8079 10.5536 13.8079 10.056C13.8079 9.55839 13.6307 9.133 13.2764 8.7798C12.922 8.4266 12.4961 8.25 11.9985 8.25C11.5009 8.25 11.0755 8.42717 10.7223 8.7815C10.3691 9.13583 10.1925 9.56179 10.1925 10.0594C10.1925 10.557 10.3697 10.9824 10.724 11.3356C11.0784 11.6888 11.5043 11.8654 12.0019 11.8654ZM12.0002 19.5135C13.9566 17.7622 15.4537 16.0824 16.4915 14.474C17.5294 12.8657 18.0483 11.457 18.0483 10.2481C18.0483 8.42498 17.4691 6.92627 16.3108 5.7519C15.1524 4.57753 13.7156 3.99035 12.0002 3.99035C10.2848 3.99035 8.84796 4.57753 7.68962 5.7519C6.53129 6.92627 5.95212 8.42498 5.95212 10.2481C5.95212 11.457 6.47103 12.8657 7.50885 14.474C8.54668 16.0824 10.0438 17.7622 12.0002 19.5135ZM12.0002 21.5096C9.48355 19.3288 7.59637 17.2993 6.33867 15.4211C5.08099 13.5429 4.45215 11.8186 4.45215 10.2481C4.45215 7.94038 5.19862 6.07213 6.69157 4.64328C8.18451 3.21443 9.95405 2.5 12.0002 2.5C14.0463 2.5 15.8159 3.21443 17.3088 4.64328C18.8018 6.07213 19.5482 7.94038 19.5482 10.2481C19.5482 11.8186 18.9194 13.5429 17.6617 15.4211C16.404 17.2993 14.5168 19.3288 12.0002 21.5096Z" />
    </symbol>

    <symbol viewBox="0 0 24 24" id="contacts-new-email">
        <path d="M4.3 19.5C3.8 19.5 3.375 19.325 3.025 18.975C2.675 18.625 2.5 18.2 2.5 17.7V6.3C2.5 5.8 2.675 5.375 3.025 5.025C3.375 4.675 3.8 4.5 4.3 4.5H19.7C20.2 4.5 20.625 4.675 20.975 5.025C21.325 5.375 21.5 5.8 21.5 6.3V17.7C21.5 18.2 21.325 18.625 20.975 18.975C20.625 19.325 20.2 19.5 19.7 19.5H4.3ZM12 12.55L4 7.45V17.7C4 17.7833 4.02933 17.8543 4.088 17.913C4.146 17.971 4.21667 18 4.3 18H19.7C19.7833 18 19.8543 17.971 19.913 17.913C19.971 17.8543 20 17.7833 20 17.7V7.45L12 12.55ZM12 11L19.85 6H4.15L12 11ZM4 7.45V6V17.7C4 17.7833 4.02933 17.8543 4.088 17.913C4.146 17.971 4.21667 18 4.3 18H4V17.7V7.45Z" />
    </symbol>

    <symbol viewBox="0 0 30 30" id="contacts-new-close">
        <path d="M7.9999 23.3173L6.68262 22L13.6826 15L6.68262 7.99999L7.9999 6.68271L14.9999 13.6827L21.9999 6.68271L23.3172 7.99999L16.3172 15L23.3172 22L21.9999 23.3173L14.9999 16.3173L7.9999 23.3173Z" />
    </symbol>

    <symbol viewBox="0 0 48 48" id="contacts-new-mobile-open">
        <path d="M10 29V27H38V29H10ZM10 21V19H38V21H10Z" />
    </symbol>

    <symbol viewBox="0 0 48 48" id="contacts-new-mobile-close">
        <path d="M12.8 36.6153L11.3846 35.1999L22.5846 23.9999L11.3846 12.7999L12.8 11.3845L24 22.5845L35.2 11.3845L36.6154 12.7999L25.4154 23.9999L36.6154 35.1999L35.2 36.6153L24 25.4153L12.8 36.6153Z" />
    </symbol>

    <symbol viewBox="0 0 16 16" id="contacts-new-right-mobile-close">
        <path fill-rule="evenodd" clip-rule="evenodd" d="M4.20503 8.4714C3.93166 8.21105 3.93166 7.78895 4.20503 7.5286L9.80502 2.19526C10.0784 1.93491 10.5216 1.93491 10.795 2.19526C11.0683 2.45561 11.0683 2.87772 10.795 3.13807L5.68995 8L10.795 12.8619C11.0683 13.1223 11.0683 13.5444 10.795 13.8047C10.5216 14.0651 10.0784 14.0651 9.80503 13.8047L4.20503 8.4714Z" />
    </symbol>

    <symbol viewBox="0 0 26 26" id="main-alert-close">
        <path d="M6.93366 20.5834L5.41699 19.0667L11.4837 13.0001L5.41699 6.93341L6.93366 5.41675L13.0003 11.4834L19.067 5.41675L20.5837 6.93341L14.517 13.0001L20.5837 19.0667L19.067 20.5834L13.0003 14.5167L6.93366 20.5834Z" />
    </symbol>

    <symbol viewBox="0 0 24 24" id="instructions-section-top-link">
        <path d="M11.25 15.6923H12.7595V11.1365L14.6095 12.9865L15.6538 11.9423L12.0095 8.298L8.35575 11.9423L9.4 12.9865L11.25 11.1365V15.6923ZM12.0017 21.5C10.6877 21.5 9.45267 21.2507 8.2965 20.752C7.14033 20.2533 6.13467 19.5766 5.2795 18.7218C4.42433 17.8669 3.74725 16.8617 3.24825 15.706C2.74942 14.5503 2.5 13.3156 2.5 12.0017C2.5 10.6877 2.74933 9.45267 3.248 8.2965C3.74667 7.14033 4.42342 6.13467 5.27825 5.2795C6.13308 4.42433 7.13833 3.74725 8.294 3.24825C9.44967 2.74942 10.6844 2.5 11.9983 2.5C13.3123 2.5 14.5473 2.74933 15.7035 3.248C16.8597 3.74667 17.8653 4.42342 18.7205 5.27825C19.5757 6.13308 20.2528 7.13833 20.7518 8.294C21.2506 9.44967 21.5 10.6844 21.5 11.9983C21.5 13.3123 21.2507 14.5473 20.752 15.7035C20.2533 16.8597 19.5766 17.8653 18.7218 18.7205C17.8669 19.5757 16.8617 20.2528 15.706 20.7518C14.5503 21.2506 13.3156 21.5 12.0017 21.5ZM12 20C14.2333 20 16.125 19.225 17.675 17.675C19.225 16.125 20 14.2333 20 12C20 9.76667 19.225 7.875 17.675 6.325C16.125 4.775 14.2333 4 12 4C9.76667 4 7.875 4.775 6.325 6.325C4.775 7.875 4 9.76667 4 12C4 14.2333 4.775 16.125 6.325 17.675C7.875 19.225 9.76667 20 12 20Z" />
    </symbol>

    <symbol viewBox="0 0 42 42" id="instructions-section-notice">
        <path d="M21 31.4102C21.4068 31.4102 21.7478 31.2725 22.0232 30.9972C22.2985 30.7222 22.4362 30.3814 22.4362 29.9746C22.4362 29.5674 22.2985 29.2264 22.0232 28.9514C21.7478 28.6761 21.4068 28.5384 21 28.5384C20.5932 28.5384 20.2522 28.6761 19.9768 28.9514C19.7015 29.2264 19.5638 29.5674 19.5638 29.9746C19.5638 30.3814 19.7015 30.7222 19.9768 30.9972C20.2522 31.2725 20.5932 31.4102 21 31.4102ZM19.8333 23.6921H22.1667V9.69209H19.8333V23.6921ZM21.0076 42C18.1038 42 15.3736 41.4489 12.817 40.3468C10.2608 39.2447 8.03717 37.7491 6.146 35.8598C4.25483 33.9706 2.75781 31.7489 1.65492 29.1947C0.551639 26.6408 0 23.9118 0 21.0076C0 18.1038 0.551055 15.3736 1.65317 12.817C2.75528 10.2608 4.25094 8.03717 6.14017 6.146C8.02939 4.25483 10.2511 2.75781 12.8053 1.65492C15.3592 0.551639 18.0882 0 20.9924 0C23.8962 0 26.6264 0.551057 29.183 1.65317C31.7392 2.75528 33.9628 4.25095 35.854 6.14017C37.7452 8.02939 39.2422 10.2511 40.3451 12.8053C41.4484 15.3592 42 18.0882 42 20.9924C42 23.8962 41.4489 26.6264 40.3468 29.183C39.2447 31.7392 37.7491 33.9628 35.8598 35.854C33.9706 37.7452 31.7489 39.2422 29.1947 40.3451C26.6408 41.4484 23.9118 42 21.0076 42ZM21 39.6667C26.2111 39.6667 30.625 37.8583 34.2417 34.2417C37.8583 30.625 39.6667 26.2111 39.6667 21C39.6667 15.7889 37.8583 11.375 34.2417 7.75833C30.625 4.14167 26.2111 2.33333 21 2.33333C15.7889 2.33333 11.375 4.14167 7.75833 7.75833C4.14167 11.375 2.33333 15.7889 2.33333 21C2.33333 26.2111 4.14167 30.625 7.75833 34.2417C11.375 37.8583 15.7889 39.6667 21 39.6667Z" />
    </symbol>

    <symbol viewBox="0 0 16 17" id="instructions-header-menu-more">
        <path fill-rule="evenodd" clip-rule="evenodd" d="M7.52859 12.0049C7.78894 12.2782 8.21105 12.2782 8.4714 12.0049L13.8047 6.40488C14.0651 6.13152 14.0651 5.6883 13.8047 5.41493C13.5444 5.14157 13.1223 5.14157 12.8619 5.41493L8 10.52L3.13807 5.41493C2.87772 5.14157 2.45561 5.14157 2.19526 5.41493C1.93491 5.6883 1.93491 6.13151 2.19526 6.40488L7.52859 12.0049Z" />
    </symbol>

    <symbol viewBox="0 0 24 24" id="product-prefs">
        <path d="M9.54944 17.6534L4.21484 12.3188L5.28407 11.2496L9.54944 15.515L18.7148 6.34961L19.784 7.41881L9.54944 17.6534Z" />
    </symbol>

</svg>