<svg version="1.1" xmlns="http://www.w3.org/2000/svg" xmlns:xlink="http://www.w3.org/1999/xlink">

    <symbol viewBox="0 0 24 24" id="nav-add-link">
        <path d="M4 6H20" stroke-width="2" stroke-linecap="round" stroke-linejoin="round" />
        <path d="M4 12H20" stroke-width="2" stroke-linecap="round" stroke-linejoin="round" />
        <path d="M4 18H20" stroke-width="2" stroke-linecap="round" stroke-linejoin="round" />
    </symbol>

    <symbol viewBox="0 0 16 17" id="header-user-link">
        <path d="M13.3334 14.5V13.1667C13.3334 12.4594 13.0524 11.7811 12.5523 11.281C12.0522 10.781 11.3739 10.5 10.6667 10.5H5.33335C4.62611 10.5 3.94783 10.781 3.44774 11.281C2.94764 11.7811 2.66669 12.4594 2.66669 13.1667V14.5" stroke-width="1.33333" stroke-linecap="round" stroke-linejoin="round" />
        <path d="M7.99998 7.83333C9.47274 7.83333 10.6666 6.63943 10.6666 5.16667C10.6666 3.69391 9.47274 2.5 7.99998 2.5C6.52722 2.5 5.33331 3.69391 5.33331 5.16667C5.33331 6.63943 6.52722 7.83333 7.99998 7.83333Z" stroke-width="1.33333" stroke-linecap="round" stroke-linejoin="round" />
    </symbol>

    <symbol viewBox="0 0 16 17" id="header-view-link">
        <path d="M0.666656 8.50008C0.666656 8.50008 3.33332 3.16675 7.99999 3.16675C12.6667 3.16675 15.3333 8.50008 15.3333 8.50008C15.3333 8.50008 12.6667 13.8334 7.99999 13.8334C3.33332 13.8334 0.666656 8.50008 0.666656 8.50008Z" stroke-width="1.33333" stroke-linecap="round" stroke-linejoin="round" />
        <path d="M8 10.5C9.10457 10.5 10 9.60457 10 8.5C10 7.39543 9.10457 6.5 8 6.5C6.89543 6.5 6 7.39543 6 8.5C6 9.60457 6.89543 10.5 8 10.5Z" stroke-width="1.33333" stroke-linecap="round" stroke-linejoin="round" />
    </symbol>

    <symbol viewBox="0 0 16 17" id="header-search-link">
        <path d="M7.33333 13.1667C10.2789 13.1667 12.6667 10.7789 12.6667 7.83333C12.6667 4.88781 10.2789 2.5 7.33333 2.5C4.38781 2.5 2 4.88781 2 7.83333C2 10.7789 4.38781 13.1667 7.33333 13.1667Z" stroke-width="1.33333" stroke-linecap="round" stroke-linejoin="round" />
        <path d="M14.0003 14.5003L11.1003 11.6003" stroke-width="1.33333" stroke-linecap="round" stroke-linejoin="round" />
    </symbol>

    <symbol viewBox="0 0 16 16" id="nav-btn-activation">
        <path d="M7.99999 14.6666C11.6819 14.6666 14.6667 11.6818 14.6667 7.99992C14.6667 4.31802 11.6819 1.33325 7.99999 1.33325C4.3181 1.33325 1.33333 4.31802 1.33333 7.99992C1.33333 11.6818 4.3181 14.6666 7.99999 14.6666Z" stroke-linecap="round" stroke-linejoin="round" />
        <path d="M8 5.33325V10.6666" stroke-linecap="round" stroke-linejoin="round" />
        <path d="M5.33333 8H10.6667" stroke-linecap="round" stroke-linejoin="round" />
    </symbol>

    <symbol viewBox="0 0 16 19" id="breadcrumbs">
        <path fill-rule="evenodd" clip-rule="evenodd" d="M11.795 10.9714C12.0683 10.7111 12.0683 10.2889 11.795 10.0286L6.19498 4.69526C5.92161 4.43491 5.47839 4.43491 5.20503 4.69526C4.93166 4.95561 4.93166 5.37772 5.20503 5.63807L10.3101 10.5L5.20503 15.3619C4.93166 15.6223 4.93166 16.0444 5.20503 16.3047C5.47839 16.5651 5.92161 16.5651 6.19497 16.3047L11.795 10.9714Z" />
    </symbol>

    <symbol viewBox="0 0 16 16" id="gallery-prev">
        <path fill-rule="evenodd" clip-rule="evenodd" d="M4.20503 8.4714C3.93166 8.21105 3.93166 7.78895 4.20503 7.5286L9.80502 2.19526C10.0784 1.93491 10.5216 1.93491 10.795 2.19526C11.0683 2.45561 11.0683 2.87772 10.795 3.13807L5.68995 8L10.795 12.8619C11.0683 13.1223 11.0683 13.5444 10.795 13.8047C10.5216 14.0651 10.0784 14.0651 9.80503 13.8047L4.20503 8.4714Z" />
    </symbol>

    <symbol viewBox="0 0 16 16" id="gallery-next">
        <path fill-rule="evenodd" clip-rule="evenodd" d="M11.795 8.4714C12.0683 8.21105 12.0683 7.78895 11.795 7.5286L6.19498 2.19526C5.92161 1.93491 5.47839 1.93491 5.20503 2.19526C4.93166 2.45561 4.93166 2.87772 5.20503 3.13807L10.3101 8L5.20503 12.8619C4.93166 13.1223 4.93166 13.5444 5.20503 13.8047C5.47839 14.0651 5.92161 14.0651 6.19497 13.8047L11.795 8.4714Z" />
    </symbol>

    <symbol viewBox="0 0 16 19" id="doc-icon">
        <path fill-rule="evenodd" clip-rule="evenodd" d="M8.66667 3.6665H4C2.91067 3.6665 2 4.57717 2 5.6665V16.3332C2 16.8636 2.21071 17.3723 2.58579 17.7474C2.96086 18.1225 3.46957 18.3332 4 18.3332H12C12.5304 18.3332 13.0391 18.1225 13.4142 17.7474C13.7893 17.3723 14 16.8636 14 16.3332V8.99984C14 8.82085 13.9295 8.65834 13.8147 8.53859C13.8114 8.53517 13.8081 8.53179 13.8047 8.52843L9.13847 3.86216L9.13807 3.86177C9.01305 3.73674 8.84348 3.6665 8.66667 3.6665ZM8 4.99984H4C3.64638 4.99984 3.33333 5.31288 3.33333 5.6665V16.3332C3.33333 16.51 3.40357 16.6796 3.5286 16.8046C3.65362 16.9296 3.82319 16.9998 4 16.9998H12C12.1768 16.9998 12.3464 16.9296 12.4714 16.8046C12.5964 16.6796 12.6667 16.51 12.6667 16.3332V9.6665H8.66667C8.29848 9.6665 8 9.36803 8 8.99984V4.99984ZM11.7239 8.33317L9.33333 5.94265V8.33317H11.7239Z" />
    </symbol>

    <symbol viewBox="0 0 32 32" id="footer-social-vk">
        <path fill-rule="evenodd" clip-rule="evenodd" d="M0 16C0 7.16344 7.16344 0 16 0C24.8366 0 32 7.16344 32 16C32 24.8366 24.8366 32 16 32C7.16344 32 0 24.8366 0 16ZM16.837 21.2507C16.837 21.2507 17.145 21.2171 17.3028 21.0508C17.4472 20.8984 17.4422 20.6108 17.4422 20.6108C17.4422 20.6108 17.423 19.2678 18.0582 19.0696C18.6842 18.8745 19.4881 20.3683 20.3412 20.9426C20.9856 21.3769 21.4747 21.2819 21.4747 21.2819L23.7544 21.2507C23.7544 21.2507 24.9464 21.1786 24.3813 20.2585C24.3345 20.1831 24.0516 19.5776 22.6868 18.3338C21.2569 17.0318 21.4489 17.2424 23.1701 14.9899C24.2185 13.6183 24.6375 12.7809 24.5065 12.4228C24.3821 12.0803 23.6108 12.1713 23.6108 12.1713L21.0449 12.1869C21.0449 12.1869 20.8545 12.1615 20.7135 12.2442C20.5757 12.3253 20.4864 12.5146 20.4864 12.5146C20.4864 12.5146 20.0807 13.5757 19.539 14.4786C18.3963 16.3828 17.9397 16.4836 17.7527 16.3656C17.3178 16.0895 17.4263 15.2579 17.4263 14.6671C17.4263 12.821 17.7118 12.0517 16.8712 11.8526C16.5924 11.7862 16.3871 11.7428 15.6734 11.7354C14.7577 11.7264 13.983 11.7387 13.544 11.9492C13.2518 12.0894 13.0264 12.4024 13.1642 12.4204C13.3336 12.4425 13.7176 12.522 13.9213 12.794C14.1842 13.1455 14.175 13.9338 14.175 13.9338C14.175 13.9338 14.3261 16.1067 13.8219 16.3763C13.4763 16.5615 13.0022 16.1837 11.983 14.4557C11.4613 13.5708 11.0673 12.5924 11.0673 12.5924C11.0673 12.5924 10.9914 12.4097 10.8553 12.3114C10.6908 12.1926 10.4613 12.1557 10.4613 12.1557L8.02305 12.1713C8.02305 12.1713 7.6566 12.1811 7.52221 12.3376C7.40284 12.4761 7.51303 12.7637 7.51303 12.7637C7.51303 12.7637 9.42206 17.1481 11.584 19.358C13.5665 21.3835 15.8169 21.2507 15.8169 21.2507H16.837Z" />
    </symbol>

    <symbol viewBox="0 0 33 32" id="footer-social-dzen">
        <path fill-rule="evenodd" clip-rule="evenodd" d="M1.44434 16.0689C7.63858 15.9968 11.1044 15.5837 13.4125 13.2353C15.7189 10.8853 16.1246 7.35487 16.197 1.048C8.12006 1.21126 1.60467 7.84659 1.44434 16.0689ZM17.096 1.05664C17.1671 7.3581 17.5735 10.8864 19.8805 13.2353C22.1508 15.5469 25.5459 15.984 31.5594 16.0657C31.3993 7.94328 25.0362 1.37029 17.096 1.05664ZM31.5508 16.9891C25.5426 17.0711 22.1497 17.5088 19.8805 19.8193C17.6096 22.1314 17.1797 25.5861 17.0992 31.7019C24.9413 31.3905 31.2442 24.9749 31.5508 16.9891ZM16.1923 31.7106C16.112 25.5893 15.6828 22.1325 13.4125 19.8193C11.1055 17.472 7.64177 17.0582 1.45287 16.9859C1.76156 25.0707 8.21466 31.5468 16.1923 31.7106Z" />
    </symbol>

    <symbol viewBox="0 0 16 16" id="footer-hotline">
        <path d="M14.6665 11.2802V13.2802C14.6672 13.4659 14.6292 13.6497 14.5548 13.8198C14.4804 13.9899 14.3713 14.1426 14.2345 14.2681C14.0977 14.3937 13.9362 14.4892 13.7603 14.5487C13.5844 14.6082 13.398 14.6303 13.2131 14.6136C11.1617 14.3907 9.19113 13.6897 7.45979 12.5669C5.84901 11.5433 4.48335 10.1777 3.45979 8.56689C2.33311 6.8277 1.63195 4.84756 1.41313 2.78689C1.39647 2.60254 1.41838 2.41673 1.47746 2.24131C1.53654 2.06589 1.63151 1.90469 1.7563 1.76797C1.8811 1.63126 2.033 1.52203 2.20232 1.44724C2.37164 1.37245 2.55469 1.33374 2.73979 1.33356H4.73979C5.06333 1.33038 5.37699 1.44495 5.6223 1.65592C5.86761 1.86689 6.02784 2.15986 6.07313 2.48023C6.15754 3.12027 6.31409 3.74871 6.53979 4.35356C6.62949 4.59218 6.6489 4.8515 6.59573 5.10081C6.54256 5.35012 6.41903 5.57897 6.23979 5.76023L5.39313 6.60689C6.34216 8.27592 7.7241 9.65786 9.39313 10.6069L10.2398 9.76023C10.4211 9.58099 10.6499 9.45746 10.8992 9.40429C11.1485 9.35112 11.4078 9.37053 11.6465 9.46023C12.2513 9.68593 12.8797 9.84248 13.5198 9.92689C13.8436 9.97258 14.1394 10.1357 14.3508 10.3852C14.5622 10.6348 14.6746 10.9533 14.6665 11.2802Z" stroke-linecap="round" stroke-linejoin="round" />
    </symbol>

    <symbol viewBox="0 0 43 43" id="window-close">
        <path d="M11.4667 33.4215L9.57861 31.5334L19.6119 21.5001L9.57861 11.4667L11.4667 9.57861L21.5001 19.6119L31.5334 9.57861L33.4215 11.4667L23.3882 21.5001L33.4215 31.5334L31.5334 33.4215L21.5001 23.3882L11.4667 33.4215Z" />
    </symbol>

    <symbol viewBox="0 0 16 17" id="cart-icon">
        <path d="M5.99992 15.1663C6.36811 15.1663 6.66659 14.8679 6.66659 14.4997C6.66659 14.1315 6.36811 13.833 5.99992 13.833C5.63173 13.833 5.33325 14.1315 5.33325 14.4997C5.33325 14.8679 5.63173 15.1663 5.99992 15.1663Z" stroke-width="1.33333" stroke-linecap="round" stroke-linejoin="round" />
        <path d="M13.3334 15.1663C13.7016 15.1663 14.0001 14.8679 14.0001 14.4997C14.0001 14.1315 13.7016 13.833 13.3334 13.833C12.9652 13.833 12.6667 14.1315 12.6667 14.4997C12.6667 14.8679 12.9652 15.1663 13.3334 15.1663Z" stroke-width="1.33333" stroke-linecap="round" stroke-linejoin="round" />
        <path d="M0.666748 1.1665H3.33341L5.12008 10.0932C5.18104 10.4001 5.34802 10.6758 5.59178 10.872C5.83554 11.0683 6.14055 11.1725 6.45342 11.1665H12.9334C13.2463 11.1725 13.5513 11.0683 13.7951 10.872C14.0388 10.6758 14.2058 10.4001 14.2667 10.0932L15.3334 4.49984H4.00008" stroke-width="1.33333" stroke-linecap="round" stroke-linejoin="round" />
    </symbol>

    <symbol viewBox="0 0 50 50" id="how-step-1">
        <circle opacity="0.1" cx="25" cy="25" r="25" fill="#3E3E59" />
        <path d="M25 6C25 4.34315 26.3493 2.97899 27.9908 3.20423C30.8036 3.5902 33.5248 4.51841 36 5.94744C39.3444 7.87834 42.1217 10.6556 44.0526 14C45.9835 17.3444 47 21.1382 47 25C47 27.8581 46.4432 30.6789 45.3711 33.3078C44.7454 34.842 42.8894 35.3284 41.4545 34.5L26.5 25.866C25.5718 25.3301 25 24.3397 25 23.2679V6Z" fill="white" />
    </symbol>

    <symbol viewBox="0 0 50 50" id="how-step-2">
        <circle opacity="0.1" cx="25" cy="25" r="25" fill="#3E3E59" />
        <path d="M25 6C25 4.34315 26.3493 2.97899 27.9908 3.20423C30.8032 3.59015 33.5241 4.51816 35.999 5.94687C39.3432 7.8774 42.1203 10.6541 44.0514 13.998C45.9825 17.3419 46.9994 21.1351 47 24.9965C47.0006 28.858 45.9849 32.6515 44.0549 35.996C42.1248 39.3405 39.3486 42.1181 36.005 44.0497C32.6614 45.9813 28.8683 46.9988 25.0069 47C21.1455 47.0012 17.3518 45.9861 14.007 44.0566C11.5316 42.6287 9.36671 40.7372 7.62534 38.4952C6.60899 37.1867 7.11496 35.3359 8.54949 34.5069L23.5011 25.8662C24.4287 25.3302 25 24.3401 25 23.2688V6Z" fill="white" />
    </symbol>

    <symbol viewBox="0 0 50 50" id="how-step-3">
        <circle opacity="0.1" cx="25" cy="25" r="25" fill="#3E3E59" />
        <circle cx="25" cy="25" r="22" fill="white" />
    </symbol>

    <symbol viewBox="0 0 16 16" id="vacancy-title">
        <path fill-rule="evenodd" clip-rule="evenodd" d="M7.5286 12.5C7.78894 12.7734 8.21105 12.7734 8.4714 12.5L13.8047 6.9C14.0651 6.62663 14.0651 6.18342 13.8047 5.91005C13.5444 5.63668 13.1223 5.63668 12.8619 5.91005L8 11.0151L3.13807 5.91005C2.87772 5.63668 2.45561 5.63668 2.19526 5.91005C1.93491 6.18342 1.93491 6.62663 2.19526 6.9L7.5286 12.5Z" />
    </symbol>

    <symbol viewBox="0 0 32 40" id="product-doc">
        <path d="M2.2857 0H21.7063L32 11.215V37.5C32 38.8812 30.9761 40 29.7143 40H2.2857C1.02395 40 0 38.8812 0 37.5V2.49998C0 1.11877 1.02406 0 2.2857 0Z" fill="#F0F0F7" />
        <path d="M31.9669 11.2497H24C22.7383 11.2497 21.7144 10.1297 21.7144 8.74968V0.0246582L31.9669 11.2497Z" fill="#C7C7D9" />
    </symbol>

    <symbol viewBox="0 0 24 24" id="btn-icon-email">
        <path d="M4.3 19.5C3.8 19.5 3.375 19.325 3.025 18.975C2.675 18.625 2.5 18.2 2.5 17.7V6.3C2.5 5.8 2.675 5.375 3.025 5.025C3.375 4.675 3.8 4.5 4.3 4.5H19.7C20.2 4.5 20.625 4.675 20.975 5.025C21.325 5.375 21.5 5.8 21.5 6.3V17.7C21.5 18.2 21.325 18.625 20.975 18.975C20.625 19.325 20.2 19.5 19.7 19.5H4.3ZM12 12.55L4 7.45V17.7C4 17.7833 4.02933 17.8543 4.088 17.913C4.146 17.971 4.21667 18 4.3 18H19.7C19.7833 18 19.8543 17.971 19.913 17.913C19.971 17.8543 20 17.7833 20 17.7V7.45L12 12.55ZM12 11L19.85 6H4.15L12 11ZM4 7.45V6V17.7C4 17.7833 4.02933 17.8543 4.088 17.913C4.146 17.971 4.21667 18 4.3 18H4V17.7V7.45Z" />
    </symbol>

    <symbol viewBox="0 0 25 24" id="btn-icon-phone">
        <path d="M19.9249 20.45C17.9916 20.45 16.0709 19.9873 14.1629 19.062C12.2542 18.1373 10.5499 16.925 9.0499 15.425C7.5499 13.925 6.33757 12.225 5.4129 10.325C4.48757 8.425 4.0249 6.5 4.0249 4.55C4.0249 4.25 4.1249 4 4.3249 3.8C4.5249 3.6 4.7749 3.5 5.0749 3.5H8.3249C8.59157 3.5 8.82057 3.579 9.0119 3.737C9.2039 3.89567 9.3249 4.1 9.3749 4.35L9.9499 7.3C9.98324 7.55 9.9749 7.775 9.9249 7.975C9.8749 8.175 9.76657 8.35 9.5999 8.5L7.2999 10.75C8.0999 12.0833 9.04557 13.2917 10.1369 14.375C11.2289 15.4583 12.4666 16.4 13.8499 17.2L16.0749 14.95C16.2416 14.7833 16.4376 14.6667 16.6629 14.6C16.8876 14.5333 17.1166 14.5167 17.3499 14.55L20.1249 15.125C20.3749 15.175 20.5792 15.2917 20.7379 15.475C20.8959 15.6583 20.9749 15.8833 20.9749 16.15V19.4C20.9749 19.7 20.8749 19.95 20.6749 20.15C20.4749 20.35 20.2249 20.45 19.9249 20.45ZM6.5999 9.325L8.3749 7.625C8.40824 7.59167 8.42924 7.554 8.4379 7.512C8.4459 7.47067 8.44157 7.43333 8.4249 7.4L7.9999 5.15C7.98324 5.1 7.95824 5.06233 7.9249 5.037C7.89157 5.01233 7.8499 5 7.7999 5H5.6749C5.6249 5 5.58724 5.01233 5.5619 5.037C5.53724 5.06233 5.5249 5.09167 5.5249 5.125C5.5749 5.80833 5.68757 6.504 5.8629 7.212C6.03757 7.92067 6.28324 8.625 6.5999 9.325ZM15.2499 17.9C15.9166 18.2167 16.6082 18.4583 17.3249 18.625C18.0416 18.7917 18.7166 18.8833 19.3499 18.9C19.3832 18.9 19.4126 18.8873 19.4379 18.862C19.4626 18.8373 19.4749 18.8083 19.4749 18.775V16.675C19.4749 16.625 19.4626 16.5833 19.4379 16.55C19.4126 16.5167 19.3749 16.4917 19.3249 16.475L17.2249 16.05C17.1916 16.0333 17.1582 16.0333 17.1249 16.05L17.0249 16.1L15.2499 17.9Z" />
    </symbol>

    <symbol viewBox="0 0 24 24" id="btn-icon-user">
        <path d="M6.025 17.3C6.875 16.6667 7.8 16.1667 8.8 15.8C9.8 15.4333 10.8667 15.25 12 15.25C13.1333 15.25 14.2 15.4333 15.2 15.8C16.2 16.1667 17.125 16.6667 17.975 17.3C18.5917 16.6167 19.0833 15.825 19.45 14.925C19.8167 14.025 20 13.05 20 12C20 9.78333 19.221 7.89567 17.663 6.337C16.1043 4.779 14.2167 4 12 4C9.78333 4 7.896 4.779 6.338 6.337C4.77933 7.89567 4 9.78333 4 12C4 13.05 4.18333 14.025 4.55 14.925C4.91667 15.825 5.40833 16.6167 6.025 17.3ZM12 12.75C11.0833 12.75 10.3127 12.4373 9.688 11.812C9.06267 11.1873 8.75 10.4167 8.75 9.5C8.75 8.58333 9.06267 7.81267 9.688 7.188C10.3127 6.56267 11.0833 6.25 12 6.25C12.9167 6.25 13.6873 6.56267 14.312 7.188C14.9373 7.81267 15.25 8.58333 15.25 9.5C15.25 10.4167 14.9373 11.1873 14.312 11.812C13.6873 12.4373 12.9167 12.75 12 12.75ZM12 21.5C10.6833 21.5 9.446 21.25 8.288 20.75C7.12933 20.25 6.125 19.575 5.275 18.725C4.425 17.875 3.75 16.8707 3.25 15.712C2.75 14.554 2.5 13.3167 2.5 12C2.5 10.6833 2.75 9.44567 3.25 8.287C3.75 7.129 4.425 6.125 5.275 5.275C6.125 4.425 7.12933 3.75 8.288 3.25C9.446 2.75 10.6833 2.5 12 2.5C13.3167 2.5 14.5543 2.75 15.713 3.25C16.871 3.75 17.875 4.425 18.725 5.275C19.575 6.125 20.25 7.129 20.75 8.287C21.25 9.44567 21.5 10.6833 21.5 12C21.5 13.3167 21.25 14.554 20.75 15.712C20.25 16.8707 19.575 17.875 18.725 18.725C17.875 19.575 16.871 20.25 15.713 20.75C14.5543 21.25 13.3167 21.5 12 21.5ZM12 20C12.9 20 13.771 19.854 14.613 19.562C15.4543 19.2707 16.2 18.8667 16.85 18.35C16.2 17.85 15.4623 17.4583 14.637 17.175C13.8123 16.8917 12.9333 16.75 12 16.75C11.0667 16.75 10.1877 16.8877 9.363 17.163C8.53767 17.4377 7.8 17.8333 7.15 18.35C7.8 18.8667 8.54567 19.2707 9.387 19.562C10.229 19.854 11.1 20 12 20ZM12 11.25C12.5 11.25 12.9167 11.0833 13.25 10.75C13.5833 10.4167 13.75 10 13.75 9.5C13.75 9 13.5833 8.58333 13.25 8.25C12.9167 7.91667 12.5 7.75 12 7.75C11.5 7.75 11.0833 7.91667 10.75 8.25C10.4167 8.58333 10.25 9 10.25 9.5C10.25 10 10.4167 10.4167 10.75 10.75C11.0833 11.0833 11.5 11.25 12 11.25Z" />
    </symbol>

    <symbol viewBox="0 0 23 23" id="btn-promo-add">
        <path d="M11.4998 21.0833C16.7926 21.0833 21.0832 16.7927 21.0832 11.5C21.0832 6.20723 16.7926 1.91663 11.4998 1.91663C6.20711 1.91663 1.9165 6.20723 1.9165 11.5C1.9165 16.7927 6.20711 21.0833 11.4998 21.0833Z" stroke-width="1.5" stroke-linecap="round" stroke-linejoin="round" />
        <path d="M11.5 7.66663V15.3333" stroke-width="1.5" stroke-linecap="round" stroke-linejoin="round" />
        <path d="M7.6665 11.5H15.3332" stroke-width="1.5" stroke-linecap="round" stroke-linejoin="round" />
    </symbol>

    <symbol viewBox="0 0 24 24" id="desktop-menu-icon">
        <path d="M12 2.25C6.62402 2.25 2.25 6.62402 2.25 12C2.25 17.376 6.62402 21.75 12 21.75C17.376 21.75 21.75 17.376 21.75 12C21.75 6.62402 17.376 2.25 12 2.25ZM12 3.75C16.5645 3.75 20.25 7.43555 20.25 12C20.25 16.5645 16.5645 20.25 12 20.25C7.43555 20.25 3.75 16.5645 3.75 12C3.75 7.43555 7.43555 3.75 12 3.75ZM11.25 7.5V9H12.75V7.5H11.25ZM11.25 10.5V16.5H12.75V10.5H11.25Z" />
    </symbol>

    <symbol viewBox="0 0 16 17" id="agents-results-item-types-title">
        <path fill-rule="evenodd" clip-rule="evenodd" d="M7.5286 13C7.78894 13.2734 8.21105 13.2734 8.4714 13L13.8047 7.4C14.0651 7.12663 14.0651 6.68342 13.8047 6.41005C13.5444 6.13668 13.1223 6.13668 12.8619 6.41005L8 11.5151L3.13807 6.41005C2.87772 6.13668 2.45561 6.13668 2.19526 6.41005C1.93491 6.68342 1.93491 7.12663 2.19526 7.4L7.5286 13Z" />
    </symbol>

    <symbol viewBox="0 0 30 30" id="nav-add-close">
        <path d="M8 23.75L6.25 22L13.25 15L6.25 8L8 6.25L15 13.25L22 6.25L23.75 8L16.75 15L23.75 22L22 23.75L15 16.75L8 23.75Z" />
    </symbol>

    <symbol viewBox="0 0 16 16" id="news-header-select">
        <path fill-rule="evenodd" clip-rule="evenodd" d="M7.99998 11.0002L4.25246 7.41C3.91715 7.08876 3.91566 6.5646 4.24914 6.24158C4.58133 5.91981 5.11991 5.91981 5.4521 6.24158L8.00003 8.70958L10.5479 6.24162C10.8801 5.91985 11.4187 5.91985 11.7509 6.24162C12.0843 6.56464 12.0829 7.0888 11.7475 7.41004L7.99998 11.0002Z" />
    </symbol>

    <symbol viewBox="0 0 16 17" id="nav-add-item-title-mobile-link">
        <path fill-rule="evenodd" clip-rule="evenodd" d="M12.5 8.97134C12.7734 8.71099 12.7734 8.28888 12.5 8.02853L6.9 2.6952C6.62663 2.43485 6.18342 2.43485 5.91005 2.6952C5.63668 2.95555 5.63668 3.37766 5.91005 3.63801L11.0151 8.49994L5.91005 13.3619C5.63668 13.6222 5.63668 14.0443 5.91005 14.3047C6.18342 14.565 6.62663 14.565 6.9 14.3047L12.5 8.97134Z" />
    </symbol>

    <symbol viewBox="0 0 24 24" id="contacts-new-location">
        <path d="M12.0019 11.8654C12.4995 11.8654 12.9249 11.6882 13.2781 11.3339C13.6313 10.9795 13.8079 10.5536 13.8079 10.056C13.8079 9.55839 13.6307 9.133 13.2764 8.7798C12.922 8.4266 12.4961 8.25 11.9985 8.25C11.5009 8.25 11.0755 8.42717 10.7223 8.7815C10.3691 9.13583 10.1925 9.56179 10.1925 10.0594C10.1925 10.557 10.3697 10.9824 10.724 11.3356C11.0784 11.6888 11.5043 11.8654 12.0019 11.8654ZM12.0002 19.5135C13.9566 17.7622 15.4537 16.0824 16.4915 14.474C17.5294 12.8657 18.0483 11.457 18.0483 10.2481C18.0483 8.42498 17.4691 6.92627 16.3108 5.7519C15.1524 4.57753 13.7156 3.99035 12.0002 3.99035C10.2848 3.99035 8.84796 4.57753 7.68962 5.7519C6.53129 6.92627 5.95212 8.42498 5.95212 10.2481C5.95212 11.457 6.47103 12.8657 7.50885 14.474C8.54668 16.0824 10.0438 17.7622 12.0002 19.5135ZM12.0002 21.5096C9.48355 19.3288 7.59637 17.2993 6.33867 15.4211C5.08099 13.5429 4.45215 11.8186 4.45215 10.2481C4.45215 7.94038 5.19862 6.07213 6.69157 4.64328C8.18451 3.21443 9.95405 2.5 12.0002 2.5C14.0463 2.5 15.8159 3.21443 17.3088 4.64328C18.8018 6.07213 19.5482 7.94038 19.5482 10.2481C19.5482 11.8186 18.9194 13.5429 17.6617 15.4211C16.404 17.2993 14.5168 19.3288 12.0002 21.5096Z" />
    </symbol>

    <symbol viewBox="0 0 24 24" id="contacts-new-email">
        <path d="M4.3 19.5C3.8 19.5 3.375 19.325 3.025 18.975C2.675 18.625 2.5 18.2 2.5 17.7V6.3C2.5 5.8 2.675 5.375 3.025 5.025C3.375 4.675 3.8 4.5 4.3 4.5H19.7C20.2 4.5 20.625 4.675 20.975 5.025C21.325 5.375 21.5 5.8 21.5 6.3V17.7C21.5 18.2 21.325 18.625 20.975 18.975C20.625 19.325 20.2 19.5 19.7 19.5H4.3ZM12 12.55L4 7.45V17.7C4 17.7833 4.02933 17.8543 4.088 17.913C4.146 17.971 4.21667 18 4.3 18H19.7C19.7833 18 19.8543 17.971 19.913 17.913C19.971 17.8543 20 17.7833 20 17.7V7.45L12 12.55ZM12 11L19.85 6H4.15L12 11ZM4 7.45V6V17.7C4 17.7833 4.02933 17.8543 4.088 17.913C4.146 17.971 4.21667 18 4.3 18H4V17.7V7.45Z" />
    </symbol>

    <symbol viewBox="0 0 30 30" id="contacts-new-close">
        <path d="M7.9999 23.3173L6.68262 22L13.6826 15L6.68262 7.99999L7.9999 6.68271L14.9999 13.6827L21.9999 6.68271L23.3172 7.99999L16.3172 15L23.3172 22L21.9999 23.3173L14.9999 16.3173L7.9999 23.3173Z" />
    </symbol>

    <symbol viewBox="0 0 48 48" id="contacts-new-mobile-open">
        <path d="M10 29V27H38V29H10ZM10 21V19H38V21H10Z" />
    </symbol>

    <symbol viewBox="0 0 48 48" id="contacts-new-mobile-close">
        <path d="M12.8 36.6153L11.3846 35.1999L22.5846 23.9999L11.3846 12.7999L12.8 11.3845L24 22.5845L35.2 11.3845L36.6154 12.7999L25.4154 23.9999L36.6154 35.1999L35.2 36.6153L24 25.4153L12.8 36.6153Z" />
    </symbol>

    <symbol viewBox="0 0 16 16" id="contacts-new-right-mobile-close">
        <path fill-rule="evenodd" clip-rule="evenodd" d="M4.20503 8.4714C3.93166 8.21105 3.93166 7.78895 4.20503 7.5286L9.80502 2.19526C10.0784 1.93491 10.5216 1.93491 10.795 2.19526C11.0683 2.45561 11.0683 2.87772 10.795 3.13807L5.68995 8L10.795 12.8619C11.0683 13.1223 11.0683 13.5444 10.795 13.8047C10.5216 14.0651 10.0784 14.0651 9.80503 13.8047L4.20503 8.4714Z" />
    </symbol>

    <symbol viewBox="0 0 26 26" id="main-alert-close">
        <path d="M6.93366 20.5834L5.41699 19.0667L11.4837 13.0001L5.41699 6.93341L6.93366 5.41675L13.0003 11.4834L19.067 5.41675L20.5837 6.93341L14.517 13.0001L20.5837 19.0667L19.067 20.5834L13.0003 14.5167L6.93366 20.5834Z" />
    </symbol>

    <symbol viewBox="0 0 24 24" id="instructions-section-top-link">
        <path d="M11.25 15.6923H12.7595V11.1365L14.6095 12.9865L15.6538 11.9423L12.0095 8.298L8.35575 11.9423L9.4 12.9865L11.25 11.1365V15.6923ZM12.0017 21.5C10.6877 21.5 9.45267 21.2507 8.2965 20.752C7.14033 20.2533 6.13467 19.5766 5.2795 18.7218C4.42433 17.8669 3.74725 16.8617 3.24825 15.706C2.74942 14.5503 2.5 13.3156 2.5 12.0017C2.5 10.6877 2.74933 9.45267 3.248 8.2965C3.74667 7.14033 4.42342 6.13467 5.27825 5.2795C6.13308 4.42433 7.13833 3.74725 8.294 3.24825C9.44967 2.74942 10.6844 2.5 11.9983 2.5C13.3123 2.5 14.5473 2.74933 15.7035 3.248C16.8597 3.74667 17.8653 4.42342 18.7205 5.27825C19.5757 6.13308 20.2528 7.13833 20.7518 8.294C21.2506 9.44967 21.5 10.6844 21.5 11.9983C21.5 13.3123 21.2507 14.5473 20.752 15.7035C20.2533 16.8597 19.5766 17.8653 18.7218 18.7205C17.8669 19.5757 16.8617 20.2528 15.706 20.7518C14.5503 21.2506 13.3156 21.5 12.0017 21.5ZM12 20C14.2333 20 16.125 19.225 17.675 17.675C19.225 16.125 20 14.2333 20 12C20 9.76667 19.225 7.875 17.675 6.325C16.125 4.775 14.2333 4 12 4C9.76667 4 7.875 4.775 6.325 6.325C4.775 7.875 4 9.76667 4 12C4 14.2333 4.775 16.125 6.325 17.675C7.875 19.225 9.76667 20 12 20Z" />
    </symbol>

    <symbol viewBox="0 0 42 42" id="instructions-section-notice">
        <path d="M21 31.4102C21.4068 31.4102 21.7478 31.2725 22.0232 30.9972C22.2985 30.7222 22.4362 30.3814 22.4362 29.9746C22.4362 29.5674 22.2985 29.2264 22.0232 28.9514C21.7478 28.6761 21.4068 28.5384 21 28.5384C20.5932 28.5384 20.2522 28.6761 19.9768 28.9514C19.7015 29.2264 19.5638 29.5674 19.5638 29.9746C19.5638 30.3814 19.7015 30.7222 19.9768 30.9972C20.2522 31.2725 20.5932 31.4102 21 31.4102ZM19.8333 23.6921H22.1667V9.69209H19.8333V23.6921ZM21.0076 42C18.1038 42 15.3736 41.4489 12.817 40.3468C10.2608 39.2447 8.03717 37.7491 6.146 35.8598C4.25483 33.9706 2.75781 31.7489 1.65492 29.1947C0.551639 26.6408 0 23.9118 0 21.0076C0 18.1038 0.551055 15.3736 1.65317 12.817C2.75528 10.2608 4.25094 8.03717 6.14017 6.146C8.02939 4.25483 10.2511 2.75781 12.8053 1.65492C15.3592 0.551639 18.0882 0 20.9924 0C23.8962 0 26.6264 0.551057 29.183 1.65317C31.7392 2.75528 33.9628 4.25095 35.854 6.14017C37.7452 8.02939 39.2422 10.2511 40.3451 12.8053C41.4484 15.3592 42 18.0882 42 20.9924C42 23.8962 41.4489 26.6264 40.3468 29.183C39.2447 31.7392 37.7491 33.9628 35.8598 35.854C33.9706 37.7452 31.7489 39.2422 29.1947 40.3451C26.6408 41.4484 23.9118 42 21.0076 42ZM21 39.6667C26.2111 39.6667 30.625 37.8583 34.2417 34.2417C37.8583 30.625 39.6667 26.2111 39.6667 21C39.6667 15.7889 37.8583 11.375 34.2417 7.75833C30.625 4.14167 26.2111 2.33333 21 2.33333C15.7889 2.33333 11.375 4.14167 7.75833 7.75833C4.14167 11.375 2.33333 15.7889 2.33333 21C2.33333 26.2111 4.14167 30.625 7.75833 34.2417C11.375 37.8583 15.7889 39.6667 21 39.6667Z" />
    </symbol>

    <symbol viewBox="0 0 16 17" id="instructions-header-menu-more">
        <path fill-rule="evenodd" clip-rule="evenodd" d="M7.52859 12.0049C7.78894 12.2782 8.21105 12.2782 8.4714 12.0049L13.8047 6.40488C14.0651 6.13152 14.0651 5.6883 13.8047 5.41493C13.5444 5.14157 13.1223 5.14157 12.8619 5.41493L8 10.52L3.13807 5.41493C2.87772 5.14157 2.45561 5.14157 2.19526 5.41493C1.93491 5.6883 1.93491 6.13151 2.19526 6.40488L7.52859 12.0049Z" />
    </symbol>

</svg>