<svg width="83" height="98" viewBox="0 0 83 98" fill="none" xmlns="http://www.w3.org/2000/svg">
<g style="mix-blend-mode:multiply">
<path d="M69.8006 94.2159C68.9436 93.7798 68.0362 93.4673 66.9595 93.3453C65.9017 93.2254 64.8537 93.2186 63.7885 93.2836C62.7412 93.3473 61.7005 93.4629 60.6615 93.57C60.5411 93.5823 60.4207 93.5941 60.3001 93.6063C60.2664 93.6088 60.0513 93.6284 59.9069 93.6411C55.2812 93.5136 50.6643 93.2244 46.0485 92.9958C42.8853 92.8392 39.7262 92.7537 36.5568 92.6839C34.1568 92.6312 31.7626 92.4939 29.3647 92.4131C24.3135 92.2427 18.8453 92.1882 14.2018 93.7022C13.5285 93.9218 13.131 94.4772 13.1368 94.9543C13.1434 95.4981 13.5854 95.8963 14.2323 96.1947C16.0717 97.0436 18.5441 97.2202 20.7144 97.3193C23.0067 97.4242 25.3104 97.3529 27.6041 97.3072C30.1658 97.2562 32.7045 97.3809 35.2632 97.4578C38.5464 97.5565 41.8318 97.6229 45.117 97.6909C47.8567 97.7474 50.5947 97.8289 53.3354 97.8673C55.394 97.8961 57.4506 97.886 59.5076 97.9496C63.1419 98.0618 67.8418 98.184 70.1633 95.963C70.6665 95.4814 70.521 94.5824 69.8006 94.2159Z" fill="#9B9B9B" fill-opacity="0.15"/>
</g>
<path d="M61.5455 87.0632C61.5556 87.0918 61.5656 87.1205 61.5756 87.1578C61.6672 87.241 61.7139 87.3637 61.7215 87.5177C61.7293 87.6615 61.6782 87.8264 61.5651 88.0077C61.4142 88.2506 61.2025 88.3776 60.9305 88.3904L60.9084 88.3917C60.8371 88.4106 60.763 88.4219 60.6839 88.4262C60.4763 88.4353 60.334 88.3556 60.2603 88.1791C60.2281 88.0014 60.2107 87.9156 60.2107 87.9106C60.2063 87.8233 60.229 87.7314 60.2685 87.6339C60.2746 87.5998 60.2859 87.5704 60.2982 87.5438L60.3118 87.557C60.3228 87.5319 60.334 87.5106 60.3483 87.4886C60.2712 87.4425 60.2152 87.378 60.1804 87.2962C59.9373 87.5124 59.7311 87.621 59.5623 87.6288L59.5404 87.6295C59.4373 87.6638 59.3214 87.6866 59.201 87.6923C58.9213 87.7042 58.6977 87.556 58.535 87.2524C58.4229 86.9412 58.3662 86.7773 58.3641 86.7617C58.3528 86.4862 58.3953 86.2555 58.5002 86.0636C58.5319 86.0042 58.5661 85.9485 58.604 85.9009C58.7595 85.7065 58.9569 85.6014 59.1978 85.5913C59.4366 85.5752 59.6426 85.6487 59.8174 85.8157C59.8744 85.8677 59.9279 85.927 59.9681 85.9952L59.9719 86.0041C59.9898 85.9987 60.0056 85.9993 60.025 85.9935C60.4222 85.8913 60.7008 85.8122 60.86 85.7589C61.317 85.6084 61.6987 85.4247 62.0138 85.2065C62.1881 85.0855 62.3452 84.9701 62.4867 84.8644C62.8818 84.6013 63.0883 84.4653 63.109 84.457C63.2601 84.3787 63.4288 84.2503 63.6081 84.0719C63.4025 84.4339 63.1954 84.7693 62.9756 85.075C62.7961 85.3711 62.6257 85.6355 62.4673 85.8804C62.1293 86.3909 61.8214 86.7847 61.5455 87.0632ZM61.7096 89.5805C61.6211 89.7481 61.4033 89.8363 61.0639 89.8516C60.9052 89.8592 60.8006 89.7783 60.7522 89.5999L60.714 89.3278C60.7048 89.1149 60.7498 88.9602 60.8594 88.8601C60.9408 88.767 61.0564 88.7258 61.1991 88.7395C61.3375 88.754 61.4571 88.8071 61.5599 88.9053C61.6702 89.0087 61.7309 89.1312 61.7354 89.2764C61.743 89.422 61.7362 89.5254 61.7096 89.5805ZM60.2343 89.2407C60.0935 89.3447 59.8706 89.3996 59.5677 89.4146C59.1438 89.4344 58.8604 89.3223 58.7191 89.0786C58.678 89.0012 58.6495 88.9156 58.6403 88.8243C58.6411 88.7415 58.6387 88.699 58.6386 88.6944C58.628 88.4501 58.7089 88.2554 58.8825 88.1181C59.0387 87.9902 59.2377 87.9403 59.4721 87.9618C59.7104 87.985 59.9093 88.079 60.076 88.2501C60.2637 88.4409 60.3679 88.6858 60.3818 88.9892C60.3858 89.0854 60.336 89.1656 60.2343 89.2407ZM58.3372 88.2805C58.2484 88.4395 58.1018 88.5213 57.8984 88.5294C57.6363 88.5417 57.4401 88.4482 57.3125 88.2397C57.2328 88.0323 57.1939 87.9261 57.1938 87.9222C57.1849 87.7007 57.2397 87.5417 57.3647 87.4358C57.4713 87.3419 57.6118 87.3075 57.7745 87.3322C57.9391 87.3538 58.0797 87.4217 58.2022 87.5389C58.3352 87.6614 58.4052 87.8027 58.4137 87.9641C58.4189 88.072 58.394 88.178 58.3372 88.2805ZM57.1225 78.6455C57.1959 78.5847 57.2911 78.5754 57.4061 78.6234C57.4646 78.6509 57.5197 78.686 57.5681 78.7293C57.617 78.7722 57.6613 78.8252 57.7021 78.8852C57.7946 79.0226 57.8437 79.1745 57.8497 79.3422C57.8546 79.4348 57.8476 79.529 57.8224 79.6153C57.7802 79.7808 57.6959 79.8625 57.5761 79.8695C57.3875 79.8776 57.2416 79.7472 57.128 79.4733C57.0525 79.1945 57.0125 79.0506 57.0124 79.0407C57.0072 78.9217 57.0203 78.8251 57.0492 78.7535C57.0659 78.706 57.0918 78.6711 57.1225 78.6455ZM64.3943 80.8987C64.399 81.0354 64.3641 81.1654 64.2845 81.2982C64.1589 81.4995 63.9591 81.609 63.6824 81.6215C63.5372 81.628 63.4363 81.5913 63.3761 81.5159C63.3454 81.4717 63.3259 81.4214 63.3252 81.3672C63.3165 81.2052 63.3626 81.0574 63.4615 80.9167L63.4745 80.899C63.5714 80.7653 63.6926 80.6687 63.8342 80.6067C63.9783 80.5468 64.1028 80.537 64.2077 80.5773C64.3185 80.6267 64.3812 80.7238 64.3936 80.8737L64.3943 80.8987ZM66.7251 87.2868C66.6302 87.177 66.5458 87.0611 66.4781 86.936C66.2559 86.5417 66.0652 86.1341 65.9011 85.7216C65.3864 84.4432 65.1407 83.0772 65.1603 81.6276C65.1658 81.3617 65.1558 81.0999 65.1359 80.839C65.0724 80.0676 64.8953 79.3174 64.608 78.5911C64.5834 78.53 64.5562 78.4681 64.5329 78.4078C64.2234 77.6856 63.8117 77.1353 63.2983 76.7537L63.2622 76.7892L63.1775 77.0384C63.1376 77.1698 63.0833 77.24 63.0113 77.242C62.9523 77.2456 62.9112 77.2175 62.8877 77.1597C62.8803 77.0976 62.8782 77.0687 62.8782 77.0649C62.8721 76.9273 62.948 76.7773 63.1028 76.6263C62.9883 76.5486 62.865 76.4782 62.7408 76.4225C62.7308 76.4907 62.7259 76.5558 62.7287 76.6182C62.7305 76.6596 62.7156 76.6945 62.6829 76.7162C62.6544 76.7387 62.6226 76.7477 62.5901 76.7497C62.5093 76.7528 62.4579 76.7101 62.4376 76.6187L62.431 76.4654C62.4275 76.4117 62.4341 76.3606 62.4428 76.3069C62.2063 76.2265 61.9578 76.1719 61.6976 76.1416C61.7055 76.1961 61.7117 76.2488 61.717 76.303C61.723 76.4152 61.6847 76.4711 61.6013 76.4736C61.5181 76.4775 61.4663 76.4186 61.4383 76.2956C61.4308 76.2042 61.4271 76.1461 61.4267 76.1219C61.0297 76.0944 60.5975 76.1218 60.1308 76.2058C58.875 76.4435 57.9158 77.082 57.2535 78.1284C57.121 78.3384 56.9987 78.5475 56.8815 78.7612C56.4445 79.5639 56.1162 80.3995 55.8955 81.2664C55.8019 81.6242 55.7323 81.9854 55.6784 82.3535L55.6357 82.6926L55.6463 82.7464L55.6835 82.7397C55.686 82.7786 55.6827 82.8121 55.6804 82.8411C55.6713 82.9232 55.663 83.0024 55.6616 83.0826C55.6543 83.6447 55.7996 84.1752 56.0946 84.6641C56.254 84.953 56.4568 85.2512 56.7067 85.5588C56.8196 85.7008 56.9862 85.8879 57.2034 86.1245C57.2647 86.1917 57.3307 86.2634 57.4035 86.3386C57.6145 86.5668 57.7214 86.7069 57.7231 86.753C57.7232 86.7567 57.7171 86.7985 57.7041 86.8866L57.7012 86.8957C57.5987 86.9575 57.4921 86.9882 57.3812 86.9897C57.2158 86.9729 57.065 86.9421 56.9298 86.8944C56.9245 87.0275 56.8518 87.0975 56.7064 87.104C56.5441 87.1119 56.4007 87.0553 56.2831 86.9354C56.1062 86.819 55.9522 86.5691 55.8226 86.1873C56.046 87.0509 56.4068 87.8465 56.9074 88.5678C56.9845 88.6837 57.5957 89.332 58.4294 89.7696C58.9024 90.0928 59.3484 90.3434 59.7659 90.5255C59.7031 90.3393 59.674 90.262 59.6735 90.2836C59.6681 90.1368 59.7129 90.0331 59.8057 89.9656C59.8936 89.8982 60.0067 89.8803 60.136 89.9078C60.4601 89.9724 60.6291 90.1919 60.6466 90.5662C60.6506 90.6378 60.6315 90.7122 60.5972 90.789C60.8329 90.8411 61.0559 90.8602 61.2661 90.85C62.4356 90.7955 63.5172 90.5013 64.5149 89.9642C65.181 89.6051 65.8613 89.1037 66.5565 88.4508C66.6244 88.3893 66.8375 88.1462 67.1983 87.7221C67.0378 87.5829 66.8761 87.4417 66.7251 87.2868Z" fill="#FFB839"/>
<path d="M64.2071 80.5776C64.1021 80.5372 63.9776 80.5471 63.8335 80.607C63.6919 80.6689 63.5706 80.7656 63.4738 80.8993C63.3665 81.0456 63.3158 81.201 63.3246 81.3674C63.3253 81.4216 63.3448 81.4719 63.3755 81.5161C63.4356 81.5915 63.5366 81.6282 63.6818 81.6217C63.9584 81.6092 64.1583 81.4997 64.2839 81.2984C64.3634 81.1656 64.3984 81.0356 64.3937 80.8989C64.3861 80.7359 64.322 80.6269 64.2071 80.5776ZM57.4055 78.6236C57.2904 78.5755 57.1953 78.5849 57.1218 78.6456C57.0395 78.7209 57.004 78.8513 57.0118 79.0408C57.012 79.0507 57.052 79.1946 57.1274 79.4734C57.241 79.7473 57.3869 79.8777 57.5755 79.8697C57.6954 79.8627 57.7796 79.781 57.8218 79.6155C57.847 79.5291 57.854 79.4351 57.8491 79.3424C57.8431 79.1747 57.7939 79.0228 57.7015 78.8854C57.6152 78.7608 57.5188 78.6728 57.4055 78.6236ZM64.6003 75.8667C64.4947 75.7954 64.3664 75.7646 64.2213 75.7714C64.0733 75.7782 63.9485 75.8253 63.8549 75.9183C63.773 75.9922 63.7233 76.085 63.7104 76.2074C63.6319 76.2348 63.5465 76.2808 63.4528 76.3437C63.3079 76.4375 63.1911 76.5353 63.1022 76.6263C62.9474 76.7773 62.8715 76.9273 62.8776 77.0649C62.8776 77.0687 62.8797 77.0976 62.8871 77.1597C62.9106 77.2175 62.9517 77.2456 63.0107 77.242C63.0827 77.24 63.137 77.1698 63.177 77.0384L63.2616 76.7892L63.2977 76.7537C63.4051 76.6467 63.5418 76.5597 63.7172 76.4983L63.7183 76.5353C63.7799 76.6614 63.9368 76.7203 64.1867 76.7096C64.4322 76.6978 64.6073 76.6191 64.7052 76.4726C64.7631 76.382 64.788 76.2866 64.782 76.174C64.7766 76.0447 64.7183 75.9399 64.6003 75.8667ZM63.0187 75.7969C63.0917 75.8401 63.1918 75.8556 63.3135 75.8511C63.4921 75.8424 63.62 75.7492 63.6999 75.5662C63.7573 75.4437 63.7831 75.3254 63.7791 75.2131L63.7778 75.1933C63.7702 75.0798 63.72 74.9917 63.6191 74.9168C63.5278 74.8421 63.4196 74.8053 63.2988 74.8077C63.0359 74.8112 62.8875 74.9547 62.8643 75.2351C62.8622 75.2848 62.8593 75.335 62.8627 75.3893C62.8628 75.3926 62.8697 75.4346 62.8759 75.5089C62.8493 75.5343 62.8205 75.5664 62.7903 75.6043C62.5892 75.8552 62.4746 76.0887 62.4423 76.307C62.4336 76.3606 62.4269 76.4117 62.4304 76.4655L62.4371 76.6188C62.4574 76.7102 62.5088 76.7529 62.5895 76.7498C62.6221 76.7478 62.6539 76.7387 62.6824 76.7163C62.715 76.6946 62.73 76.6597 62.7282 76.6183C62.7254 76.5559 62.7303 76.4907 62.7403 76.4226C62.7652 76.259 62.8377 76.0838 62.9504 75.905C62.9763 75.8662 62.9991 75.8275 63.0187 75.7969ZM62.371 75.2045C62.3634 75.0577 62.3086 74.9351 62.2091 74.8448C62.1181 74.7619 62.0067 74.7209 61.885 74.7229C61.7607 74.7159 61.6578 74.758 61.5748 74.8498C61.4841 74.9488 61.4398 75.0881 61.4494 75.2675L61.4583 75.2999C61.4729 75.3205 61.4924 75.3521 61.5127 75.3891C61.5584 75.4492 61.5798 75.4897 61.5804 75.5022C61.5805 75.5103 61.5545 75.5778 61.5026 75.7088C61.4465 75.8403 61.4198 75.9679 61.4251 76.0963L61.4262 76.1219C61.4265 76.1462 61.4303 76.2043 61.4378 76.2957C61.4657 76.4187 61.5175 76.4776 61.6008 76.4736C61.6841 76.4711 61.7225 76.4152 61.7164 76.303C61.7111 76.2488 61.7049 76.1961 61.697 76.1417C61.6909 76.0801 61.683 76.0224 61.6804 75.9643C61.6758 75.7522 61.7196 75.6415 61.8085 75.6371C62.0952 75.6249 62.2703 75.5747 62.3367 75.4831C62.3651 75.4488 62.3742 75.3748 62.3736 75.2572L62.371 75.2045Z" fill="#FA6F74"/>
<path d="M60.1356 89.9076C60.0063 89.8802 59.8931 89.8981 59.8052 89.9655C59.7124 90.033 59.6677 90.1366 59.673 90.2835C59.6735 90.2618 59.7027 90.3391 59.7654 90.5253C60.058 90.6491 60.3328 90.7388 60.5967 90.7888C60.6309 90.712 60.6501 90.6376 60.6461 90.566C60.6287 90.1917 60.4596 89.9722 60.1356 89.9076ZM57.774 87.3323C57.6112 87.3075 57.4708 87.3419 57.3642 87.4358C57.2392 87.5417 57.1844 87.7008 57.1933 87.9223C57.1934 87.9261 57.2323 88.0323 57.3119 88.2397C57.4395 88.4483 57.6357 88.5418 57.8979 88.5294C58.1013 88.5213 58.2479 88.4395 58.3366 88.2805C58.3935 88.178 58.4184 88.072 58.4132 87.9641C58.4046 87.8027 58.3346 87.6613 58.2016 87.5389C58.0792 87.4217 57.9386 87.3538 57.774 87.3323ZM61.1986 88.7395C61.056 88.7259 60.9403 88.767 60.8589 88.86C60.7493 88.9613 60.7043 89.115 60.7136 89.3278L60.7517 89.5999C60.8001 89.7783 60.9048 89.8592 61.0634 89.8515C61.4028 89.8363 61.6206 89.7481 61.7091 89.5804C61.7357 89.5254 61.7425 89.422 61.735 89.2763C61.7305 89.1312 61.6698 89.0087 61.5595 88.9052C61.4566 88.8071 61.337 88.754 61.1986 88.7395ZM60.3813 88.9893C60.3674 88.6859 60.2631 88.441 60.0755 88.2502C59.9088 88.0791 59.7098 87.9851 59.4716 87.9619C59.2371 87.9403 59.0381 87.9903 58.882 88.1182C58.7083 88.2555 58.6275 88.4502 58.6381 88.6945C58.6382 88.6991 58.6406 88.7415 58.6398 88.8244C58.649 88.9157 58.6775 89.0013 58.7186 89.0786C58.8598 89.3223 59.1432 89.4345 59.5671 89.4147C59.8702 89.3996 60.093 89.3448 60.2337 89.2407C60.3355 89.1657 60.3853 89.0854 60.3813 88.9893ZM60.6833 88.4262C60.7624 88.4218 60.8365 88.4106 60.9078 88.3918L60.9299 88.3904C61.2019 88.3776 61.4136 88.2506 61.5645 88.0077C61.6776 87.8264 61.7287 87.6615 61.7209 87.5177C61.7133 87.3637 61.6666 87.2411 61.575 87.1578C61.5651 87.1205 61.555 87.0919 61.5449 87.0632C61.2313 87.3818 60.9584 87.5441 60.7305 87.5533C60.5682 87.5628 60.4373 87.5392 60.3477 87.4886C60.3334 87.5106 60.3221 87.5319 60.3112 87.557L60.2976 87.5438C60.2852 87.5703 60.274 87.5998 60.2679 87.634C60.2284 87.7315 60.2057 87.8233 60.2101 87.9106C60.2101 87.9156 60.2275 88.0014 60.2596 88.1791C60.3334 88.3557 60.4757 88.4353 60.6833 88.4262ZM59.2004 87.6923C59.3208 87.6866 59.4368 87.6638 59.5398 87.6296C59.2539 87.6391 59.107 87.5748 59.0996 87.4299C59.097 87.384 59.117 87.3245 59.1534 87.2434C58.9271 87.2291 58.7687 87.1784 58.6756 87.0958C58.613 87.0864 58.5695 87.0433 58.547 86.9685C58.5331 86.8819 58.5264 86.8376 58.5263 86.8329C58.5209 86.7163 58.5805 86.609 58.6963 86.517C58.7472 86.452 58.819 86.3941 58.9036 86.3448C59.0534 86.2584 59.3324 86.1628 59.7402 86.0598C59.8237 86.0352 59.9005 86.0207 59.9713 86.0042C59.9303 85.9348 59.877 85.8713 59.8168 85.8158C59.6421 85.6488 59.4361 85.5754 59.1971 85.5914C58.9563 85.6015 58.7589 85.7067 58.6034 85.9011C58.4275 86.1171 58.3478 86.404 58.3635 86.7617C58.3656 86.7774 58.4223 86.9413 58.5344 87.2525C58.6971 87.556 58.9207 87.7042 59.2004 87.6923Z" fill="#FFD93B"/>
<path d="M56.7066 85.5588C56.4567 85.2512 56.2538 84.953 56.0945 84.6641C55.7995 84.1752 55.6542 83.6446 55.6615 83.0826C55.6629 83.0024 55.6712 82.9232 55.6803 82.8411C55.6825 82.812 55.6858 82.7785 55.6834 82.7397L55.6462 82.7464L55.6356 82.6926C55.4679 83.1381 55.3982 83.6019 55.4199 84.0847C55.4434 84.5534 55.5139 85.0157 55.6296 85.4682C55.6413 85.5143 55.6528 85.555 55.6633 85.5955C55.7098 85.818 55.7642 86.016 55.8226 86.1874C55.9521 86.5692 56.1062 86.819 56.2831 86.9355C56.4006 87.0554 56.5441 87.112 56.7063 87.1041C56.8517 87.0975 56.9243 87.0275 56.9297 86.8944C57.0649 86.9421 57.2158 86.973 57.3811 86.9897C57.4921 86.9882 57.5987 86.9576 57.7012 86.8957L57.704 86.8866C57.717 86.7985 57.7231 86.7567 57.7231 86.753C57.7214 86.7069 57.6144 86.5668 57.4035 86.3387C57.0839 85.9999 56.8507 85.7401 56.7066 85.5588ZM63.1086 84.457C63.0879 84.4654 62.8815 84.6015 62.4864 84.8645C62.3449 84.9701 62.1878 85.0855 62.0134 85.2066C61.6983 85.4247 61.3166 85.6085 60.8597 85.759C60.6926 85.8172 60.397 85.8975 59.9716 86.0042C59.9008 86.0207 59.824 86.0352 59.7405 86.0598C59.3327 86.1629 59.0537 86.2585 58.9039 86.3448C58.8193 86.3942 58.7475 86.452 58.6966 86.517C58.5808 86.609 58.5212 86.7163 58.5266 86.833C58.5267 86.8377 58.5334 86.8819 58.5473 86.9685C58.5698 87.0433 58.6133 87.0864 58.6759 87.0958C58.769 87.1784 58.9274 87.2291 59.1537 87.2434C59.1173 87.3245 59.0973 87.384 59.0999 87.4299C59.1073 87.5748 59.2541 87.6391 59.5401 87.6296L59.562 87.6288C59.7308 87.6211 59.937 87.5124 60.1801 87.2963C60.2149 87.378 60.2709 87.4426 60.3481 87.4886C60.4376 87.5392 60.5686 87.5628 60.7309 87.5533C60.9588 87.5442 61.2316 87.3818 61.5452 87.0633C61.9481 86.6525 62.4206 85.9918 62.9753 85.075C63.1951 84.7693 63.4021 84.434 63.6077 84.0719C63.4284 84.2504 63.2597 84.3788 63.1086 84.457Z" fill="#FF2C50"/>
<path d="M62.8465 94.36C62.8065 94.2991 62.7621 94.247 62.7108 94.2131C62.5934 94.1304 62.4735 94.0604 62.3512 94.0076C62.2391 93.5094 62.1711 93.0046 62.1469 92.4982C62.129 92.1956 62.1281 91.8885 62.1429 91.5756C62.1574 91.0919 62.1982 90.6114 62.2571 90.1344C62.1653 90.197 62.0614 90.2314 61.9589 90.2352L61.9334 90.2365C61.7392 91.4151 61.7678 92.5915 62.0268 93.7646C62.0433 93.8522 62.0647 93.9379 62.089 94.0249C62.0127 94.0902 61.9456 94.1637 61.8805 94.2423C61.8491 94.2808 61.8227 94.3193 61.8042 94.3657C61.7791 94.414 61.7548 94.4643 61.7443 94.519C61.7281 94.578 61.7177 94.6361 61.7198 94.6912C61.7193 94.7587 61.7331 94.8235 61.7622 94.884C61.7761 94.9212 61.7939 94.9541 61.8088 94.99L61.905 94.9938L62.1205 94.2592C62.1298 94.347 62.1454 94.4337 62.165 94.5206C62.1745 94.5657 62.1852 94.611 62.2103 94.6559C62.2375 94.7163 62.2671 94.7782 62.2959 94.8298C62.3293 94.8955 62.3651 94.9605 62.4065 95.0202L62.5065 95.0367L62.5723 94.9969L62.4228 94.3085L62.8483 94.8766L62.9197 94.8513C62.9298 94.7725 62.9359 94.6923 62.9368 94.6126C62.9388 94.5727 62.933 94.5312 62.9197 94.4941C62.9 94.4436 62.8766 94.4003 62.8465 94.36ZM60.9414 94.262C60.897 94.2078 60.8447 94.1635 60.7909 94.1308C60.6646 94.0608 60.5394 94.0088 60.402 93.971C60.2303 93.4903 60.1004 93.0013 60.0158 92.5014C59.9544 92.2003 59.9115 91.8989 59.8883 91.5883C59.8469 91.1449 59.8255 90.7015 59.8222 90.2553C59.7677 90.2652 59.7126 90.2731 59.6446 90.2759C59.5983 90.2789 59.5562 90.277 59.5202 90.2736C59.469 91.4751 59.6487 92.6396 60.0577 93.7728C60.0846 93.8554 60.1137 93.9367 60.1428 94.0236C60.0842 94.1013 60.0251 94.1816 59.9698 94.2633C59.9435 94.307 59.9251 94.3546 59.9056 94.4045C59.888 94.4514 59.8786 94.501 59.8685 94.5567C59.8575 94.6185 59.8612 94.6771 59.8683 94.7297C59.8748 94.7966 59.8987 94.8583 59.9343 94.9154C59.9527 94.9504 59.9714 94.983 59.9892 95.0154L60.0928 95.0076L60.2034 94.2535C60.2291 94.3395 60.2552 94.4246 60.2863 94.5026C60.3003 94.5473 60.3219 94.5929 60.3463 94.6373C60.3814 94.6892 60.4178 94.7467 60.4592 94.799C60.4989 94.8551 60.5425 94.9114 60.5868 94.9719L60.6867 94.9754L60.7477 94.9272L60.5164 94.2633L61.011 94.7688L61.0766 94.7417C61.0774 94.6574 61.0716 94.5755 61.0652 94.4959C61.0581 94.46 61.0498 94.4227 61.0303 94.385C61.0088 94.3374 60.9756 94.2953 60.9414 94.262Z" fill="#663433"/>
<path d="M59.2809 78.4231C59.0633 78.5865 58.8779 78.7865 58.6429 78.9266C58.5429 78.9857 58.4336 79.0235 58.3398 78.9408C58.1959 78.8128 58.317 78.5197 58.375 78.3745C58.4823 78.1066 58.0862 77.8846 57.9787 78.1545C57.7997 78.6038 57.7051 79.3287 58.3565 79.4351C58.8314 79.5133 59.182 79.061 59.5175 78.8087C59.7476 78.6342 59.5146 78.2469 59.2809 78.4231Z" fill="#382D29"/>
<path d="M63.7485 79.3469C63.6551 79.6086 63.5739 79.897 63.3931 80.1131C63.285 80.2406 63.182 80.2185 63.0486 80.1397C62.8465 80.0206 62.8094 79.7714 62.7811 79.5584C62.7426 79.2723 62.2898 79.2794 62.3274 79.5681C62.4029 80.1247 62.7055 80.7578 63.3774 80.6437C63.8663 80.5609 64.0502 79.8433 64.1876 79.458C64.2858 79.183 63.8461 79.0753 63.7485 79.3469Z" fill="#382D29"/>
<path d="M60.2873 80.1418C60.2684 80.0183 60.1625 79.9042 60.0063 79.9451C59.2941 80.1318 58.6681 80.8351 58.4264 81.5107C58.3766 81.6516 58.5148 81.7943 58.6508 81.7916C59.2998 81.7811 60.0128 81.731 60.5731 81.3663C60.9924 81.0926 60.618 80.4388 60.2873 80.1418Z" fill="#EA402F"/>
<path d="M46.933 55.9496C47.4861 55.6948 48.0918 56.042 48.5714 56.2998C49.18 56.6213 49.7792 56.9555 50.3962 57.2609C50.463 57.2962 50.5298 57.328 50.6001 57.3566C51.0127 57.5219 51.4319 57.6718 51.8591 57.799C52.09 57.8658 52.3229 57.9264 52.5571 57.9772C52.7947 58.0347 53.0638 58.0792 53.2216 58.1047C53.6823 58.1619 54.1507 58.1777 54.6145 58.1333C54.6129 58.13 54.7229 58.1173 54.7245 58.1173C54.7787 58.1109 54.8329 58.0982 54.8886 58.0886C54.9984 58.0696 55.1054 58.0441 55.2137 58.0157C55.4767 57.9488 55.6121 57.8945 55.8176 57.799C56.2702 57.5859 56.6449 57.3535 56.9252 56.9301C57.2551 56.4237 57.4051 55.8287 57.7763 55.3479C57.8657 55.2334 57.9597 55.1252 58.0648 55.0265C58.3851 54.7179 58.8503 54.9119 58.981 55.2939C59.1675 55.8351 58.9921 56.3696 58.6894 56.8474C58.7403 56.8825 58.7883 56.927 58.8265 56.9777C58.8694 56.9811 58.9126 56.9842 58.9572 56.9905C59.5053 57.0573 60.2273 57.1848 60.4951 57.7417C60.6799 58.1204 60.4297 58.5502 60.001 58.56C59.5961 58.5663 59.2026 58.4642 58.8152 58.3593C58.7387 58.3369 58.6606 58.3149 58.5842 58.2956C58.4933 58.2797 58.4823 58.2734 58.5539 58.2797C58.4933 58.2734 58.436 58.2638 58.377 58.251C58.3626 58.2477 58.3483 58.2446 58.3339 58.2414C58.4901 58.5216 58.6592 58.7986 58.8105 59.0819C59.0351 59.5052 59.2519 59.9602 59.1579 60.4474C59.1101 60.6797 58.8456 60.8546 58.6176 60.8455C57.9213 60.8136 57.4988 60.2788 57.2582 59.677C57.1704 59.4479 57.0942 59.2221 57.0224 58.993C55.9738 59.9063 54.2431 59.9128 52.8963 59.7981C51.8956 59.7121 50.89 59.553 49.9242 59.2728C48.7544 58.9323 47.5386 58.3496 46.8119 57.3376C46.514 56.9206 46.3451 56.2233 46.933 55.9496Z" fill="#A2AA00"/>
<path d="M10.344 63.9799C10.398 63.1204 10.4396 61.9776 10.9909 61.2425C11.0099 61.0036 11.1949 60.8159 11.4275 60.7235C12.0108 60.4913 12.7535 60.5421 13.2732 60.8986C13.9009 61.3346 14.057 62.1433 13.7606 62.8209C13.5823 63.2444 13.19 63.5374 12.8012 63.7762C13.6493 63.8335 14.4586 64.0466 14.9145 64.7947C15.3958 65.5937 15.0356 66.6537 14.6977 67.4336C14.5288 67.8121 14.3376 68.1753 14.1175 68.5285C14.8314 68.3122 15.5423 68.2484 16.1129 68.7608C16.7566 69.3497 16.6483 70.381 16.4857 71.1481C16.4317 71.3803 16.3676 71.613 16.2976 71.8452C16.9224 71.5492 17.579 71.4029 18.2292 71.6225C19.5456 72.0745 19.6986 73.8219 19.5297 74.9806C19.4468 75.5533 19.1727 76.1518 18.6434 76.4384C18.108 76.7312 17.4577 76.6231 16.9161 76.4003C16.0203 76.0341 15.1534 75.4168 14.4361 74.7261C13.617 74.0384 12.8523 73.2904 12.2815 72.3705C11.5102 71.1354 11.0735 69.6615 10.7804 68.2515C10.484 66.8414 10.2451 65.4217 10.344 63.9799Z" fill="#F4A200"/>
<path d="M40.9843 90.5716C40.841 89.222 40.8219 87.8437 40.7995 86.4845C40.7771 84.9375 40.8122 83.3874 40.9047 81.8372C40.9397 81.2101 40.9397 80.5862 41.0099 79.9593C41.0799 79.3162 41.2586 78.6956 41.8004 78.1892C42.0808 77.9285 42.4411 77.8615 42.7615 77.9475C42.8425 77.9092 42.9477 77.8997 43.0642 77.9314C43.9534 78.164 44.1925 79.0425 44.2738 79.7586C44.379 80.669 44.2849 81.608 44.1638 82.5342C44.03 83.572 43.9249 84.6064 43.7446 85.6409C43.4835 87.1529 43.2842 88.6522 43.1742 90.1672C43.1326 90.6669 43.0929 91.1667 43.034 91.6665C44.704 91.0266 47.6251 91.6219 47.5456 92.0961C46.7758 92.6311 45.5551 92.5166 44.0124 92.3032C44.9782 92.6376 45.939 92.9812 46.7295 93.5477C47.0212 93.7577 46.7009 94.156 46.3694 94.156C45.4083 94.1589 44.5417 93.8246 43.6985 93.4618C43.7908 93.5955 43.8851 93.7262 43.9709 93.8629C44.3087 94.385 44.6529 95.0183 44.5653 95.6518C44.5239 95.9254 44.1687 96.0846 43.9009 95.9508C42.8777 95.4481 42.2305 94.5537 41.8004 93.6369C41.3477 92.6693 41.1021 91.6219 40.9843 90.5716Z" fill="#A2AA00"/>
<path d="M29.114 91.2654C28.9672 89.916 28.9453 88.5408 28.926 87.1752C28.8974 85.6313 28.9387 84.0812 29.0248 82.5309C29.06 81.904 29.06 81.277 29.13 80.6531C29.2065 80.0099 29.3819 79.3862 29.9236 78.8802C30.2075 78.6191 30.5674 78.5522 30.883 78.6413C30.9691 78.6032 31.0679 78.5936 31.1859 78.6222C32.0814 78.8547 32.3205 79.7364 32.4002 80.4525C32.5055 81.3661 32.4068 82.3018 32.2918 83.2251C32.1581 84.2628 32.053 85.3004 31.871 86.3382C31.6034 87.8437 31.406 89.3428 31.2941 90.8581C31.2591 91.358 31.2211 91.8576 31.1572 92.3573C32.6106 92.1759 34.0608 91.8576 35.527 91.848C36.0052 91.848 36.0211 92.4561 35.5556 92.5548C34.4337 92.7902 33.2673 92.8156 32.1326 92.9972C33.0983 93.3281 34.0608 93.672 34.8576 94.2416C35.1478 94.4519 34.8226 94.8497 34.491 94.8497C33.5318 94.8528 32.6649 94.5155 31.8265 94.1559C31.919 94.2861 32.0114 94.4199 32.0975 94.5537C32.4291 95.0789 32.7797 95.7123 32.6869 96.3457C32.6521 96.6196 32.2919 96.7755 32.0272 96.645C31.0041 96.1389 30.3573 95.2508 29.9236 94.3278C29.4743 93.3631 29.2223 92.3159 29.114 91.2654Z" fill="#A2AA00"/>
<path d="M27.8201 38.8577C27.8201 38.8577 20.1577 38.1654 19.8358 39.6995C19.5109 41.2289 23.5332 42.5389 23.5332 42.5389C23.5332 42.5389 19.8996 43.3267 19.6798 44.7733C19.46 46.2202 23.7404 47.3247 23.7404 47.3247C23.7404 47.3247 19.052 48.2047 19.0582 50.3582C19.0646 52.5147 23.5492 52.8075 23.5492 52.8075C23.5492 52.8075 18.7491 53.909 18.8607 55.9366C18.969 57.961 22.7522 57.6459 22.7522 57.6459C22.7522 57.6459 18.6151 59.3075 18.7906 61.7076C18.9626 64.1044 22.9278 64.9955 22.9278 64.9955C22.9278 64.9955 19.2654 65.0018 19.4343 66.8958C19.6033 68.7899 23.275 69.7481 23.275 69.7481C23.275 69.7481 20.4003 71.1039 20.8975 73.1189C21.385 75.1306 25.1268 74.7645 25.1268 74.7645L27.8201 38.8577Z" fill="#F4A200"/>
<path d="M48.2665 47.2959C49.3264 57.6487 56.5473 79.7554 43.6209 83.9253C11.963 91.5392 24.7121 51.3495 25.6047 41.7652C25.866 39.6118 26.5928 38.3513 28.2405 37.6543C31.533 36.2712 38.8033 34.573 54.5422 34.7655C63.0844 34.8705 70.0565 35.0219 71.0814 37.4504C70.1474 40.0797 67.5466 46.2899 48.2665 47.2959Z" fill="#BBCE00"/>
<path d="M50.1067 36.4976C50.1067 36.4976 50.7234 26.2718 45.4931 27.0374C38.6723 27.7774 40.932 33.6629 41.1041 36.5611L50.1067 36.4976Z" fill="#BBCE00"/>
<path d="M36.4161 38.1913C36.7414 34.4654 37.7262 27.3751 32.0973 27.4594C25.7131 28.2965 27.8265 34.9715 27.989 38.2612L36.4161 38.1913Z" fill="#BBCE00"/>
<path d="M29.8955 32.0363C30.3457 31.0801 31.4738 30.6382 32.382 31.0583C32.6795 31.1978 32.8867 31.3373 33.1401 31.566C33.3265 31.7353 33.4766 31.964 33.6084 32.1822C33.8879 32.6267 34.0018 33.1474 34.0484 33.6733C34.082 33.9963 34.0354 34.3388 33.9345 34.6565C33.893 34.8477 33.8312 35.0338 33.7405 35.2133C33.4947 35.7134 32.9848 36.0558 32.4881 36.1901C31.4582 36.4642 30.3404 35.8956 29.854 34.8672C29.4375 33.9834 29.4787 32.9085 29.8955 32.0363Z" fill="white"/>
<path d="M30.4206 33.8291C30.524 33.4079 30.8036 33.0823 31.153 32.8421C31.5254 32.5822 32.0326 32.5784 32.4567 32.6766C33.2126 32.8498 33.7661 33.6521 33.7844 34.4067C33.8077 34.6226 33.7947 34.8408 33.7377 35.0527C33.5954 35.5658 33.1788 35.9274 32.6795 36.0786C32.2059 36.2194 31.6782 36.1212 31.2485 35.899C30.5111 35.5153 30.2264 34.5927 30.4206 33.8291Z" fill="black"/>
<path d="M43.1992 30.8377C43.6494 29.8815 44.7775 29.4396 45.6857 29.8597C45.9832 29.9991 46.1904 30.1386 46.4438 30.3674C46.6302 30.5367 46.7803 30.7653 46.9121 30.9836C47.1917 31.4281 47.3055 31.9488 47.3522 32.4747C47.3857 32.7977 47.3392 33.1402 47.2382 33.4579C47.1967 33.6491 47.1349 33.8352 47.0442 34.0147C46.7984 34.5148 46.2886 34.8572 45.7918 34.9915C44.7619 35.2655 43.6441 34.697 43.1578 33.6686C42.7412 32.7848 42.7825 31.7099 43.1992 30.8377Z" fill="white"/>
<path d="M43.7243 32.6306C43.8278 32.2094 44.1073 31.8838 44.4567 31.6436C44.8291 31.3837 45.3363 31.3799 45.7605 31.4781C46.5163 31.6513 47.0698 32.4536 47.0881 33.2082C47.1114 33.4241 47.0984 33.6423 47.0414 33.8542C46.8991 34.3673 46.4825 34.729 45.9832 34.8801C45.5096 35.0209 44.9819 34.9227 44.5522 34.7005C43.8148 34.3168 43.5301 33.3942 43.7243 32.6306Z" fill="black"/>
<path d="M67.104 36.3171C66.9607 36.0354 65.6826 31.6363 67.6731 31.9913C69.6619 32.346 69.6619 36.8867 69.6619 36.8867L67.104 36.3171Z" fill="#BBCE00"/>
<path d="M62.1296 36.3889C61.9879 36.1072 60.7097 31.7066 62.6971 32.0631C64.6875 32.418 64.6875 36.9571 64.6875 36.9571L62.1296 36.3889Z" fill="#BBCE00"/>
<path d="M31.8428 57.2064C32.0597 56.9041 32.2954 56.6206 32.5408 56.3375C33.3217 55.4333 34.3736 54.8319 35.5051 54.4023C36.6048 53.9883 37.8668 53.8864 39.043 53.9914C39.7919 54.0551 40.5603 54.1539 41.2647 54.4116C41.3826 54.4531 41.4907 54.4977 41.6023 54.539C42.1857 54.6791 42.7483 54.8988 43.2838 55.2043C44.3672 55.8345 45.2393 56.764 45.8972 57.7953C41.2135 57.6201 36.5219 57.5024 31.8428 57.2064Z" fill="#DFEA03"/>
<path d="M47.333 62.9041C43.7376 62.9931 40.1424 63.0631 36.5503 62.9516C34.7654 62.8974 32.9838 62.8019 31.202 62.6397C30.8131 62.6014 30.4243 62.5634 30.0322 62.5187C30.1662 61.4651 30.3575 60.4115 30.7303 59.4089C30.7844 59.256 30.8483 59.1064 30.9054 58.9536C31.7025 59.0078 32.4962 59.0588 33.2866 59.1064C37.7966 59.3578 42.3131 59.4661 46.8278 59.6412C47.2549 60.6851 47.5515 61.777 47.7376 62.8815V62.8942C47.604 62.8974 47.47 62.9005 47.333 62.9041Z" fill="#DFEA03"/>
<path d="M47.9885 68.8439C47.4117 68.7802 46.8347 68.7167 46.2578 68.6529C45.9088 68.6115 45.7048 68.586 45.4961 68.5605C45.2172 68.5256 44.9429 68.4905 44.6641 68.4588C39.6999 67.8411 34.7659 67.0295 29.9242 65.9028C29.9117 65.7498 29.9053 65.6004 29.8989 65.4507C29.8893 65.075 29.8893 64.6963 29.8927 64.3176C32.2797 64.5785 34.6831 64.7154 37.0863 64.7791C40.7167 64.8714 44.3438 64.7886 47.9773 64.6963C48.0809 65.8008 48.1047 66.9117 48.0459 68.0192C48.0316 68.2932 48.0108 68.5701 47.9885 68.8439Z" fill="#DFEA03"/>
<path d="M45.0826 77.6162C40.8404 77.2694 36.6044 76.8619 32.3619 76.5723C32.1677 76.2 31.9952 75.8275 31.8299 75.4455C31.8011 75.3817 31.7788 75.3182 31.75 75.2545C33.4711 75.2513 35.1891 75.213 36.9104 75.1462C40.1869 75.019 43.4523 74.7993 46.7241 74.5701C46.3447 75.5504 45.8684 76.4989 45.2692 77.3585C45.2103 77.4445 45.1465 77.5304 45.0826 77.6162Z" fill="#DFEA03"/>
<path d="M43.5226 79.3005C43.016 79.7269 42.4565 80.0864 41.8413 80.3443C40.8184 80.7709 39.7475 81.0448 38.6127 81.0287C37.5289 81.0095 36.4453 80.7103 35.5273 80.1726C34.7465 79.7204 34.1058 79.1315 33.5703 78.4663C36.8883 78.7146 40.2064 79.0202 43.5226 79.3005Z" fill="#DFEA03"/>
<path d="M47.2519 72.7239C41.8859 73.0995 36.5059 73.4657 31.1224 73.4369C30.8356 72.4503 30.6254 71.4379 30.4594 70.4288C30.3064 69.5631 30.1791 68.6879 30.0801 67.8157C32.7448 68.4203 35.435 68.9297 38.1408 69.3625C39.8461 69.6333 46.3227 70.4738 47.7667 70.6293C47.6502 71.3331 47.5052 72.0301 47.3188 72.7209C47.2949 72.7239 47.2756 72.7239 47.2519 72.7239Z" fill="#DFEA03"/>
<path d="M12.4058 58.8234C12.3166 59.3837 12.2657 59.9469 12.2242 60.5041C12.1475 61.5799 12.1795 62.6716 12.2941 63.7477C12.5556 66.1922 13.0337 68.6879 14.2163 70.8842C16.2051 75.7159 21.9839 75.5028 24.6196 74.5256C30.0381 76.2285 27.0835 77.6959 27.3798 78.2593C27.5711 78.6318 27.775 79.0009 27.9854 79.3703C28.0874 79.558 28.1926 79.7393 28.2978 79.9241C28.3519 80.0163 28.4029 80.1086 28.4604 80.2011C28.4731 80.2297 28.5944 80.4937 28.5527 80.4015C28.7631 80.8663 29.0884 81.2833 29.3464 81.7288C29.5886 82.1586 29.8119 82.6168 29.5886 83.0975C29.4037 83.5115 9.36834 89.5082 8.70215 69.0221C8.90606 62.7131 11.153 58.3809 12.4058 58.8234Z" fill="#BBCE00"/>
<path d="M43.4521 42.9368C43.4521 42.9368 44.0992 40.594 44.7799 40.8009C45.4602 41.0078 45.1862 43.4317 45.1862 43.4317L43.4521 42.9368Z" fill="white"/>
<path d="M63.5831 41.7827C63.5831 41.7827 62.7944 39.0946 63.478 38.8972C64.1633 38.6999 65.2485 40.8882 65.2485 40.8882L63.5831 41.7827Z" fill="white"/>
<path d="M46.858 43.8312C46.858 43.8312 46.066 41.4901 47.1943 41.4901C48.3257 41.4901 48.4071 43.8312 48.4071 43.8312H46.858Z" fill="white"/>
<path d="M58.943 43.2977C58.868 43.4474 59.3382 45.0962 58.4362 45.2092C57.5342 45.3191 57.1963 43.4076 57.1963 43.4076C57.1963 43.4076 59.0003 43.18 58.943 43.2977Z" fill="white"/>
<path d="M55.7296 43.6191C55.7296 43.7847 56.4403 45.6453 55.3999 45.6977C54.3591 45.7519 54.1934 43.9485 54.1934 43.9485L55.7296 43.6191Z" fill="white"/>
<path d="M45.7168 25.8257C46.9217 25.9578 47.8794 27.0544 48.5584 27.9743C48.8546 28.3723 48.3607 28.8591 47.9495 28.751C47.6962 28.6841 47.4809 28.5552 47.2833 28.3976C47.2133 28.3896 47.1431 28.3643 47.0682 28.3212C46.3511 27.8834 45.6928 27.344 45.2451 26.623C45.0474 26.3031 45.3088 25.7811 45.7168 25.8257Z" fill="#A2AA00"/>
<path d="M29.4964 27.9782C29.6751 27.4736 29.997 27.031 30.3508 26.6316C30.7014 26.2336 31.208 25.8103 31.7723 25.8358C31.9984 25.8453 32.2312 25.995 32.2823 26.2305C32.314 26.3722 32.3299 26.5106 32.2948 26.6522C32.2948 26.6459 32.2823 26.6777 32.2727 26.7175C32.2823 26.8942 32.2153 27.0789 32.0336 27.2076C31.3644 27.6724 30.9691 28.3855 30.1468 28.6385C29.7771 28.7547 29.3625 28.3584 29.4964 27.9782Z" fill="#A2AA00"/>
<path d="M67.8101 32.9336C68.0717 32.9336 68.2707 33.053 68.4159 33.2344C68.5146 33.3028 68.5943 33.4111 68.6309 33.5638C68.7775 34.1479 68.8938 34.748 68.8397 35.3528C68.8127 35.6775 68.5832 35.9417 68.239 35.9417H68.1131C67.8389 35.9417 67.6221 35.7536 67.5424 35.5009C67.3385 34.8608 67.2765 34.1893 67.2094 33.5241C67.1758 33.1993 67.5106 32.9336 67.8101 32.9336Z" fill="#A2AA00"/>
<path d="M62.8968 32.9336C63.1312 32.9336 63.3096 33.0402 63.4403 33.2026C63.5295 33.2646 63.5996 33.3616 63.6331 33.4986C63.7638 34.0207 63.8676 34.5554 63.8195 35.0998C63.7941 35.3926 63.5902 35.6283 63.2826 35.6283H63.1695C62.9241 35.6283 62.7295 35.4594 62.6579 35.2334C62.4745 34.6604 62.4172 34.0589 62.3584 33.462C62.3295 33.1706 62.6307 32.9336 62.8968 32.9336Z" fill="#A2AA00"/>
<path d="M26.9727 44.6807C26.9824 44.6106 26.995 44.5406 27.0016 44.4705C27.0143 44.4483 27.0174 44.4245 27.0302 44.399C27.0302 44.3925 27.0302 44.3861 27.0363 44.3782C27.0715 44.2445 27.1418 44.1315 27.2405 44.0345C27.2914 43.9884 27.3456 43.9484 27.4028 43.9104C27.4602 43.8689 27.5303 43.8545 27.5944 43.8292C27.6644 43.8053 27.7346 43.7973 27.8046 43.8022C27.9513 43.8022 28.0786 43.8435 28.1998 43.9136C28.3274 43.9884 28.426 44.0965 28.4897 44.2208C28.4897 44.2239 28.4963 44.227 28.4963 44.2302C28.5663 44.3513 28.6012 44.4816 28.6012 44.6281C28.6078 44.7158 28.5856 44.7842 28.5664 44.8605C28.5378 45.0292 28.4613 45.1853 28.3402 45.3076C28.1934 45.4525 27.9892 45.5336 27.7824 45.5336C27.5784 45.532 27.3744 45.4478 27.2278 45.2998C27.1639 45.2328 27.113 45.1566 27.0779 45.0689C27.0077 44.9529 26.9727 44.8192 26.9727 44.6807Z" fill="#A2AA00"/>
<path d="M30.3058 50.4248C30.2929 50.3358 30.2993 50.245 30.3282 50.156C30.3569 50.0762 30.3918 49.9952 30.4269 49.9203C30.4905 49.7913 30.6023 49.7071 30.7138 49.6323C30.7711 49.5941 30.8285 49.5686 30.8985 49.5557C31.0517 49.5065 31.144 49.5367 31.3001 49.559C31.4246 49.5765 31.5328 49.6785 31.6283 49.7548C31.6796 49.7944 31.7146 49.8534 31.7496 49.9107C31.8261 50.0476 31.8356 50.1351 31.8484 50.2945V50.3007C31.842 50.3675 31.8134 50.5394 31.8199 50.5043C31.8134 50.5474 31.8007 50.5889 31.7913 50.6302C31.7913 50.6366 31.7847 50.6461 31.7847 50.6588C31.7847 50.6651 31.7784 50.6746 31.7784 50.6842V50.6715C31.7496 50.802 31.6796 50.9232 31.5808 51.0216C31.4404 51.1619 31.2428 51.2382 31.0453 51.2382C30.6437 51.232 30.2834 50.8913 30.2993 50.4806C30.2993 50.4599 30.2993 50.4426 30.3058 50.4248Z" fill="#A2AA00"/>
<path d="M26.7554 57.6138C26.7906 57.2318 27.122 56.9262 27.5141 56.9296C27.7117 56.9329 27.9028 57.0123 28.0431 57.1555C28.1834 57.2989 28.2567 57.4897 28.2567 57.6871V57.8272C28.2567 58.0309 28.1707 58.2124 28.0368 58.3491C28.024 58.3617 28.0145 58.3746 28.0019 58.3875C27.8617 58.5274 27.6702 58.607 27.4663 58.6038C27.2687 58.6038 27.0774 58.521 26.9372 58.3777C26.8033 58.2409 26.7109 58.0403 26.7204 57.8432C26.7268 57.7699 26.7395 57.6871 26.7554 57.6138Z" fill="#A2AA00"/>
<path d="M24.0493 63.6712C24.0493 63.6681 24.0556 63.6619 24.0556 63.6556C24.0621 63.6427 24.0621 63.6268 24.0684 63.614C24.1322 63.4231 24.2247 63.2801 24.4064 63.1717C24.5753 63.0729 24.7824 63.0508 24.9641 63.1046C25.0756 63.1333 25.1744 63.1906 25.2541 63.2671C25.2541 63.2702 25.2605 63.2702 25.2605 63.2736C25.2733 63.2832 25.2828 63.2928 25.2955 63.3052C25.3785 63.3944 25.4422 63.5026 25.4773 63.6204C25.4804 63.6841 25.4867 63.7479 25.4995 63.8145C25.4931 63.945 25.4646 64.063 25.3944 64.1777C25.3944 64.1807 25.3881 64.187 25.3817 64.1933C25.3817 64.1998 25.3785 64.2063 25.3785 64.2126C25.372 64.2156 25.372 64.2156 25.372 64.2188C25.3083 64.3334 25.2192 64.4259 25.1043 64.4926C24.9354 64.5912 24.7312 64.6138 24.5432 64.5627C24.3647 64.5117 24.2117 64.3907 24.1193 64.2285C24.0271 64.0661 23.992 63.8495 24.0493 63.6712Z" fill="#A2AA00"/>
<path d="M24.9767 70.136C24.9767 70.1297 24.9799 70.1202 24.9861 70.1169C25.0626 69.9833 25.1964 69.8847 25.3431 69.8464C25.4993 69.8018 25.6682 69.8241 25.802 69.9067C25.9424 69.9897 26.022 70.1169 26.0761 70.2665C26.1336 70.4575 26.1209 70.6709 26.022 70.8492C25.9772 70.9287 25.8817 71.0273 25.7957 71.0688C25.748 71.094 25.7033 71.1165 25.649 71.1261C25.5056 71.1609 25.477 71.1482 25.3305 71.1227C25.2124 71.107 25.0848 71.0082 25.0117 70.9319C24.7948 70.7218 24.7883 70.3652 24.9767 70.136Z" fill="#A2AA00"/>
<path d="M20.6641 78.1254C20.6673 77.7978 20.9413 77.5333 21.2634 77.5333H21.4832C21.8082 77.5333 22.0761 77.8135 22.0761 78.1348V78.1637C22.0761 78.4819 21.8147 78.7366 21.5055 78.7556C21.397 78.7907 21.2792 78.7971 21.158 78.7651C21.0402 78.7303 20.9413 78.6632 20.8616 78.5711C20.7375 78.4597 20.6641 78.2971 20.6641 78.1254Z" fill="#A2AA00"/>
<path d="M16.0205 75.837C16.0205 75.5281 16.282 75.2769 16.5909 75.2769C16.6229 75.2769 16.6547 75.28 16.6899 75.283C16.8174 75.28 16.945 75.3149 17.0597 75.3883C17.1901 75.4678 17.2828 75.5823 17.3177 75.7286C17.3591 75.872 17.3337 76.031 17.2572 76.1615C17.1838 76.2889 17.0597 76.3811 16.9226 76.4194C16.8682 76.4259 16.8174 76.4289 16.7697 76.4353C16.7473 76.4353 16.7249 76.4353 16.6996 76.432C16.6771 76.432 16.658 76.4353 16.642 76.4353C16.5498 76.4449 16.4509 76.4129 16.3615 76.3622C16.1575 76.2699 16.0205 76.066 16.0205 75.837Z" fill="#A2AA00"/>
<path d="M12.365 72.8733C12.5467 72.6919 12.8463 72.6984 13.0279 72.8798L13.1205 72.972C13.3021 73.1566 13.3021 73.4592 13.1142 73.6374C12.9356 73.8187 12.6327 73.8156 12.4511 73.6308L12.3586 73.5386C12.1802 73.3571 12.1802 73.0547 12.365 72.8733Z" fill="#A2AA00"/>
<path d="M11.6319 67.3952C11.753 67.3605 11.8934 67.3856 12.0047 67.4527C12.1737 67.5257 12.2819 67.6945 12.2819 67.8855C12.2819 67.9939 12.247 68.1115 12.1801 68.2007C12.1036 68.363 11.9345 68.4775 11.7466 68.4775C11.4917 68.4743 11.2812 68.2579 11.2812 68.0033V67.8473C11.2812 67.6372 11.4278 67.4495 11.6319 67.3952Z" fill="#A2AA00"/>
<path d="M26.0796 66.8446C26.1147 66.7236 26.1912 66.625 26.2962 66.5645C26.408 66.5011 26.5416 66.4849 26.6627 66.5166C26.7745 66.5485 26.8891 66.6314 26.9433 66.7396C26.9783 66.8126 27.0135 66.8861 27.0295 66.9656C27.0518 67.0771 27.0644 67.2171 27.0167 67.3188C27.0009 67.3571 26.9817 67.3951 26.9719 67.4303C26.9241 67.5034 26.8732 67.5578 26.7967 67.5991C26.6914 67.6626 26.5576 67.6786 26.4364 67.6435C26.3186 67.6117 26.2133 67.5289 26.156 67.424C26.1115 67.3475 26.0796 67.2297 26.0922 67.1312C26.0571 67.0385 26.051 66.9464 26.0796 66.8446Z" fill="#A2AA00"/>
<path d="M24.464 59.447C24.7253 59.45 24.9357 59.6667 24.9357 59.9245V60.109C24.9357 60.367 24.7124 60.5768 24.4577 60.5768C24.2025 60.5768 23.9922 60.3605 23.9922 60.1059V59.9148C23.9922 59.6606 24.212 59.447 24.464 59.447Z" fill="#A2AA00"/>
<path d="M28.6074 54.2049V54.1476C28.6074 53.8928 28.8208 53.6795 29.0792 53.6828C29.3404 53.6859 29.5446 53.9023 29.5446 54.1571C29.5446 54.2144 29.5509 54.2684 29.5381 54.3288C29.5223 54.469 29.5223 54.4722 29.4615 54.6027C29.417 54.7044 29.2768 54.8061 29.1651 54.8286C29.0376 54.8478 28.9199 54.8444 28.8052 54.7745C28.6998 54.714 28.6201 54.6091 28.5883 54.4946C28.5659 54.399 28.5722 54.2971 28.6074 54.2049Z" fill="#A2AA00"/>
<path d="M26.2809 50.138V50.1349C26.249 50.0443 26.2394 49.9551 26.268 49.8548C26.3032 49.7388 26.3827 49.6385 26.488 49.5762C26.5994 49.5127 26.727 49.4982 26.8481 49.5302C26.9597 49.5619 27.0841 49.643 27.1286 49.7515C27.1857 49.8787 27.1988 49.9377 27.2177 50.076C27.2211 50.1285 27.2211 50.1844 27.2211 50.2383C27.2211 50.4945 27.0074 50.7064 26.7492 50.7031C26.4879 50.7031 26.2839 50.4865 26.2839 50.2303C26.2839 50.2019 26.2808 50.1748 26.2808 50.1461C26.2808 50.138 26.2745 50.1285 26.2745 50.1174C26.2746 50.1222 26.2809 50.1318 26.2809 50.138Z" fill="#A2AA00"/>
<path d="M30.1371 46.0052C30.2233 45.9064 30.3539 45.846 30.4909 45.8491C30.7491 45.8491 30.9596 46.064 30.9596 46.3186C30.9596 46.4555 30.9117 46.5812 30.8128 46.68C30.7204 46.7755 30.5865 46.8185 30.4528 46.8185C30.1946 46.8185 29.9873 46.5987 29.9873 46.3426C29.9873 46.2088 30.0447 46.0895 30.1371 46.0052Z" fill="#A2AA00"/>
<path d="M28.7639 40.7164C28.7766 40.702 28.7832 40.6878 28.7927 40.6703C28.799 40.6496 28.8056 40.629 28.8117 40.6099C28.8756 40.3615 29.1497 40.2166 29.3919 40.2867C29.6436 40.3566 29.784 40.6177 29.7199 40.8676C29.6913 40.9806 29.6374 41.1001 29.5735 41.1988C29.4332 41.4134 29.156 41.4947 28.9265 41.3626C28.713 41.2336 28.6236 40.9312 28.7639 40.7164Z" fill="#A2AA00"/>
<path d="M38.1216 42.1171C38.2973 41.2338 38.7624 40.5272 39.3615 39.8795C39.607 39.6185 39.983 40.0258 39.741 40.2869C39.5655 40.4731 39.4093 40.6642 39.2691 40.8613C44.9028 43.6164 51.4622 44.3866 57.6186 43.3267C62.4936 42.4862 67.1756 40.4143 70.8474 37.1134C71.042 37.1945 71.1233 37.3631 71.1535 37.5733C71.1552 37.5749 71.1585 37.578 71.1598 37.5845C67.2412 41.0827 62.1939 43.2073 56.9906 43.9889C50.9156 44.8992 44.5123 44.0413 38.9822 41.3357C38.8326 41.627 38.7146 41.9373 38.651 42.2794C38.5806 42.6312 38.0516 42.464 38.1216 42.1171Z" fill="black"/>
<path d="M66.0161 51.1002L64.9726 51.337C64.9487 51.0397 64.9318 50.7419 64.9227 50.4438C65.1172 50.387 65.2781 50.2275 65.2781 49.9654V49.9351C65.2781 49.2708 64.2471 49.2796 64.2471 49.9433V49.9736C64.2471 50.2436 64.4173 50.4024 64.6194 50.4513C64.6293 50.7695 64.6481 51.0874 64.6746 51.4047L63.217 51.7355C63.156 51.4685 63.1065 51.1989 63.0591 50.9288C63.2459 50.8498 63.3776 50.6628 63.3776 50.4499V50.4095C63.3776 50.1288 63.1372 49.8965 62.8578 49.8988C62.5751 49.9011 62.3464 50.1372 62.3464 50.4178V50.4582C62.3464 50.7018 62.5273 50.9085 62.7575 50.9577C62.807 51.2405 62.8582 51.5229 62.9215 51.8026L61.5974 52.1031C61.4955 51.8788 61.3915 51.6552 61.2868 51.4321C61.3318 51.4079 61.3734 51.3771 61.4098 51.3402C61.5005 51.2481 61.5669 51.1068 61.5578 50.975C61.5508 50.8704 61.5362 50.7865 61.4812 50.696C61.4259 50.6051 61.3725 50.5583 61.2846 50.5007C61.2029 50.4473 61.0933 50.4261 60.9976 50.4238C60.7167 50.4174 60.4841 50.6689 60.4863 50.9429C60.4874 51.079 60.5432 51.2104 60.6403 51.3058C60.6461 51.3114 60.6524 51.3165 60.6584 51.3218C60.6657 51.33 60.6726 51.3382 60.6806 51.3461C60.7618 51.426 60.8681 51.476 60.9804 51.4897C61.0871 51.7164 61.193 51.9434 61.2972 52.1712L60.6784 52.3117L60.9209 55.2193L61.8914 57.8846C61.8914 57.8846 62.236 57.8045 62.7555 57.6858C62.8008 57.9843 62.8565 58.2813 62.9174 58.5772C62.7253 58.6538 62.5888 58.8433 62.5888 59.0599V59.1002C62.5888 59.381 62.8294 59.6132 63.1086 59.611C63.3915 59.6087 63.6201 59.3726 63.6201 59.092V59.0516C63.6201 58.8128 63.4459 58.6096 63.2221 58.5554C63.1573 58.2445 63.0973 57.9325 63.0504 57.6186C63.4114 57.5364 63.8297 57.4418 64.2634 57.3451C64.3675 57.5841 64.4467 57.8337 64.5144 58.0888C64.2059 58.3562 64.3196 59.0053 64.8475 59.0053C65.5126 59.0053 65.5039 57.9755 64.8392 57.9755C64.8252 57.9755 64.8119 57.9766 64.7985 57.9776C64.7344 57.7389 64.6591 57.5043 64.5647 57.278C65.1012 57.159 65.6463 57.04 66.1256 56.9395C66.259 57.151 66.3852 57.3674 66.5195 57.5786C66.2315 57.8543 66.3511 58.4804 66.8693 58.4804C67.5345 58.4804 67.5256 57.4506 66.861 57.4506C66.8369 57.4506 66.8139 57.4523 66.7915 57.4549C66.6669 57.2654 66.5516 57.0695 66.4332 56.8756C67.0223 56.7548 67.4672 56.6732 67.593 56.6732C68.0785 56.6731 66.0161 51.1002 66.0161 51.1002Z" fill="#EE191D"/>
<path d="M30.7148 62.019C30.9877 62.1047 52.3823 56.4474 60.1638 54.3847C61.896 53.9256 62.9536 53.6444 62.9536 53.6444L63.9541 56.0521L31.2708 64.4268L30.7148 62.019Z" fill="#EE191D"/>
<path d="M45.2803 61.7769C45.2292 61.0388 45.1175 60.301 44.965 59.5768C44.9245 59.3843 44.8641 59.1967 44.7912 59.0142C44.529 58.3573 44.2724 57.6565 43.9065 57.0365C43.5354 56.4073 43.0323 55.8427 42.5642 55.2942C42.4394 55.1482 42.2987 55.0167 42.1506 54.8951C41.5918 54.4362 40.9868 53.9288 40.3381 53.5635C39.6828 53.1944 38.9537 52.951 38.257 52.6809C38.0236 52.5904 37.7774 52.5348 37.5308 52.4948C36.4658 52.3219 35.3862 52.1524 34.3073 52.2588C33.2186 52.366 32.0961 52.51 31.0355 52.8097C30.0202 53.0966 29.0354 53.5546 28.0888 53.9976C27.1542 54.4349 26.3434 55.142 25.5657 55.7943C25.3656 55.9621 25.182 56.1484 25.0117 56.346C24.4891 56.9527 23.9719 57.5902 23.5731 58.2883C23.2029 58.9366 22.9537 59.6552 22.6979 60.3532C22.4381 61.0627 22.4072 62.0545 22.3296 62.6916C22.3006 62.9286 22.2947 63.1645 22.3236 63.4017C22.3793 63.8583 22.463 64.7218 22.6117 65.335C22.7512 65.9107 23.2716 66.9235 23.3608 67.1243C23.6479 67.7703 24.2635 68.3755 24.6511 68.8672C24.7747 69.0238 24.9244 69.1588 25.0787 69.2843C25.1678 69.3568 25.2568 69.4282 25.3456 69.4989C25.4512 69.612 25.5682 69.7145 25.6903 69.8092C26.2245 70.2228 26.8449 70.7657 27.483 71.1103C28.325 71.5651 29.2441 71.9372 30.1748 72.1774C31.1527 72.4296 32.1805 72.5208 33.1825 72.598C33.6398 72.6333 34.1001 72.628 34.5572 72.5914C35.5368 72.5131 36.5281 72.3877 37.4839 72.151C38.373 71.931 39.2383 71.5222 40.0428 71.1128C40.2225 71.0212 40.3929 70.9124 40.5561 70.7941C41.1404 70.3698 41.7697 69.9165 42.2946 69.396C42.7912 68.9036 43.2717 68.1777 43.6363 67.6889C43.7594 67.5238 43.8698 67.3512 43.968 67.1702C44.3143 66.5317 44.5575 65.835 44.8174 65.161C44.8899 64.9729 44.9449 64.7784 44.9881 64.5817C45.1478 63.8565 45.2132 63.1094 45.2781 62.3708C45.2954 62.1734 45.2939 61.9746 45.2803 61.7769Z" fill="#EE191D"/>
<path d="M35.056 59.2781C33.3034 59.2781 31.8531 60.7749 31.8673 62.5143C31.8815 64.275 33.3556 65.6988 35.1079 65.6988C36.8605 65.6988 38.3107 64.2019 38.2965 62.4625C38.2824 60.7017 36.8082 59.2781 35.056 59.2781Z" fill="#14162D"/>
<path d="M65.2402 53.3185L35.0977 60.9552L35.1424 61.1313L65.285 53.4947L65.2402 53.3185Z" fill="#14162D"/>
<path d="M65.8114 53.7652L35.6719 61.4113L35.7167 61.5874L65.8562 53.9414L65.8114 53.7652Z" fill="#14162D"/>
<path d="M66.01 54.5919L35.8643 62.2224L35.909 62.3986L66.0547 54.7681L66.01 54.5919Z" fill="#14162D"/>
<path d="M66.4846 55.3239L36.3389 62.9451L36.3835 63.1212L66.5293 55.5001L66.4846 55.3239Z" fill="#14162D"/>
<path d="M65.1064 52.4026L66.0769 56.0068L66.8351 55.8251L65.7433 52.2815L65.1064 52.4026Z" fill="white"/>
<path d="M28.3496 61.4586C28.4103 61.6403 29.6234 66.3651 29.6234 66.3651L30.6545 65.7593L29.0775 61.2162L28.3496 61.4586Z" fill="white"/>
<path d="M32.0558 61.897C31.4303 61.9078 30.8298 62.0491 30.2345 62.2177C30.2674 62.167 30.3 62.1169 30.3318 62.0679C30.5713 61.6991 30.9987 61.0362 30.6867 60.5987C30.2202 59.9446 29.585 60.5747 29.3306 61.0488C29.1801 61.3294 29.0635 61.6297 28.9488 61.9261C28.9077 62.0322 28.8687 62.1392 28.8301 62.2463C28.8116 62.2975 28.7082 62.5573 28.8008 62.3428C28.7865 62.3759 28.7763 62.4086 28.769 62.4409C26.942 62.9199 24.8236 62.4707 23.6741 60.9806C23.1249 60.2685 22.8826 59.4992 22.9205 58.6308C22.9617 57.6865 23.5055 56.7447 24.1724 56.0306C24.461 55.7217 24.3683 55.3367 24.132 55.1093C24.0009 54.8864 23.751 54.7441 23.4277 54.8469C22.3797 55.1799 21.4471 55.8217 20.9294 56.8117C20.4436 57.7405 20.3971 58.7973 20.5738 59.8117C20.9199 61.7989 22.3598 63.7871 24.2394 64.5786C25.077 64.9313 25.9389 65.0346 26.8359 64.8859C27.6214 64.7555 28.3411 64.3698 28.9707 63.8869C29.1715 64.0939 29.4445 64.2601 29.6421 64.3932C30.0625 64.6764 30.5834 65.0156 31.1045 65.044C31.483 65.0645 31.6783 64.6193 31.5128 64.32C31.2407 63.8281 30.7895 63.5979 30.3134 63.397C30.5964 63.3681 30.8956 63.3779 31.1493 63.3455C31.6723 63.2782 32.2162 63.1166 32.4757 62.6143C32.6391 62.2981 32.4325 61.8904 32.0558 61.897ZM24.8912 63.449C24.8814 63.4455 24.8159 63.419 24.7924 63.4099C24.7363 63.3852 24.6809 63.3593 24.6257 63.3325C24.6012 63.3207 24.5774 63.3077 24.5532 63.2954C24.674 63.3542 24.7969 63.4089 24.9215 63.4593C24.9115 63.4557 24.9012 63.4526 24.8912 63.449Z" fill="#A2AA00"/>
<path d="M78.9782 47.8004C78.9782 47.8004 76.0654 50.9377 75.9254 51.0724C75.8255 51.1684 77.8831 52.7549 79.1081 53.695C79.0846 53.7136 79.0619 53.7334 79.0402 53.7543L79.0052 53.7879C78.8325 53.954 78.7338 54.1898 78.7313 54.4286C78.7286 54.6688 78.8228 54.9031 78.9911 55.0749C79.1594 55.2467 79.3919 55.3459 79.6325 55.3485C79.8748 55.3512 80.1057 55.2564 80.2799 55.0891L80.3148 55.0554C80.4876 54.8893 80.5862 54.6535 80.5888 54.4148C80.5908 54.2325 80.537 54.0537 80.4374 53.9028C80.4632 53.8625 77.4697 51.2047 77.4697 51.2047L79.192 49.2119L81.5989 51.3872C81.548 51.4194 81.4998 51.457 81.455 51.5001C81.0971 51.8442 81.0956 52.4346 81.4409 52.7871C81.7905 53.1439 82.3718 53.1452 82.7297 52.8011C83.0165 52.5253 83.0742 52.0913 82.908 51.7483L78.9782 47.8004Z" fill="#1C2C46"/>
<path d="M79.4727 7.5685C79.4727 7.5685 73.503 5.60014 73.2376 5.49562C73.0484 5.421 72.1834 9.13147 71.6744 11.3376C71.6352 11.3177 71.595 11.2995 71.5537 11.2833L71.4874 11.2571C71.1599 11.1282 70.7848 11.1406 70.4641 11.2829C70.1415 11.426 69.8858 11.6943 69.7589 12.0236C69.6319 12.3528 69.6412 12.7231 69.7846 13.0454C69.9288 13.3699 70.1964 13.6199 70.5262 13.7499L70.5925 13.7759C70.9199 13.905 71.2952 13.8924 71.6157 13.7503C71.8606 13.6418 72.0667 13.461 72.2074 13.2362C72.2771 13.2459 74.0028 7.63461 74.0028 7.63461L77.7166 8.71449L76.278 13.2496C76.2039 13.2015 76.1242 13.1601 76.0392 13.1266C75.3611 12.8595 74.5711 13.2177 74.3107 13.893C74.0471 14.5766 74.4 15.3523 75.0781 15.6193C75.6218 15.8334 76.237 15.6455 76.5939 15.2148L79.4727 7.5685Z" fill="#FFDD36"/>
<path d="M40.396 1.4378L42.6996 1.36592L42.5556 0L39.1722 0.646975L39.5058 6.92103C39.487 6.92028 39.4682 6.91958 39.4492 6.91958C38.7134 6.91958 38.1045 7.54812 38.1104 8.27841C38.1163 9.01769 38.7353 9.61547 39.471 9.61547C40.2068 9.61547 40.8157 8.98697 40.8098 8.25664C40.8076 7.96704 40.396 1.4378 40.396 1.4378Z" fill="#A2AA00"/>
<path d="M21.3344 11.0532C21.3344 11.0532 17.2664 9.71187 17.0855 9.64065C16.9565 9.5898 16.3671 12.1183 16.0202 13.6217C15.9935 13.6081 15.9661 13.5957 15.938 13.5847L15.8928 13.5669C15.6697 13.479 15.414 13.4874 15.1955 13.5844C14.9756 13.6819 14.8014 13.8648 14.7149 14.0892C14.6284 14.3135 14.6348 14.5658 14.7324 14.7855C14.8307 15.0066 15.013 15.177 15.2378 15.2655L15.283 15.2833C15.5061 15.3712 15.7618 15.3627 15.9803 15.2658C16.1471 15.1919 16.2876 15.0687 16.3835 14.9155C16.4309 14.9221 17.607 11.0983 17.607 11.0983L20.1378 11.8342L19.1574 14.9246C19.1069 14.8919 19.0526 14.8636 18.9947 14.8408C18.5325 14.6588 17.9942 14.9029 17.8168 15.3631C17.6371 15.8289 17.8776 16.3575 18.3397 16.5395C18.7102 16.6854 19.1295 16.5573 19.3727 16.2638L21.3344 11.0532Z" fill="#FF000D"/>
<path d="M1.45116 25.1256L3.21457 23.6436L2.25399 22.6606L0 25.2622L4.15473 29.98C4.13953 29.991 4.12433 30.0022 4.10947 30.0139C3.53196 30.4692 3.44403 31.3394 3.90181 31.9089C4.36519 32.4854 5.22189 32.5716 5.79935 32.1163C6.37687 31.661 6.46474 30.7908 6.00701 30.2213C5.82551 29.9954 1.45116 25.1256 1.45116 25.1256Z" fill="#C93F28"/>
<path d="M65.3185 16.8264C65.3185 16.8264 62.0291 15.7418 61.8829 15.6842C61.7786 15.6431 61.302 17.6876 61.0215 18.9032C60.9999 18.8923 60.9777 18.8822 60.955 18.8733L60.9184 18.8589C60.738 18.7879 60.5313 18.7947 60.3546 18.8731C60.1768 18.952 60.0359 19.0998 59.966 19.2813C59.896 19.4626 59.9012 19.6667 59.9801 19.8443C60.0596 20.0231 60.2071 20.1609 60.3888 20.2325L60.4254 20.2468C60.6058 20.3179 60.8125 20.311 60.9892 20.2327C61.1241 20.1729 61.2377 20.0733 61.3152 19.9494C61.3536 19.9548 62.3045 16.8628 62.3045 16.8628L64.3509 17.4578L63.5582 19.9567C63.5174 19.9302 63.4734 19.9074 63.4266 19.8889C63.0529 19.7417 62.6176 19.9392 62.4742 20.3112C62.3289 20.6879 62.5233 21.1153 62.897 21.2625C63.1966 21.3804 63.5356 21.2769 63.7323 21.0395L65.3185 16.8264Z" fill="#FC8832"/>
<path d="M78.8834 31.7579L80.1935 31.1186L79.7551 30.368L77.9717 31.6193L79.7966 35.152C79.7855 35.1564 79.7745 35.1609 79.7636 35.1658C79.3391 35.3567 79.1514 35.8774 79.3448 36.2971C79.5406 36.722 80.0532 36.9062 80.4776 36.7153C80.9021 36.5243 81.0898 36.0037 80.8964 35.584C80.8197 35.4176 78.8834 31.7579 78.8834 31.7579Z" fill="#BBCE00"/>
</svg>
