<svg width="102" height="34" viewBox="0 0 102 34" fill="none" xmlns="http://www.w3.org/2000/svg">
<g clip-path="url(#clip0_2973_13758)">
<path d="M25.1533 2.68809C23.9556 2.27782 21.7159 1.83188 17.8474 1.68323H16.2066V2.78917V14.5681C16.2066 15.4957 15.9491 15.9535 15.2605 16.1497L12.7394 16.8157C11.7573 17.0832 11.7872 17.5054 11.7872 18.2546V30.7411L13.4699 30.6578V29.4211C18.6259 29.2665 23.74 26.7454 24.8479 20.7578C25.6862 16.2389 25.5245 8.9135 25.7461 3.70485C25.7461 3.48485 25.7461 2.95566 25.7461 2.95566C25.5528 2.85999 25.3526 2.77852 25.1473 2.71188M17.4223 24.0459H16.4701C15.6258 24.0459 15.3623 23.8913 15.3623 22.9876C15.3623 22.173 15.6258 22.0481 16.4701 22.0481H17.4223C18.2547 22.0481 18.5122 22.173 18.5122 22.9876C18.5122 23.8913 18.2547 24.0459 17.4223 24.0459Z" fill="#3E3E59"/>
<path d="M13.1523 0.476196V1.56431H13.0865C6.45733 1.56431 3.50506 1.9389 1.91215 2.32539C1.24145 2.49187 0.1875 2.91998 0.1875 2.91998C0.1875 2.91998 0.1875 3.63944 0.1875 3.68106C0.391105 8.95511 0.187497 15.9773 1.07378 20.6805C1.81035 24.7059 4.36739 27.4232 8.25983 28.7075C8.93053 28.9275 10.3558 29.1832 10.3558 29.1832C10.3558 29.1832 10.3558 19.3903 10.3558 17.1308C10.3558 17.1308 10.3558 16.7027 10.3558 16.673C10.3541 16.4195 10.4466 16.1744 10.6157 15.9846C10.7848 15.7948 11.0185 15.6736 11.272 15.6443L13.9428 15.0913H14.0386H14.0805C14.2595 15.0169 14.4121 14.8911 14.5188 14.7301C14.6254 14.5691 14.6814 14.3802 14.6794 14.1875V3.24106V2.29565V0.476196H13.1523ZM9.14611 8.89566H8.18797C7.34361 8.89566 7.08611 8.74106 7.08611 7.83728C7.08611 7.02268 7.34361 6.89782 8.18797 6.89782H9.14611C9.9785 6.89782 10.236 7.02268 10.236 7.83728C10.236 8.74106 9.9785 8.89566 9.14611 8.89566Z" fill="#3E3E59"/>
<path d="M52.4543 7.2843H49.6816V18.6827H52.4543V7.2843Z" fill="#3E3E59"/>
<path d="M51.0639 2.53351C49.8662 2.53351 49.459 2.71189 49.459 3.90108C49.459 5.22108 49.8362 5.44702 51.0639 5.44702C52.2915 5.44702 52.6508 5.22108 52.6508 3.90108C52.6508 2.71189 52.2735 2.53351 51.0639 2.53351Z" fill="#3E3E59"/>
<path d="M57.7486 2.5097H54.9759V15.5908C54.8887 16.908 55.3179 18.2076 56.1736 19.2178L58.6049 18.1654C58.0031 17.4004 57.6952 16.4477 57.7366 15.4778L57.7486 2.5097Z" fill="#3E3E59"/>
<path d="M63.1789 7.2843H60.4062V18.6827H63.1789V7.2843Z" fill="#3E3E59"/>
<path d="M61.8433 2.53351C60.6456 2.53351 60.2324 2.71189 60.2324 3.90108C60.2324 5.22108 60.6157 5.44702 61.8433 5.44702C63.0709 5.44702 63.4302 5.22108 63.4302 3.90108C63.4302 2.71189 63.0529 2.53351 61.8433 2.53351Z" fill="#3E3E59"/>
<path d="M71.0849 6.94537C69.2453 6.97205 67.4234 7.30572 65.6953 7.9324V18.6767H68.4619V9.72213C69.1255 9.54301 69.8103 9.45302 70.498 9.45456C72.4622 9.45456 72.9293 10.0848 72.9293 12.6119V18.6767H75.7019V12.3205C75.7019 8.22375 74.2707 6.96916 71.0789 6.96916" fill="#3E3E59"/>
<path d="M77.7617 13.0162C77.7617 17.6481 79.4145 18.9621 82.5524 18.9621C83.5656 18.9872 84.5656 18.7297 85.4388 18.2189C85.4388 20.3297 84.2052 20.9065 82.1093 20.9065C80.948 20.888 79.7958 20.6997 78.6899 20.3475L78.133 22.5892C79.4219 23.023 80.7723 23.2498 82.1332 23.2611C85.7263 23.2611 88.2114 22.274 88.2114 17.8146V7.79565C86.6179 7.23211 84.9387 6.9445 83.2471 6.94538C79.4984 6.94538 77.7737 8.35456 77.7737 13.0162M85.4388 15.4778C85.4388 16.1735 84.4088 16.554 83.1812 16.554C81.235 16.554 80.6361 15.8346 80.6361 12.9865C80.6361 9.73997 81.2829 9.22267 83.2471 9.22267C83.994 9.22635 84.735 9.355 85.4388 9.60321V15.4778Z" fill="#3E3E59"/>
<path d="M95.5106 6.94537C91.9176 6.94537 90.1211 8.26538 90.1211 12.927C90.1211 17.5886 91.9176 18.9919 95.5106 18.9919C99.1037 18.9919 100.96 17.6065 100.96 12.927C100.96 8.24754 99.1635 6.94537 95.5106 6.94537ZM95.5106 16.7562C93.5644 16.7562 92.9656 16.1259 92.9656 12.9686C92.9656 9.69835 93.5644 9.187 95.5106 9.187C97.4569 9.187 98.1036 9.69835 98.1036 12.9686C98.1036 16.1259 97.5048 16.7562 95.5106 16.7562Z" fill="#3E3E59"/>
<path d="M43.8317 10.4179C46.6222 10.1681 47.0714 8.87191 47.0714 6.81462C47.0714 4.97137 46.6103 3.66921 44.8018 3.24705C44.7119 3.11624 42.5262 2.85461 39.8374 2.85461C37.1486 2.85461 34.873 2.94975 34.873 3.08651V18.6946H43.3825C45.8857 18.6946 47.4067 17.5054 47.4067 14.4195C47.4067 12.0887 46.8079 10.5665 43.8137 10.4357M37.8253 5.5957H37.9511C38.2685 5.5957 39.2625 5.54218 40.4422 5.54218C41.4662 5.54218 42.1429 5.54218 42.5681 5.5957H42.604C42.7883 5.60252 42.9712 5.63046 43.149 5.67894C43.7478 5.8811 43.9454 6.44597 43.9454 7.46272C43.9454 8.65191 43.5861 9.34164 42.604 9.34164H37.8133L37.8253 5.5957ZM42.7358 16.2152H37.8253V11.7141H42.6819C43.7538 11.7141 44.2628 12.5406 44.2628 14.0152C44.2628 15.4897 43.8376 16.2152 42.7657 16.2152" fill="#3E3E59"/>
<path d="M36.693 25.8535C38.5314 25.8535 39.4357 26.5076 39.4357 28.8265C39.4357 31.1454 38.5434 31.7995 36.693 31.7995H34.8965V25.8535H36.693ZM36.693 26.3649H35.4953V31.2643H36.693C38.2081 31.2643 38.7829 30.747 38.7829 28.8027C38.7829 26.7395 38.1841 26.3649 36.693 26.3649Z" fill="#3E3E59"/>
<path d="M41.3101 26.1865C41.3101 26.5016 41.2263 26.5492 40.9628 26.5492C40.6993 26.5492 40.6035 26.5016 40.6035 26.1865C40.6035 25.8714 40.6933 25.8535 40.9628 25.8535C41.2323 25.8535 41.3101 25.8951 41.3101 26.1865ZM41.2263 27.4827H40.6754V31.7757H41.2263V27.4827Z" fill="#3E3E59"/>
<path d="M46.0996 31.4605C46.0996 33.054 45.3152 33.5 43.9857 33.5C43.5148 33.4896 43.0482 33.4074 42.6024 33.2562L42.7641 32.727C43.146 32.8776 43.5511 32.9621 43.9618 32.9767C44.9559 32.9767 45.5248 32.6854 45.5248 31.5378C45.1814 31.7953 44.7565 31.9219 44.3271 31.8946C42.9917 31.8946 42.3809 31.3654 42.3809 29.6054C42.3809 27.8454 42.9797 27.3638 44.3271 27.3638C44.9187 27.3702 45.5038 27.4872 46.0517 27.7086L46.0996 31.4605ZM43.0396 29.6113C43.0396 31.0027 43.3689 31.3476 44.375 31.3476C45.0098 31.3476 45.5727 31.1394 45.5727 30.753V28.0713C45.1865 27.945 44.7815 27.8847 44.375 27.893C43.3689 27.893 43.0396 28.1665 43.0396 29.6292" fill="#3E3E59"/>
<path d="M48.0698 26.1865C48.0698 26.5016 47.9859 26.5492 47.7225 26.5492C47.459 26.5492 47.3691 26.5016 47.3691 26.1865C47.3691 25.8714 47.453 25.8535 47.7225 25.8535C47.9919 25.8535 48.0698 25.8951 48.0698 26.1865ZM47.9859 27.4827H47.4709V31.7757H48.0219L47.9859 27.4827Z" fill="#3E3E59"/>
<path d="M50.2449 30.3308C50.2449 31.0622 50.4425 31.3654 51.0414 31.3654C51.3181 31.3708 51.5936 31.3286 51.8558 31.2406L51.9816 31.7341C51.6777 31.8328 51.361 31.8869 51.0414 31.8946C50.0653 31.8946 49.694 31.6092 49.694 30.3368V27.9941H48.9395V27.4887H49.694V26.5849L50.2449 26.3589V27.4887H51.8318V27.9941H50.2449V30.3308Z" fill="#3E3E59"/>
<path d="M56.2446 31.5557C55.695 31.778 55.1074 31.8931 54.514 31.8946C53.3163 31.8946 52.7773 31.5616 52.7773 30.4497C52.7773 29.2249 53.5199 29.0286 54.478 29.0286C54.8815 29.0298 55.2834 29.0777 55.6757 29.1713C55.6757 28.113 55.4062 27.893 54.4122 27.893C53.9939 27.885 53.5778 27.9535 53.1845 28.0951L53.0229 27.5778C53.4857 27.4414 53.9653 27.3694 54.4481 27.3638C55.6937 27.3638 56.2446 27.7324 56.2446 29.0286V31.5557ZM55.6937 31.1989V29.6113C55.3158 29.5323 54.93 29.4964 54.5439 29.5043C53.6876 29.5043 53.4001 29.5935 53.4001 30.3843C53.4001 31.1751 53.6457 31.3713 54.5439 31.3713C54.9356 31.3712 55.3244 31.3049 55.6937 31.1751" fill="#3E3E59"/>
<path d="M58.1371 30.6757C58.1268 30.8503 58.1583 31.0249 58.229 31.1852C58.2998 31.3454 58.4079 31.4866 58.5444 31.5973L58.1192 31.9541C57.9366 31.8031 57.7929 31.6111 57.7002 31.3939C57.6075 31.1767 57.5684 30.9406 57.5862 30.7054V25.6395H58.1371V30.6757Z" fill="#3E3E59"/>
<path d="M61.0288 29.1832H59.2383V29.6946H61.0288V29.1832Z" fill="#3E3E59"/>
<path d="M65.3951 31.5557C64.8452 31.7769 64.2578 31.8919 63.6645 31.8946C62.4309 31.8946 61.9219 31.5616 61.9219 30.4497C61.9219 29.2249 62.6584 29.0286 63.6226 29.0286C64.026 29.0298 64.428 29.0777 64.8202 29.1713C64.8202 28.113 64.5508 27.893 63.5627 27.893C63.1425 27.8845 62.7243 27.953 62.3291 28.0951L62.1674 27.5778C62.6302 27.4414 63.1099 27.3694 63.5926 27.3638C64.8382 27.3638 65.3891 27.7324 65.3891 29.0286L65.3951 31.5557ZM64.8382 31.1989V29.6113C64.4604 29.532 64.0746 29.4961 63.6884 29.5043C62.8321 29.5043 62.5447 29.5935 62.5447 30.3843C62.5447 31.1751 62.7902 31.3713 63.6884 31.3713C64.0801 31.3712 64.469 31.3049 64.8382 31.1751" fill="#3E3E59"/>
<path d="M69.4552 27.4827V27.9941H67.2814V31.7757H66.7305V27.4827H69.4552Z" fill="#3E3E59"/>
<path d="M73.8211 29.6886H70.7671C70.7671 31.08 71.2162 31.3773 72.2103 31.3773C72.6291 31.3635 73.0432 31.2853 73.4379 31.1454L73.5636 31.6567C73.1066 31.795 72.6337 31.8749 72.1564 31.8946C70.8629 31.8946 70.1562 31.3654 70.1562 29.6113C70.1562 27.8573 70.809 27.3638 72.0785 27.3638C73.3481 27.3638 73.8271 27.8632 73.8271 29.6886M70.7731 29.1832H73.2223C73.1744 28.1189 72.8929 27.8811 72.1025 27.8811C71.2042 27.8811 70.8689 28.1784 70.797 29.1832" fill="#3E3E59"/>
<path d="M75.4923 29.6887V31.7757H74.9414V27.4827H75.4923V29.2011H77.8098V27.4827H78.3608V31.7757H77.8098V29.6887H75.4923Z" fill="#3E3E59"/>
<path d="M81.5148 31.7757H80.9639V27.9941H79.2871V27.4886H83.1915V27.9941H81.5148V31.7757Z" fill="#3E3E59"/>
<path d="M87.2168 31.6567C86.8356 31.808 86.4296 31.8886 86.0191 31.8946C84.6897 31.8946 83.9531 31.3654 83.9531 29.6113C83.9531 27.8573 84.6957 27.3638 86.0191 27.3638C86.4269 27.3753 86.8306 27.4475 87.2168 27.5778L87.0371 28.0951C86.7082 27.9552 86.353 27.8863 85.9952 27.893C84.9951 27.893 84.54 28.1665 84.54 29.6292C84.54 31.0919 84.9951 31.3654 85.9952 31.3654C86.3541 31.3643 86.7088 31.2894 87.0371 31.1454L87.2168 31.6567Z" fill="#3E3E59"/>
<path d="M90.091 31.7757H89.54V27.9941H87.8633V27.4886H91.7677V27.9941H90.091V31.7757Z" fill="#3E3E59"/>
<path d="M96.211 30.5627C96.2315 30.7237 96.2146 30.8872 96.1616 31.0407C96.1087 31.1943 96.0211 31.3338 95.9055 31.4485C95.7899 31.5633 95.6494 31.6503 95.4948 31.7028C95.3402 31.7554 95.1755 31.7722 95.0133 31.7519H92.6719V27.4648H94.9355C95.8757 27.4648 96.0613 27.9465 96.0613 28.4816C96.0613 29.0167 95.9535 29.3735 95.2169 29.433C95.9775 29.433 96.1871 29.9621 96.1871 30.5389M95.4744 28.5589C95.4744 28.1248 95.3427 27.9643 94.8756 27.9643H93.2468V29.1951H94.8756C95.3667 29.1951 95.4744 28.9275 95.4744 28.553M95.5822 30.5151C95.5822 29.9978 95.3786 29.6827 94.8936 29.6827H93.2228V31.2346H94.9175C95.4146 31.2346 95.5822 31.0086 95.5822 30.5151Z" fill="#3E3E59"/>
<path d="M99.2411 31.8946C97.9057 31.8946 97.2949 31.3654 97.2949 29.6054C97.2949 27.8454 97.8938 27.3638 99.2411 27.3638C100.589 27.3638 101.187 27.8632 101.187 29.6054C101.187 31.3476 100.589 31.8946 99.2411 31.8946ZM99.2411 27.893C98.2351 27.893 97.9057 28.1665 97.9057 29.6292C97.9057 31.0919 98.2351 31.3654 99.2411 31.3654C100.247 31.3654 100.577 31.0205 100.577 29.6292C100.577 28.2378 100.247 27.893 99.2411 27.893Z" fill="#3E3E59"/>
</g>
<defs>
<clipPath id="clip0_2973_13758">
<rect width="101" height="33" fill="white" transform="translate(0.1875 0.5)"/>
</clipPath>
</defs>
</svg>
