<svg width="86" height="34" viewBox="0 0 86 34" fill="none" xmlns="http://www.w3.org/2000/svg">
<path fill-rule="evenodd" clip-rule="evenodd" d="M0 17.0002C0 7.61104 19.2513 0 43 0C66.7487 0 86 7.61104 86 17.0002C86 26.3893 66.7483 34 43 34C19.2517 34 0 26.3893 0 17.0002ZM52.5906 18.4887C52.5847 18.4606 52.5703 18.4349 52.5493 18.4151C52.5283 18.3953 52.5017 18.3822 52.4731 18.3776C51.2353 18.199 49.993 18.0589 48.7461 17.9572C48.6725 17.9448 48.6208 17.8774 48.6678 17.7183C52.6423 13.5849 54.1515 8.32569 52.1421 4.21124C52.1443 4.19247 52.1503 4.17431 52.1596 4.15782C52.169 4.14133 52.1815 4.12683 52.1966 4.11514C52.2116 4.10345 52.2288 4.09481 52.2472 4.08971C52.2656 4.08461 52.2849 4.08315 52.3039 4.08542C65.9798 5.72493 75.9648 10.8866 75.9648 17.0002C75.9648 24.4332 61.2055 30.4589 42.998 30.4589C24.7906 30.4589 10.0332 24.4335 10.0332 17.0002C10.0332 10.5567 21.1263 5.17017 35.9421 3.85043C36.0142 3.85314 36.0749 3.90773 36.0788 4.01999L32.8622 21.5269C32.8023 21.8345 32.8119 22.1513 32.8903 22.4548C32.9687 22.7583 33.114 23.0409 33.3157 23.2824C33.5175 23.5239 33.7707 23.7184 34.0574 23.852C34.344 23.9855 34.6569 24.0548 34.9738 24.0549L35.089 24.0607C37.9581 23.9128 41.0427 23.0279 43.9534 21.3663C44.7786 20.8953 45.5729 20.3732 46.3313 19.803C46.3531 19.7856 46.3795 19.7749 46.4074 19.7722C46.4352 19.7695 46.4633 19.775 46.488 19.7879C47.4579 20.4263 48.0156 21.1735 48.0156 21.9729C48.0156 23.0569 46.9855 24.0495 45.291 24.799C43.3235 25.6747 40.4579 26.2229 37.2672 26.2229C34.5645 26.2229 32.0925 25.8284 30.1756 25.1703C30.1383 25.1637 30.0998 25.1721 30.0687 25.1935C30.0376 25.2149 30.0163 25.2476 30.0095 25.2845L29.7353 26.7687C29.7306 26.8041 29.7395 26.8398 29.7602 26.869C29.781 26.8981 29.8121 26.9184 29.8474 26.9259C33.7463 27.8229 38.2296 28.3328 43.0023 28.3328C48.9388 28.3328 53.7527 26.4296 53.7527 24.0832C53.7527 23.1699 53.0254 22.3244 51.7876 21.6326C50.703 21.1069 50.0199 20.4256 50.1876 19.968C50.3611 19.4941 51.3987 19.4182 52.6309 19.7465C52.701 19.7554 52.7688 19.714 52.7935 19.5917L52.5906 18.4887ZM43 7.77325C43 7.865 42.9973 7.95676 42.9914 8.04618C43.1481 11.1661 41.1963 15.3398 37.6303 18.8642C36.9225 19.565 36.1687 20.2189 35.3737 20.8216C35.3424 20.8414 35.3044 20.8482 35.268 20.8406C35.2305 20.8319 35.198 20.809 35.1775 20.7768C35.157 20.7447 35.1501 20.7058 35.1583 20.6687L38.6522 1.65461C38.6501 1.61948 38.6351 1.58633 38.6099 1.56148C38.5846 1.53663 38.5511 1.52182 38.5155 1.51989C19.2552 2.41416 4.30078 9.00434 4.30078 17.0002C4.30078 25.6066 21.6273 32.5831 43 32.5831C64.3727 32.5831 81.6992 25.6066 81.6992 17.0002C81.6992 8.39383 64.3747 1.41691 43 1.41691C42.3228 1.41691 41.6491 1.42426 40.9734 1.4382C40.9414 1.43845 40.9104 1.44918 40.8852 1.46873C40.86 1.48828 40.8421 1.51553 40.8343 1.54621L40.4258 3.76487C40.421 3.79314 40.425 3.82219 40.4372 3.84818C40.4494 3.87416 40.4694 3.89587 40.4943 3.91044C41.2425 4.24959 41.8764 4.79386 42.3207 5.4786C42.7651 6.16334 43.0013 6.95976 43.0012 7.77325H43Z" fill="#3E3E59"/>
</svg>
