<svg width="99" height="30" viewBox="0 0 99 30" fill="none" xmlns="http://www.w3.org/2000/svg">
<g clip-path="url(#clip0_2973_13741)">
<path d="M94.4079 25.6123C96.3505 25.6123 97.7266 25.2613 98.7518 24.5052V21.0758C97.6996 21.8049 96.4315 22.2639 94.6507 22.2639C91.6558 22.2639 90.4147 19.9416 90.4147 16.2692C90.4147 12.4077 91.9256 10.4365 94.6777 10.4365C96.1004 10.4441 97.4961 10.8259 98.7249 11.5436V7.97919C97.8345 7.49313 96.2966 7.14209 94.192 7.14209C88.8228 7.14209 86.0437 11.0036 86.0437 16.4042C86.0707 22.3179 88.7958 25.6123 94.4079 25.6123ZM68.1552 24.0461V20.6167C66.5012 21.675 64.5869 22.2544 62.6241 22.2909C59.5483 22.2909 58.3881 20.8327 58.1992 17.8624H68.3441V15.6481C68.3441 9.46437 65.619 7.14209 61.4369 7.14209C56.3105 7.14209 53.8822 11.0576 53.8822 16.4312C53.8822 22.615 56.9311 25.6123 62.2734 25.6123C64.9445 25.6123 66.9141 24.8832 68.1552 24.0461ZM29.6532 7.46613V14.487H24.0411V7.46613H19.832V25.2613H24.0411V17.8354H29.6532V25.2613H33.8622V7.46613H29.6532ZM52.83 21.9129H50.9683V7.46613H38.7188V8.97831C38.7188 13.3258 38.449 18.9425 36.9651 21.9129H35.616V29.3118H39.5013V25.2613H48.9177V29.3118H52.803V21.9129H52.83ZM81.5649 25.2613H86.3405L79.5952 15.6751L85.5311 7.46613H81.295L75.3592 15.6751V7.46613H71.1502V25.2613H75.3592V16.5122L81.5649 25.2613ZM61.329 10.4365C63.4066 10.4365 64.0541 12.1647 64.0541 14.406V14.757H58.1992C58.3071 11.9217 59.3324 10.4365 61.329 10.4365ZM46.7592 21.9129H40.8234C41.9835 19.2396 42.3073 14.379 42.3073 11.3006V10.7605H46.7592V21.9129Z" fill="#3E3E59"/>
<path d="M16.3236 25.2613H12.0336V4.0097H10.1179C6.61038 4.0097 4.77566 5.76491 4.77566 8.38422C4.77566 11.3546 6.04377 12.7317 8.66094 14.487L10.8194 15.9451L4.61377 25.2613H0L5.58509 16.9443C2.37434 14.649 0.566604 12.4077 0.566604 8.62725C0.566604 3.90168 3.8583 0.688293 10.0909 0.688293H16.2966V25.2613H16.3236Z" fill="#3E3E59"/>
</g>
<defs>
<clipPath id="clip0_2973_13741">
<rect width="98.7509" height="28.6235" fill="white" transform="translate(0 0.688293)"/>
</clipPath>
</defs>
</svg>
