<svg width="131" height="40" viewBox="0 0 131 40" fill="none" xmlns="http://www.w3.org/2000/svg">
<g clip-path="url(#clip0_2973_13747)">
<path d="M32.2449 34.0235L28.4855 27.715L24.8061 34.0235H20.4009L26.0602 24.5213L20.293 15.7007H24.8968L28.5915 21.5895L32.1157 15.7007H36.5219L30.8462 24.8095L36.6761 34.0235H32.242" fill="#3E3E59"/>
<path d="M50.9955 27.7939C50.9955 31.8249 47.9899 34.337 44.0551 34.337C40.5849 34.337 37.6594 32.4004 37.375 28.1863H41.1344C41.3937 30.0187 42.8454 30.8035 44.4262 30.8035C46.3956 30.8035 47.2458 29.4686 47.2458 27.7413C47.2458 25.9351 45.9242 24.8095 44.084 24.8095C42.5552 24.8095 41.545 25.5427 41.0785 26.3275H37.4791L38.7207 15.7007H50.5338L50.1405 19.2605H41.6906L41.3551 22.7774C41.3551 22.7774 42.2429 21.721 44.9323 21.721C48.1711 21.721 50.9955 23.9196 50.9955 27.7939Z" fill="#3E3E59"/>
<path d="M37.8154 13.4184C35.8143 5.53735 29.4639 0 16.2858 0H0.375L2.53519 14.7523C4.15943 28.0636 9.19988 32.3459 18.1192 33.9223C18.1605 33.9334 18.2038 33.9341 18.2453 33.9244C18.2869 33.9147 18.3255 33.8949 18.3578 33.8667C18.39 33.8384 18.4149 33.8026 18.4303 33.7624C18.4457 33.7222 18.4511 33.6788 18.446 33.636C18.4457 33.5787 18.4287 33.5228 18.3972 33.4752C18.3656 33.4276 18.3209 33.3904 18.2686 33.3682C12.2402 30.8035 11.5567 22.3948 10.265 13.9578L9.26832 7.23351H18.3506C26.7253 7.23351 33.1895 7.10012 37.2833 13.6287C37.3115 13.6756 37.3507 13.7147 37.3974 13.7426C37.4442 13.7704 37.4971 13.7862 37.5513 13.7884C37.5886 13.7881 37.6255 13.7803 37.6597 13.7654C37.6939 13.7505 37.7248 13.7287 37.7506 13.7014C37.7763 13.6742 37.7963 13.642 37.8095 13.6067C37.8226 13.5715 37.8286 13.5339 37.827 13.4963C37.8272 13.4689 37.8233 13.4417 37.8154 13.4154" fill="#3E3E59"/>
<path d="M54.1484 24.8475C54.1484 19.1563 58.2404 15.0493 63.9267 15.0493C67.7342 15.0493 71.1822 17.2888 72.1857 20.352L70.0506 21.0794C69.2794 18.7922 66.7308 17.1291 63.9267 17.1291C59.5783 17.1291 56.4898 20.3257 56.4898 24.8475C56.4898 29.3187 59.6034 32.5932 63.9267 32.5932C67.8374 32.5932 70.9249 29.7598 71.028 26.0695L62.0219 26.0432V23.9381H73.3964C73.782 30.1755 69.8192 34.672 63.9276 34.672C58.2404 34.672 54.1494 30.5397 54.1494 24.8475" fill="#3E3E59"/>
<path d="M76.209 20.8972H78.293V22.6645H78.5244C79.1162 21.4688 80.5573 20.6373 81.9946 20.6373C82.5864 20.6373 83.2033 20.7677 83.5899 20.9751V22.979C82.9767 22.7295 82.323 22.5974 81.662 22.5895C79.7062 22.5895 78.3431 24.3568 78.3431 26.9565V34.0255H76.209V20.8972Z" fill="#3E3E59"/>
<path d="M96.6071 27.4473C96.6071 24.4843 94.5741 22.3266 91.7691 22.3266C88.9389 22.3266 86.932 24.4843 86.932 27.4473C86.932 30.4355 88.9389 32.5932 91.7691 32.5932C94.5741 32.5932 96.6071 30.4355 96.6071 27.4473ZM84.7969 27.4473C84.7969 23.3149 87.6781 20.3773 91.7691 20.3773C95.835 20.3773 98.7422 23.3149 98.7422 27.4473C98.7422 31.6059 95.835 34.5425 91.7691 34.5425C87.6781 34.5425 84.7969 31.6059 84.7969 27.4473Z" fill="#3E3E59"/>
<path d="M113.105 34.0226H110.969V32.229H110.712C110.284 32.9277 109.685 33.503 108.973 33.8993C108.261 34.2955 107.459 34.4993 106.646 34.4909C103.327 34.4909 101.248 32.0732 101.248 28.7208V20.8973H103.383V28.7238C103.383 30.9584 104.67 32.5445 106.908 32.5445C109.096 32.5445 110.974 30.8542 110.974 28.5417V20.8973H113.109V34.0226" fill="#3E3E59"/>
<path d="M118.589 27.4473C118.589 30.3323 120.622 32.5932 123.426 32.5932C126.205 32.5932 128.238 30.3323 128.238 27.4473C128.238 24.5106 126.205 22.3266 123.426 22.3266C120.622 22.3266 118.589 24.5622 118.589 27.4473ZM130.374 27.4473C130.374 31.5533 127.466 34.5425 123.684 34.5425C121.6 34.5425 119.85 33.6331 118.899 32.0732H118.666V40H116.529V20.8973H118.664V22.8992H118.897C119.848 21.313 121.521 20.3773 123.657 20.3773C127.439 20.3773 130.372 23.3402 130.372 27.4473" fill="#3E3E59"/>
</g>
<defs>
<clipPath id="clip0_2973_13747">
<rect width="130" height="40" fill="white" transform="translate(0.375)"/>
</clipPath>
</defs>
</svg>
